<?xml version="1.0" encoding="utf-8" standalone="no"?>
<!DOCTYPE svg PUBLIC "-//W3C//DTD SVG 1.1//EN"
  "http://www.w3.org/Graphics/SVG/1.1/DTD/svg11.dtd">
<svg xmlns:xlink="http://www.w3.org/1999/xlink" width="932.471562pt" height="544.1175pt" viewBox="0 0 932.471562 544.1175" xmlns="http://www.w3.org/2000/svg" version="1.1">
 <metadata>
  <rdf:RDF xmlns:dc="http://purl.org/dc/elements/1.1/" xmlns:cc="http://creativecommons.org/ns#" xmlns:rdf="http://www.w3.org/1999/02/22-rdf-syntax-ns#">
   <cc:Work>
    <dc:type rdf:resource="http://purl.org/dc/dcmitype/StillImage"/>
    <dc:date>2026-06-02T22:30:11.322155</dc:date>
    <dc:format>image/svg+xml</dc:format>
    <dc:creator>
     <cc:Agent>
      <dc:title>Matplotlib v3.10.3, https://matplotlib.org/</dc:title>
     </cc:Agent>
    </dc:creator>
   </cc:Work>
  </rdf:RDF>
 </metadata>
 <defs>
  <style type="text/css">*{stroke-linejoin: round; stroke-linecap: butt}</style>
 </defs>
 <g id="figure_1">
  <g id="patch_1">
   <path d="M 0 544.1175 
L 932.471562 544.1175 
L 932.471562 0 
L 0 0 
z
" style="fill: #0f0f1a"/>
  </g>
  <g id="axes_1">
   <g id="patch_2">
    <path d="M 59.831563 481.4775 
L 841.031563 481.4775 
L 841.031563 37.9575 
L 59.831563 37.9575 
z
" style="fill: #1a1a2e"/>
   </g>
   <g id="FillBetweenPolyCollection_1">
    <defs>
     <path id="mf219bd6db7" d="M 95.340653 -486 
L 95.340653 -315.335463 
L 166.358835 -315.335463 
L 237.377017 -315.335463 
L 308.395199 -315.335463 
L 379.413381 -315.335463 
L 450.431563 -315.335463 
L 521.449744 -315.335463 
L 592.467926 -315.335463 
L 663.486108 -315.335463 
L 734.50429 -315.335463 
L 805.522472 -315.335463 
L 805.522472 -486 
L 805.522472 -486 
L 734.50429 -486 
L 663.486108 -486 
L 592.467926 -486 
L 521.449744 -486 
L 450.431563 -486 
L 379.413381 -486 
L 308.395199 -486 
L 237.377017 -486 
L 166.358835 -486 
L 95.340653 -486 
z
" style="stroke: #ff6b6b; stroke-opacity: 0.1"/>
    </defs>
    <g clip-path="url(#p43f786fe57)">
     <use xlink:href="#mf219bd6db7" x="0" y="544.1175" style="fill: #ff6b6b; fill-opacity: 0.1; stroke: #ff6b6b; stroke-opacity: 0.1"/>
    </g>
   </g>
   <g id="matplotlib.axis_1">
    <g id="xtick_1">
     <g id="line2d_1">
      <path d="M 166.358835 481.4775 
L 166.358835 37.9575 
" clip-path="url(#p43f786fe57)" style="fill: none; stroke: #555555; stroke-opacity: 0.2; stroke-width: 0.8; stroke-linecap: square"/>
     </g>
     <g id="line2d_2">
      <defs>
       <path id="m89de6363a3" d="M 0 0 
L 0 3.5 
" style="stroke: #cccccc; stroke-width: 0.8"/>
      </defs>
      <g>
       <use xlink:href="#m89de6363a3" x="166.358835" y="481.4775" style="fill: #cccccc; stroke: #cccccc; stroke-width: 0.8"/>
      </g>
     </g>
     <g id="text_1">
      <!-- 2K -->
      <g style="fill: #cccccc" transform="translate(159.898679 496.075938) scale(0.1 -0.1)">
       <defs>
        <path id="DejaVuSans-32" d="M 1228 531 
L 3431 531 
L 3431 0 
L 469 0 
L 469 531 
Q 828 903 1448 1529 
Q 2069 2156 2228 2338 
Q 2531 2678 2651 2914 
Q 2772 3150 2772 3378 
Q 2772 3750 2511 3984 
Q 2250 4219 1831 4219 
Q 1534 4219 1204 4116 
Q 875 4013 500 3803 
L 500 4441 
Q 881 4594 1212 4672 
Q 1544 4750 1819 4750 
Q 2544 4750 2975 4387 
Q 3406 4025 3406 3419 
Q 3406 3131 3298 2873 
Q 3191 2616 2906 2266 
Q 2828 2175 2409 1742 
Q 1991 1309 1228 531 
z
" transform="scale(0.015625)"/>
        <path id="DejaVuSans-4b" d="M 628 4666 
L 1259 4666 
L 1259 2694 
L 3353 4666 
L 4166 4666 
L 1850 2491 
L 4331 0 
L 3500 0 
L 1259 2247 
L 1259 0 
L 628 0 
L 628 4666 
z
" transform="scale(0.015625)"/>
       </defs>
       <use xlink:href="#DejaVuSans-32"/>
       <use xlink:href="#DejaVuSans-4b" transform="translate(63.623047 0)"/>
      </g>
     </g>
    </g>
    <g id="xtick_2">
     <g id="line2d_3">
      <path d="M 308.395199 481.4775 
L 308.395199 37.9575 
" clip-path="url(#p43f786fe57)" style="fill: none; stroke: #555555; stroke-opacity: 0.2; stroke-width: 0.8; stroke-linecap: square"/>
     </g>
     <g id="line2d_4">
      <g>
       <use xlink:href="#m89de6363a3" x="308.395199" y="481.4775" style="fill: #cccccc; stroke: #cccccc; stroke-width: 0.8"/>
      </g>
     </g>
     <g id="text_2">
      <!-- 8K -->
      <g style="fill: #cccccc" transform="translate(301.935043 496.075938) scale(0.1 -0.1)">
       <defs>
        <path id="DejaVuSans-38" d="M 2034 2216 
Q 1584 2216 1326 1975 
Q 1069 1734 1069 1313 
Q 1069 891 1326 650 
Q 1584 409 2034 409 
Q 2484 409 2743 651 
Q 3003 894 3003 1313 
Q 3003 1734 2745 1975 
Q 2488 2216 2034 2216 
z
M 1403 2484 
Q 997 2584 770 2862 
Q 544 3141 544 3541 
Q 544 4100 942 4425 
Q 1341 4750 2034 4750 
Q 2731 4750 3128 4425 
Q 3525 4100 3525 3541 
Q 3525 3141 3298 2862 
Q 3072 2584 2669 2484 
Q 3125 2378 3379 2068 
Q 3634 1759 3634 1313 
Q 3634 634 3220 271 
Q 2806 -91 2034 -91 
Q 1263 -91 848 271 
Q 434 634 434 1313 
Q 434 1759 690 2068 
Q 947 2378 1403 2484 
z
M 1172 3481 
Q 1172 3119 1398 2916 
Q 1625 2713 2034 2713 
Q 2441 2713 2670 2916 
Q 2900 3119 2900 3481 
Q 2900 3844 2670 4047 
Q 2441 4250 2034 4250 
Q 1625 4250 1398 4047 
Q 1172 3844 1172 3481 
z
" transform="scale(0.015625)"/>
       </defs>
       <use xlink:href="#DejaVuSans-38"/>
       <use xlink:href="#DejaVuSans-4b" transform="translate(63.623047 0)"/>
      </g>
     </g>
    </g>
    <g id="xtick_3">
     <g id="line2d_5">
      <path d="M 450.431563 481.4775 
L 450.431563 37.9575 
" clip-path="url(#p43f786fe57)" style="fill: none; stroke: #555555; stroke-opacity: 0.2; stroke-width: 0.8; stroke-linecap: square"/>
     </g>
     <g id="line2d_6">
      <g>
       <use xlink:href="#m89de6363a3" x="450.431563" y="481.4775" style="fill: #cccccc; stroke: #cccccc; stroke-width: 0.8"/>
      </g>
     </g>
     <g id="text_3">
      <!-- 32K -->
      <g style="fill: #cccccc" transform="translate(440.790156 496.075938) scale(0.1 -0.1)">
       <defs>
        <path id="DejaVuSans-33" d="M 2597 2516 
Q 3050 2419 3304 2112 
Q 3559 1806 3559 1356 
Q 3559 666 3084 287 
Q 2609 -91 1734 -91 
Q 1441 -91 1130 -33 
Q 819 25 488 141 
L 488 750 
Q 750 597 1062 519 
Q 1375 441 1716 441 
Q 2309 441 2620 675 
Q 2931 909 2931 1356 
Q 2931 1769 2642 2001 
Q 2353 2234 1838 2234 
L 1294 2234 
L 1294 2753 
L 1863 2753 
Q 2328 2753 2575 2939 
Q 2822 3125 2822 3475 
Q 2822 3834 2567 4026 
Q 2313 4219 1838 4219 
Q 1578 4219 1281 4162 
Q 984 4106 628 3988 
L 628 4550 
Q 988 4650 1302 4700 
Q 1616 4750 1894 4750 
Q 2613 4750 3031 4423 
Q 3450 4097 3450 3541 
Q 3450 3153 3228 2886 
Q 3006 2619 2597 2516 
z
" transform="scale(0.015625)"/>
       </defs>
       <use xlink:href="#DejaVuSans-33"/>
       <use xlink:href="#DejaVuSans-32" transform="translate(63.623047 0)"/>
       <use xlink:href="#DejaVuSans-4b" transform="translate(127.246094 0)"/>
      </g>
     </g>
    </g>
    <g id="xtick_4">
     <g id="line2d_7">
      <path d="M 592.467926 481.4775 
L 592.467926 37.9575 
" clip-path="url(#p43f786fe57)" style="fill: none; stroke: #555555; stroke-opacity: 0.2; stroke-width: 0.8; stroke-linecap: square"/>
     </g>
     <g id="line2d_8">
      <g>
       <use xlink:href="#m89de6363a3" x="592.467926" y="481.4775" style="fill: #cccccc; stroke: #cccccc; stroke-width: 0.8"/>
      </g>
     </g>
     <g id="text_4">
      <!-- 128K -->
      <g style="fill: #cccccc" transform="translate(579.64527 496.075938) scale(0.1 -0.1)">
       <defs>
        <path id="DejaVuSans-31" d="M 794 531 
L 1825 531 
L 1825 4091 
L 703 3866 
L 703 4441 
L 1819 4666 
L 2450 4666 
L 2450 531 
L 3481 531 
L 3481 0 
L 794 0 
L 794 531 
z
" transform="scale(0.015625)"/>
       </defs>
       <use xlink:href="#DejaVuSans-31"/>
       <use xlink:href="#DejaVuSans-32" transform="translate(63.623047 0)"/>
       <use xlink:href="#DejaVuSans-38" transform="translate(127.246094 0)"/>
       <use xlink:href="#DejaVuSans-4b" transform="translate(190.869141 0)"/>
      </g>
     </g>
    </g>
    <g id="xtick_5">
     <g id="line2d_9">
      <path d="M 734.50429 481.4775 
L 734.50429 37.9575 
" clip-path="url(#p43f786fe57)" style="fill: none; stroke: #555555; stroke-opacity: 0.2; stroke-width: 0.8; stroke-linecap: square"/>
     </g>
     <g id="line2d_10">
      <g>
       <use xlink:href="#m89de6363a3" x="734.50429" y="481.4775" style="fill: #cccccc; stroke: #cccccc; stroke-width: 0.8"/>
      </g>
     </g>
     <g id="text_5">
      <!-- 512K -->
      <g style="fill: #cccccc" transform="translate(721.681634 496.075938) scale(0.1 -0.1)">
       <defs>
        <path id="DejaVuSans-35" d="M 691 4666 
L 3169 4666 
L 3169 4134 
L 1269 4134 
L 1269 2991 
Q 1406 3038 1543 3061 
Q 1681 3084 1819 3084 
Q 2600 3084 3056 2656 
Q 3513 2228 3513 1497 
Q 3513 744 3044 326 
Q 2575 -91 1722 -91 
Q 1428 -91 1123 -41 
Q 819 9 494 109 
L 494 744 
Q 775 591 1075 516 
Q 1375 441 1709 441 
Q 2250 441 2565 725 
Q 2881 1009 2881 1497 
Q 2881 1984 2565 2268 
Q 2250 2553 1709 2553 
Q 1456 2553 1204 2497 
Q 953 2441 691 2322 
L 691 4666 
z
" transform="scale(0.015625)"/>
       </defs>
       <use xlink:href="#DejaVuSans-35"/>
       <use xlink:href="#DejaVuSans-31" transform="translate(63.623047 0)"/>
       <use xlink:href="#DejaVuSans-32" transform="translate(127.246094 0)"/>
       <use xlink:href="#DejaVuSans-4b" transform="translate(190.869141 0)"/>
      </g>
     </g>
    </g>
    <g id="text_6">
     <!-- Context Length (tokens) -->
     <g style="fill: #e0e0e0" transform="translate(371.783594 512.033594) scale(0.13 -0.13)">
      <defs>
       <path id="DejaVuSans-43" d="M 4122 4306 
L 4122 3641 
Q 3803 3938 3442 4084 
Q 3081 4231 2675 4231 
Q 1875 4231 1450 3742 
Q 1025 3253 1025 2328 
Q 1025 1406 1450 917 
Q 1875 428 2675 428 
Q 3081 428 3442 575 
Q 3803 722 4122 1019 
L 4122 359 
Q 3791 134 3420 21 
Q 3050 -91 2638 -91 
Q 1578 -91 968 557 
Q 359 1206 359 2328 
Q 359 3453 968 4101 
Q 1578 4750 2638 4750 
Q 3056 4750 3426 4639 
Q 3797 4528 4122 4306 
z
" transform="scale(0.015625)"/>
       <path id="DejaVuSans-6f" d="M 1959 3097 
Q 1497 3097 1228 2736 
Q 959 2375 959 1747 
Q 959 1119 1226 758 
Q 1494 397 1959 397 
Q 2419 397 2687 759 
Q 2956 1122 2956 1747 
Q 2956 2369 2687 2733 
Q 2419 3097 1959 3097 
z
M 1959 3584 
Q 2709 3584 3137 3096 
Q 3566 2609 3566 1747 
Q 3566 888 3137 398 
Q 2709 -91 1959 -91 
Q 1206 -91 779 398 
Q 353 888 353 1747 
Q 353 2609 779 3096 
Q 1206 3584 1959 3584 
z
" transform="scale(0.015625)"/>
       <path id="DejaVuSans-6e" d="M 3513 2113 
L 3513 0 
L 2938 0 
L 2938 2094 
Q 2938 2591 2744 2837 
Q 2550 3084 2163 3084 
Q 1697 3084 1428 2787 
Q 1159 2491 1159 1978 
L 1159 0 
L 581 0 
L 581 3500 
L 1159 3500 
L 1159 2956 
Q 1366 3272 1645 3428 
Q 1925 3584 2291 3584 
Q 2894 3584 3203 3211 
Q 3513 2838 3513 2113 
z
" transform="scale(0.015625)"/>
       <path id="DejaVuSans-74" d="M 1172 4494 
L 1172 3500 
L 2356 3500 
L 2356 3053 
L 1172 3053 
L 1172 1153 
Q 1172 725 1289 603 
Q 1406 481 1766 481 
L 2356 481 
L 2356 0 
L 1766 0 
Q 1100 0 847 248 
Q 594 497 594 1153 
L 594 3053 
L 172 3053 
L 172 3500 
L 594 3500 
L 594 4494 
L 1172 4494 
z
" transform="scale(0.015625)"/>
       <path id="DejaVuSans-65" d="M 3597 1894 
L 3597 1613 
L 953 1613 
Q 991 1019 1311 708 
Q 1631 397 2203 397 
Q 2534 397 2845 478 
Q 3156 559 3463 722 
L 3463 178 
Q 3153 47 2828 -22 
Q 2503 -91 2169 -91 
Q 1331 -91 842 396 
Q 353 884 353 1716 
Q 353 2575 817 3079 
Q 1281 3584 2069 3584 
Q 2775 3584 3186 3129 
Q 3597 2675 3597 1894 
z
M 3022 2063 
Q 3016 2534 2758 2815 
Q 2500 3097 2075 3097 
Q 1594 3097 1305 2825 
Q 1016 2553 972 2059 
L 3022 2063 
z
" transform="scale(0.015625)"/>
       <path id="DejaVuSans-78" d="M 3513 3500 
L 2247 1797 
L 3578 0 
L 2900 0 
L 1881 1375 
L 863 0 
L 184 0 
L 1544 1831 
L 300 3500 
L 978 3500 
L 1906 2253 
L 2834 3500 
L 3513 3500 
z
" transform="scale(0.015625)"/>
       <path id="DejaVuSans-20" transform="scale(0.015625)"/>
       <path id="DejaVuSans-4c" d="M 628 4666 
L 1259 4666 
L 1259 531 
L 3531 531 
L 3531 0 
L 628 0 
L 628 4666 
z
" transform="scale(0.015625)"/>
       <path id="DejaVuSans-67" d="M 2906 1791 
Q 2906 2416 2648 2759 
Q 2391 3103 1925 3103 
Q 1463 3103 1205 2759 
Q 947 2416 947 1791 
Q 947 1169 1205 825 
Q 1463 481 1925 481 
Q 2391 481 2648 825 
Q 2906 1169 2906 1791 
z
M 3481 434 
Q 3481 -459 3084 -895 
Q 2688 -1331 1869 -1331 
Q 1566 -1331 1297 -1286 
Q 1028 -1241 775 -1147 
L 775 -588 
Q 1028 -725 1275 -790 
Q 1522 -856 1778 -856 
Q 2344 -856 2625 -561 
Q 2906 -266 2906 331 
L 2906 616 
Q 2728 306 2450 153 
Q 2172 0 1784 0 
Q 1141 0 747 490 
Q 353 981 353 1791 
Q 353 2603 747 3093 
Q 1141 3584 1784 3584 
Q 2172 3584 2450 3431 
Q 2728 3278 2906 2969 
L 2906 3500 
L 3481 3500 
L 3481 434 
z
" transform="scale(0.015625)"/>
       <path id="DejaVuSans-68" d="M 3513 2113 
L 3513 0 
L 2938 0 
L 2938 2094 
Q 2938 2591 2744 2837 
Q 2550 3084 2163 3084 
Q 1697 3084 1428 2787 
Q 1159 2491 1159 1978 
L 1159 0 
L 581 0 
L 581 4863 
L 1159 4863 
L 1159 2956 
Q 1366 3272 1645 3428 
Q 1925 3584 2291 3584 
Q 2894 3584 3203 3211 
Q 3513 2838 3513 2113 
z
" transform="scale(0.015625)"/>
       <path id="DejaVuSans-28" d="M 1984 4856 
Q 1566 4138 1362 3434 
Q 1159 2731 1159 2009 
Q 1159 1288 1364 580 
Q 1569 -128 1984 -844 
L 1484 -844 
Q 1016 -109 783 600 
Q 550 1309 550 2009 
Q 550 2706 781 3412 
Q 1013 4119 1484 4856 
L 1984 4856 
z
" transform="scale(0.015625)"/>
       <path id="DejaVuSans-6b" d="M 581 4863 
L 1159 4863 
L 1159 1991 
L 2875 3500 
L 3609 3500 
L 1753 1863 
L 3688 0 
L 2938 0 
L 1159 1709 
L 1159 0 
L 581 0 
L 581 4863 
z
" transform="scale(0.015625)"/>
       <path id="DejaVuSans-73" d="M 2834 3397 
L 2834 2853 
Q 2591 2978 2328 3040 
Q 2066 3103 1784 3103 
Q 1356 3103 1142 2972 
Q 928 2841 928 2578 
Q 928 2378 1081 2264 
Q 1234 2150 1697 2047 
L 1894 2003 
Q 2506 1872 2764 1633 
Q 3022 1394 3022 966 
Q 3022 478 2636 193 
Q 2250 -91 1575 -91 
Q 1294 -91 989 -36 
Q 684 19 347 128 
L 347 722 
Q 666 556 975 473 
Q 1284 391 1588 391 
Q 1994 391 2212 530 
Q 2431 669 2431 922 
Q 2431 1156 2273 1281 
Q 2116 1406 1581 1522 
L 1381 1569 
Q 847 1681 609 1914 
Q 372 2147 372 2553 
Q 372 3047 722 3315 
Q 1072 3584 1716 3584 
Q 2034 3584 2315 3537 
Q 2597 3491 2834 3397 
z
" transform="scale(0.015625)"/>
       <path id="DejaVuSans-29" d="M 513 4856 
L 1013 4856 
Q 1481 4119 1714 3412 
Q 1947 2706 1947 2009 
Q 1947 1309 1714 600 
Q 1481 -109 1013 -844 
L 513 -844 
Q 928 -128 1133 580 
Q 1338 1288 1338 2009 
Q 1338 2731 1133 3434 
Q 928 4138 513 4856 
z
" transform="scale(0.015625)"/>
      </defs>
      <use xlink:href="#DejaVuSans-43"/>
      <use xlink:href="#DejaVuSans-6f" transform="translate(69.824219 0)"/>
      <use xlink:href="#DejaVuSans-6e" transform="translate(131.005859 0)"/>
      <use xlink:href="#DejaVuSans-74" transform="translate(194.384766 0)"/>
      <use xlink:href="#DejaVuSans-65" transform="translate(233.59375 0)"/>
      <use xlink:href="#DejaVuSans-78" transform="translate(293.367188 0)"/>
      <use xlink:href="#DejaVuSans-74" transform="translate(352.546875 0)"/>
      <use xlink:href="#DejaVuSans-20" transform="translate(391.755859 0)"/>
      <use xlink:href="#DejaVuSans-4c" transform="translate(423.542969 0)"/>
      <use xlink:href="#DejaVuSans-65" transform="translate(477.505859 0)"/>
      <use xlink:href="#DejaVuSans-6e" transform="translate(539.029297 0)"/>
      <use xlink:href="#DejaVuSans-67" transform="translate(602.408203 0)"/>
      <use xlink:href="#DejaVuSans-74" transform="translate(665.884766 0)"/>
      <use xlink:href="#DejaVuSans-68" transform="translate(705.09375 0)"/>
      <use xlink:href="#DejaVuSans-20" transform="translate(768.472656 0)"/>
      <use xlink:href="#DejaVuSans-28" transform="translate(800.259766 0)"/>
      <use xlink:href="#DejaVuSans-74" transform="translate(839.273438 0)"/>
      <use xlink:href="#DejaVuSans-6f" transform="translate(878.482422 0)"/>
      <use xlink:href="#DejaVuSans-6b" transform="translate(939.664062 0)"/>
      <use xlink:href="#DejaVuSans-65" transform="translate(993.949219 0)"/>
      <use xlink:href="#DejaVuSans-6e" transform="translate(1055.472656 0)"/>
      <use xlink:href="#DejaVuSans-73" transform="translate(1118.851562 0)"/>
      <use xlink:href="#DejaVuSans-29" transform="translate(1170.951172 0)"/>
     </g>
    </g>
   </g>
   <g id="matplotlib.axis_2">
    <g id="ytick_1">
     <g id="line2d_11">
      <path d="M 59.831563 438.792391 
L 841.031563 438.792391 
" clip-path="url(#p43f786fe57)" style="fill: none; stroke: #555555; stroke-opacity: 0.2; stroke-width: 0.8; stroke-linecap: square"/>
     </g>
     <g id="line2d_12">
      <defs>
       <path id="m5672da9c5f" d="M 0 0 
L -3.5 0 
" style="stroke: #cccccc; stroke-width: 0.8"/>
      </defs>
      <g>
       <use xlink:href="#m5672da9c5f" x="59.831563" y="438.792391" style="fill: #cccccc; stroke: #cccccc; stroke-width: 0.8"/>
      </g>
     </g>
     <g id="text_7">
      <!-- 1 -->
      <g style="fill: #cccccc" transform="translate(46.469063 442.59161) scale(0.1 -0.1)">
       <use xlink:href="#DejaVuSans-31"/>
      </g>
     </g>
    </g>
    <g id="ytick_2">
     <g id="line2d_13">
      <path d="M 59.831563 328.440093 
L 841.031563 328.440093 
" clip-path="url(#p43f786fe57)" style="fill: none; stroke: #555555; stroke-opacity: 0.2; stroke-width: 0.8; stroke-linecap: square"/>
     </g>
     <g id="line2d_14">
      <g>
       <use xlink:href="#m5672da9c5f" x="59.831563" y="328.440093" style="fill: #cccccc; stroke: #cccccc; stroke-width: 0.8"/>
      </g>
     </g>
     <g id="text_8">
      <!-- 10 -->
      <g style="fill: #cccccc" transform="translate(40.106563 332.239311) scale(0.1 -0.1)">
       <defs>
        <path id="DejaVuSans-30" d="M 2034 4250 
Q 1547 4250 1301 3770 
Q 1056 3291 1056 2328 
Q 1056 1369 1301 889 
Q 1547 409 2034 409 
Q 2525 409 2770 889 
Q 3016 1369 3016 2328 
Q 3016 3291 2770 3770 
Q 2525 4250 2034 4250 
z
M 2034 4750 
Q 2819 4750 3233 4129 
Q 3647 3509 3647 2328 
Q 3647 1150 3233 529 
Q 2819 -91 2034 -91 
Q 1250 -91 836 529 
Q 422 1150 422 2328 
Q 422 3509 836 4129 
Q 1250 4750 2034 4750 
z
" transform="scale(0.015625)"/>
       </defs>
       <use xlink:href="#DejaVuSans-31"/>
       <use xlink:href="#DejaVuSans-30" transform="translate(63.623047 0)"/>
      </g>
     </g>
    </g>
    <g id="ytick_3">
     <g id="line2d_15">
      <path d="M 59.831563 218.087794 
L 841.031563 218.087794 
" clip-path="url(#p43f786fe57)" style="fill: none; stroke: #555555; stroke-opacity: 0.2; stroke-width: 0.8; stroke-linecap: square"/>
     </g>
     <g id="line2d_16">
      <g>
       <use xlink:href="#m5672da9c5f" x="59.831563" y="218.087794" style="fill: #cccccc; stroke: #cccccc; stroke-width: 0.8"/>
      </g>
     </g>
     <g id="text_9">
      <!-- 100 -->
      <g style="fill: #cccccc" transform="translate(33.744063 221.887013) scale(0.1 -0.1)">
       <use xlink:href="#DejaVuSans-31"/>
       <use xlink:href="#DejaVuSans-30" transform="translate(63.623047 0)"/>
       <use xlink:href="#DejaVuSans-30" transform="translate(127.246094 0)"/>
      </g>
     </g>
    </g>
    <g id="ytick_4">
     <g id="line2d_17">
      <path d="M 59.831563 107.735496 
L 841.031563 107.735496 
" clip-path="url(#p43f786fe57)" style="fill: none; stroke: #555555; stroke-opacity: 0.2; stroke-width: 0.8; stroke-linecap: square"/>
     </g>
     <g id="line2d_18">
      <g>
       <use xlink:href="#m5672da9c5f" x="59.831563" y="107.735496" style="fill: #cccccc; stroke: #cccccc; stroke-width: 0.8"/>
      </g>
     </g>
     <g id="text_10">
      <!-- 1000 -->
      <g style="fill: #cccccc" transform="translate(27.381563 111.534715) scale(0.1 -0.1)">
       <use xlink:href="#DejaVuSans-31"/>
       <use xlink:href="#DejaVuSans-30" transform="translate(63.623047 0)"/>
       <use xlink:href="#DejaVuSans-30" transform="translate(127.246094 0)"/>
       <use xlink:href="#DejaVuSans-30" transform="translate(190.869141 0)"/>
      </g>
     </g>
    </g>
    <g id="ytick_5">
     <g id="line2d_19">
      <defs>
       <path id="m1ac5458362" d="M 0 0 
L -2 0 
" style="stroke: #cccccc; stroke-width: 0.6"/>
      </defs>
      <g>
       <use xlink:href="#m1ac5458362" x="59.831563" y="472.011743" style="fill: #cccccc; stroke: #cccccc; stroke-width: 0.6"/>
      </g>
     </g>
    </g>
    <g id="ytick_6">
     <g id="line2d_20">
      <g>
       <use xlink:href="#m1ac5458362" x="59.831563" y="463.27391" style="fill: #cccccc; stroke: #cccccc; stroke-width: 0.6"/>
      </g>
     </g>
    </g>
    <g id="ytick_7">
     <g id="line2d_21">
      <g>
       <use xlink:href="#m1ac5458362" x="59.831563" y="455.886178" style="fill: #cccccc; stroke: #cccccc; stroke-width: 0.6"/>
      </g>
     </g>
    </g>
    <g id="ytick_8">
     <g id="line2d_22">
      <g>
       <use xlink:href="#m1ac5458362" x="59.831563" y="449.486633" style="fill: #cccccc; stroke: #cccccc; stroke-width: 0.6"/>
      </g>
     </g>
    </g>
    <g id="ytick_9">
     <g id="line2d_23">
      <g>
       <use xlink:href="#m1ac5458362" x="59.831563" y="443.841835" style="fill: #cccccc; stroke: #cccccc; stroke-width: 0.6"/>
      </g>
     </g>
    </g>
    <g id="ytick_10">
     <g id="line2d_24">
      <g>
       <use xlink:href="#m1ac5458362" x="59.831563" y="405.573039" style="fill: #cccccc; stroke: #cccccc; stroke-width: 0.6"/>
      </g>
     </g>
    </g>
    <g id="ytick_11">
     <g id="line2d_25">
      <g>
       <use xlink:href="#m1ac5458362" x="59.831563" y="386.140964" style="fill: #cccccc; stroke: #cccccc; stroke-width: 0.6"/>
      </g>
     </g>
    </g>
    <g id="ytick_12">
     <g id="line2d_26">
      <g>
       <use xlink:href="#m1ac5458362" x="59.831563" y="372.353687" style="fill: #cccccc; stroke: #cccccc; stroke-width: 0.6"/>
      </g>
     </g>
    </g>
    <g id="ytick_13">
     <g id="line2d_27">
      <g>
       <use xlink:href="#m1ac5458362" x="59.831563" y="361.659444" style="fill: #cccccc; stroke: #cccccc; stroke-width: 0.6"/>
      </g>
     </g>
    </g>
    <g id="ytick_14">
     <g id="line2d_28">
      <g>
       <use xlink:href="#m1ac5458362" x="59.831563" y="352.921612" style="fill: #cccccc; stroke: #cccccc; stroke-width: 0.6"/>
      </g>
     </g>
    </g>
    <g id="ytick_15">
     <g id="line2d_29">
      <g>
       <use xlink:href="#m1ac5458362" x="59.831563" y="345.53388" style="fill: #cccccc; stroke: #cccccc; stroke-width: 0.6"/>
      </g>
     </g>
    </g>
    <g id="ytick_16">
     <g id="line2d_30">
      <g>
       <use xlink:href="#m1ac5458362" x="59.831563" y="339.134335" style="fill: #cccccc; stroke: #cccccc; stroke-width: 0.6"/>
      </g>
     </g>
    </g>
    <g id="ytick_17">
     <g id="line2d_31">
      <g>
       <use xlink:href="#m1ac5458362" x="59.831563" y="333.489537" style="fill: #cccccc; stroke: #cccccc; stroke-width: 0.6"/>
      </g>
     </g>
    </g>
    <g id="ytick_18">
     <g id="line2d_32">
      <g>
       <use xlink:href="#m1ac5458362" x="59.831563" y="295.220741" style="fill: #cccccc; stroke: #cccccc; stroke-width: 0.6"/>
      </g>
     </g>
    </g>
    <g id="ytick_19">
     <g id="line2d_33">
      <g>
       <use xlink:href="#m1ac5458362" x="59.831563" y="275.788666" style="fill: #cccccc; stroke: #cccccc; stroke-width: 0.6"/>
      </g>
     </g>
    </g>
    <g id="ytick_20">
     <g id="line2d_34">
      <g>
       <use xlink:href="#m1ac5458362" x="59.831563" y="262.001389" style="fill: #cccccc; stroke: #cccccc; stroke-width: 0.6"/>
      </g>
     </g>
    </g>
    <g id="ytick_21">
     <g id="line2d_35">
      <g>
       <use xlink:href="#m1ac5458362" x="59.831563" y="251.307146" style="fill: #cccccc; stroke: #cccccc; stroke-width: 0.6"/>
      </g>
     </g>
    </g>
    <g id="ytick_22">
     <g id="line2d_36">
      <g>
       <use xlink:href="#m1ac5458362" x="59.831563" y="242.569314" style="fill: #cccccc; stroke: #cccccc; stroke-width: 0.6"/>
      </g>
     </g>
    </g>
    <g id="ytick_23">
     <g id="line2d_37">
      <g>
       <use xlink:href="#m1ac5458362" x="59.831563" y="235.181582" style="fill: #cccccc; stroke: #cccccc; stroke-width: 0.6"/>
      </g>
     </g>
    </g>
    <g id="ytick_24">
     <g id="line2d_38">
      <g>
       <use xlink:href="#m1ac5458362" x="59.831563" y="228.782037" style="fill: #cccccc; stroke: #cccccc; stroke-width: 0.6"/>
      </g>
     </g>
    </g>
    <g id="ytick_25">
     <g id="line2d_39">
      <g>
       <use xlink:href="#m1ac5458362" x="59.831563" y="223.137239" style="fill: #cccccc; stroke: #cccccc; stroke-width: 0.6"/>
      </g>
     </g>
    </g>
    <g id="ytick_26">
     <g id="line2d_40">
      <g>
       <use xlink:href="#m1ac5458362" x="59.831563" y="184.868443" style="fill: #cccccc; stroke: #cccccc; stroke-width: 0.6"/>
      </g>
     </g>
    </g>
    <g id="ytick_27">
     <g id="line2d_41">
      <g>
       <use xlink:href="#m1ac5458362" x="59.831563" y="165.436368" style="fill: #cccccc; stroke: #cccccc; stroke-width: 0.6"/>
      </g>
     </g>
    </g>
    <g id="ytick_28">
     <g id="line2d_42">
      <g>
       <use xlink:href="#m1ac5458362" x="59.831563" y="151.649091" style="fill: #cccccc; stroke: #cccccc; stroke-width: 0.6"/>
      </g>
     </g>
    </g>
    <g id="ytick_29">
     <g id="line2d_43">
      <g>
       <use xlink:href="#m1ac5458362" x="59.831563" y="140.954848" style="fill: #cccccc; stroke: #cccccc; stroke-width: 0.6"/>
      </g>
     </g>
    </g>
    <g id="ytick_30">
     <g id="line2d_44">
      <g>
       <use xlink:href="#m1ac5458362" x="59.831563" y="132.217016" style="fill: #cccccc; stroke: #cccccc; stroke-width: 0.6"/>
      </g>
     </g>
    </g>
    <g id="ytick_31">
     <g id="line2d_45">
      <g>
       <use xlink:href="#m1ac5458362" x="59.831563" y="124.829284" style="fill: #cccccc; stroke: #cccccc; stroke-width: 0.6"/>
      </g>
     </g>
    </g>
    <g id="ytick_32">
     <g id="line2d_46">
      <g>
       <use xlink:href="#m1ac5458362" x="59.831563" y="118.429739" style="fill: #cccccc; stroke: #cccccc; stroke-width: 0.6"/>
      </g>
     </g>
    </g>
    <g id="ytick_33">
     <g id="line2d_47">
      <g>
       <use xlink:href="#m1ac5458362" x="59.831563" y="112.784941" style="fill: #cccccc; stroke: #cccccc; stroke-width: 0.6"/>
      </g>
     </g>
    </g>
    <g id="ytick_34">
     <g id="line2d_48">
      <g>
       <use xlink:href="#m1ac5458362" x="59.831563" y="74.516144" style="fill: #cccccc; stroke: #cccccc; stroke-width: 0.6"/>
      </g>
     </g>
    </g>
    <g id="ytick_35">
     <g id="line2d_49">
      <g>
       <use xlink:href="#m1ac5458362" x="59.831563" y="55.084069" style="fill: #cccccc; stroke: #cccccc; stroke-width: 0.6"/>
      </g>
     </g>
    </g>
    <g id="ytick_36">
     <g id="line2d_50">
      <g>
       <use xlink:href="#m1ac5458362" x="59.831563" y="41.296793" style="fill: #cccccc; stroke: #cccccc; stroke-width: 0.6"/>
      </g>
     </g>
    </g>
    <g id="text_11">
     <!-- KV-Cache Memory (GB) -->
     <g style="fill: #e0e0e0" transform="translate(20.677969 335.740078) rotate(-90) scale(0.13 -0.13)">
      <defs>
       <path id="DejaVuSans-56" d="M 1831 0 
L 50 4666 
L 709 4666 
L 2188 738 
L 3669 4666 
L 4325 4666 
L 2547 0 
L 1831 0 
z
" transform="scale(0.015625)"/>
       <path id="DejaVuSans-2d" d="M 313 2009 
L 1997 2009 
L 1997 1497 
L 313 1497 
L 313 2009 
z
" transform="scale(0.015625)"/>
       <path id="DejaVuSans-61" d="M 2194 1759 
Q 1497 1759 1228 1600 
Q 959 1441 959 1056 
Q 959 750 1161 570 
Q 1363 391 1709 391 
Q 2188 391 2477 730 
Q 2766 1069 2766 1631 
L 2766 1759 
L 2194 1759 
z
M 3341 1997 
L 3341 0 
L 2766 0 
L 2766 531 
Q 2569 213 2275 61 
Q 1981 -91 1556 -91 
Q 1019 -91 701 211 
Q 384 513 384 1019 
Q 384 1609 779 1909 
Q 1175 2209 1959 2209 
L 2766 2209 
L 2766 2266 
Q 2766 2663 2505 2880 
Q 2244 3097 1772 3097 
Q 1472 3097 1187 3025 
Q 903 2953 641 2809 
L 641 3341 
Q 956 3463 1253 3523 
Q 1550 3584 1831 3584 
Q 2591 3584 2966 3190 
Q 3341 2797 3341 1997 
z
" transform="scale(0.015625)"/>
       <path id="DejaVuSans-63" d="M 3122 3366 
L 3122 2828 
Q 2878 2963 2633 3030 
Q 2388 3097 2138 3097 
Q 1578 3097 1268 2742 
Q 959 2388 959 1747 
Q 959 1106 1268 751 
Q 1578 397 2138 397 
Q 2388 397 2633 464 
Q 2878 531 3122 666 
L 3122 134 
Q 2881 22 2623 -34 
Q 2366 -91 2075 -91 
Q 1284 -91 818 406 
Q 353 903 353 1747 
Q 353 2603 823 3093 
Q 1294 3584 2113 3584 
Q 2378 3584 2631 3529 
Q 2884 3475 3122 3366 
z
" transform="scale(0.015625)"/>
       <path id="DejaVuSans-4d" d="M 628 4666 
L 1569 4666 
L 2759 1491 
L 3956 4666 
L 4897 4666 
L 4897 0 
L 4281 0 
L 4281 4097 
L 3078 897 
L 2444 897 
L 1241 4097 
L 1241 0 
L 628 0 
L 628 4666 
z
" transform="scale(0.015625)"/>
       <path id="DejaVuSans-6d" d="M 3328 2828 
Q 3544 3216 3844 3400 
Q 4144 3584 4550 3584 
Q 5097 3584 5394 3201 
Q 5691 2819 5691 2113 
L 5691 0 
L 5113 0 
L 5113 2094 
Q 5113 2597 4934 2840 
Q 4756 3084 4391 3084 
Q 3944 3084 3684 2787 
Q 3425 2491 3425 1978 
L 3425 0 
L 2847 0 
L 2847 2094 
Q 2847 2600 2669 2842 
Q 2491 3084 2119 3084 
Q 1678 3084 1418 2786 
Q 1159 2488 1159 1978 
L 1159 0 
L 581 0 
L 581 3500 
L 1159 3500 
L 1159 2956 
Q 1356 3278 1631 3431 
Q 1906 3584 2284 3584 
Q 2666 3584 2933 3390 
Q 3200 3197 3328 2828 
z
" transform="scale(0.015625)"/>
       <path id="DejaVuSans-72" d="M 2631 2963 
Q 2534 3019 2420 3045 
Q 2306 3072 2169 3072 
Q 1681 3072 1420 2755 
Q 1159 2438 1159 1844 
L 1159 0 
L 581 0 
L 581 3500 
L 1159 3500 
L 1159 2956 
Q 1341 3275 1631 3429 
Q 1922 3584 2338 3584 
Q 2397 3584 2469 3576 
Q 2541 3569 2628 3553 
L 2631 2963 
z
" transform="scale(0.015625)"/>
       <path id="DejaVuSans-79" d="M 2059 -325 
Q 1816 -950 1584 -1140 
Q 1353 -1331 966 -1331 
L 506 -1331 
L 506 -850 
L 844 -850 
Q 1081 -850 1212 -737 
Q 1344 -625 1503 -206 
L 1606 56 
L 191 3500 
L 800 3500 
L 1894 763 
L 2988 3500 
L 3597 3500 
L 2059 -325 
z
" transform="scale(0.015625)"/>
       <path id="DejaVuSans-47" d="M 3809 666 
L 3809 1919 
L 2778 1919 
L 2778 2438 
L 4434 2438 
L 4434 434 
Q 4069 175 3628 42 
Q 3188 -91 2688 -91 
Q 1594 -91 976 548 
Q 359 1188 359 2328 
Q 359 3472 976 4111 
Q 1594 4750 2688 4750 
Q 3144 4750 3555 4637 
Q 3966 4525 4313 4306 
L 4313 3634 
Q 3963 3931 3569 4081 
Q 3175 4231 2741 4231 
Q 1884 4231 1454 3753 
Q 1025 3275 1025 2328 
Q 1025 1384 1454 906 
Q 1884 428 2741 428 
Q 3075 428 3337 486 
Q 3600 544 3809 666 
z
" transform="scale(0.015625)"/>
       <path id="DejaVuSans-42" d="M 1259 2228 
L 1259 519 
L 2272 519 
Q 2781 519 3026 730 
Q 3272 941 3272 1375 
Q 3272 1813 3026 2020 
Q 2781 2228 2272 2228 
L 1259 2228 
z
M 1259 4147 
L 1259 2741 
L 2194 2741 
Q 2656 2741 2882 2914 
Q 3109 3088 3109 3444 
Q 3109 3797 2882 3972 
Q 2656 4147 2194 4147 
L 1259 4147 
z
M 628 4666 
L 2241 4666 
Q 2963 4666 3353 4366 
Q 3744 4066 3744 3513 
Q 3744 3084 3544 2831 
Q 3344 2578 2956 2516 
Q 3422 2416 3680 2098 
Q 3938 1781 3938 1306 
Q 3938 681 3513 340 
Q 3088 0 2303 0 
L 628 0 
L 628 4666 
z
" transform="scale(0.015625)"/>
      </defs>
      <use xlink:href="#DejaVuSans-4b"/>
      <use xlink:href="#DejaVuSans-56" transform="translate(65.576172 0)"/>
      <use xlink:href="#DejaVuSans-2d" transform="translate(128.109375 0)"/>
      <use xlink:href="#DejaVuSans-43" transform="translate(164.193359 0)"/>
      <use xlink:href="#DejaVuSans-61" transform="translate(234.017578 0)"/>
      <use xlink:href="#DejaVuSans-63" transform="translate(295.296875 0)"/>
      <use xlink:href="#DejaVuSans-68" transform="translate(350.277344 0)"/>
      <use xlink:href="#DejaVuSans-65" transform="translate(413.65625 0)"/>
      <use xlink:href="#DejaVuSans-20" transform="translate(475.179688 0)"/>
      <use xlink:href="#DejaVuSans-4d" transform="translate(506.966797 0)"/>
      <use xlink:href="#DejaVuSans-65" transform="translate(593.246094 0)"/>
      <use xlink:href="#DejaVuSans-6d" transform="translate(654.769531 0)"/>
      <use xlink:href="#DejaVuSans-6f" transform="translate(752.181641 0)"/>
      <use xlink:href="#DejaVuSans-72" transform="translate(813.363281 0)"/>
      <use xlink:href="#DejaVuSans-79" transform="translate(854.476562 0)"/>
      <use xlink:href="#DejaVuSans-20" transform="translate(913.65625 0)"/>
      <use xlink:href="#DejaVuSans-28" transform="translate(945.443359 0)"/>
      <use xlink:href="#DejaVuSans-47" transform="translate(984.457031 0)"/>
      <use xlink:href="#DejaVuSans-42" transform="translate(1061.947266 0)"/>
      <use xlink:href="#DejaVuSans-29" transform="translate(1130.550781 0)"/>
     </g>
    </g>
   </g>
   <g id="patch_3">
    <path d="M 59.831563 481.4775 
L 59.831563 37.9575 
" style="fill: none; stroke: #444444; stroke-width: 0.8; stroke-linejoin: miter; stroke-linecap: square"/>
   </g>
   <g id="patch_4">
    <path d="M 841.031563 481.4775 
L 841.031563 37.9575 
" style="fill: none; stroke: #444444; stroke-width: 0.8; stroke-linejoin: miter; stroke-linecap: square"/>
   </g>
   <g id="patch_5">
    <path d="M 59.831563 481.4775 
L 841.031563 481.4775 
" style="fill: none; stroke: #444444; stroke-width: 0.8; stroke-linejoin: miter; stroke-linecap: square"/>
   </g>
   <g id="patch_6">
    <path d="M 59.831563 37.9575 
L 841.031563 37.9575 
" style="fill: none; stroke: #444444; stroke-width: 0.8; stroke-linejoin: miter; stroke-linecap: square"/>
   </g>
   <g id="text_12">
    <!-- H100 HBM3 (80 GB) -->
    <g style="fill: #ffd93d" transform="translate(166.358835 225.310978) scale(0.11 -0.11)">
     <defs>
      <path id="DejaVuSans-Bold-48" d="M 588 4666 
L 1791 4666 
L 1791 2888 
L 3566 2888 
L 3566 4666 
L 4769 4666 
L 4769 0 
L 3566 0 
L 3566 1978 
L 1791 1978 
L 1791 0 
L 588 0 
L 588 4666 
z
" transform="scale(0.015625)"/>
      <path id="DejaVuSans-Bold-31" d="M 750 831 
L 1813 831 
L 1813 3847 
L 722 3622 
L 722 4441 
L 1806 4666 
L 2950 4666 
L 2950 831 
L 4013 831 
L 4013 0 
L 750 0 
L 750 831 
z
" transform="scale(0.015625)"/>
      <path id="DejaVuSans-Bold-30" d="M 2944 2338 
Q 2944 3213 2780 3570 
Q 2616 3928 2228 3928 
Q 1841 3928 1675 3570 
Q 1509 3213 1509 2338 
Q 1509 1453 1675 1090 
Q 1841 728 2228 728 
Q 2613 728 2778 1090 
Q 2944 1453 2944 2338 
z
M 4147 2328 
Q 4147 1169 3647 539 
Q 3147 -91 2228 -91 
Q 1306 -91 806 539 
Q 306 1169 306 2328 
Q 306 3491 806 4120 
Q 1306 4750 2228 4750 
Q 3147 4750 3647 4120 
Q 4147 3491 4147 2328 
z
" transform="scale(0.015625)"/>
      <path id="DejaVuSans-Bold-20" transform="scale(0.015625)"/>
      <path id="DejaVuSans-Bold-42" d="M 2456 2859 
Q 2741 2859 2887 2984 
Q 3034 3109 3034 3353 
Q 3034 3594 2887 3720 
Q 2741 3847 2456 3847 
L 1791 3847 
L 1791 2859 
L 2456 2859 
z
M 2497 819 
Q 2859 819 3042 972 
Q 3225 1125 3225 1434 
Q 3225 1738 3044 1889 
Q 2863 2041 2497 2041 
L 1791 2041 
L 1791 819 
L 2497 819 
z
M 3616 2497 
Q 4003 2384 4215 2081 
Q 4428 1778 4428 1338 
Q 4428 663 3972 331 
Q 3516 0 2584 0 
L 588 0 
L 588 4666 
L 2394 4666 
Q 3366 4666 3802 4372 
Q 4238 4078 4238 3431 
Q 4238 3091 4078 2852 
Q 3919 2613 3616 2497 
z
" transform="scale(0.015625)"/>
      <path id="DejaVuSans-Bold-4d" d="M 588 4666 
L 2119 4666 
L 3181 2169 
L 4250 4666 
L 5778 4666 
L 5778 0 
L 4641 0 
L 4641 3413 
L 3566 897 
L 2803 897 
L 1728 3413 
L 1728 0 
L 588 0 
L 588 4666 
z
" transform="scale(0.015625)"/>
      <path id="DejaVuSans-Bold-33" d="M 2981 2516 
Q 3453 2394 3698 2092 
Q 3944 1791 3944 1325 
Q 3944 631 3412 270 
Q 2881 -91 1863 -91 
Q 1503 -91 1142 -33 
Q 781 25 428 141 
L 428 1069 
Q 766 900 1098 814 
Q 1431 728 1753 728 
Q 2231 728 2486 893 
Q 2741 1059 2741 1369 
Q 2741 1688 2480 1852 
Q 2219 2016 1709 2016 
L 1228 2016 
L 1228 2791 
L 1734 2791 
Q 2188 2791 2409 2933 
Q 2631 3075 2631 3366 
Q 2631 3634 2415 3781 
Q 2200 3928 1806 3928 
Q 1516 3928 1219 3862 
Q 922 3797 628 3669 
L 628 4550 
Q 984 4650 1334 4700 
Q 1684 4750 2022 4750 
Q 2931 4750 3382 4451 
Q 3834 4153 3834 3553 
Q 3834 3144 3618 2883 
Q 3403 2622 2981 2516 
z
" transform="scale(0.015625)"/>
      <path id="DejaVuSans-Bold-28" d="M 2413 -844 
L 1484 -844 
Q 1006 -72 778 623 
Q 550 1319 550 2003 
Q 550 2688 779 3389 
Q 1009 4091 1484 4856 
L 2413 4856 
Q 2013 4116 1813 3408 
Q 1613 2700 1613 2009 
Q 1613 1319 1811 609 
Q 2009 -100 2413 -844 
z
" transform="scale(0.015625)"/>
      <path id="DejaVuSans-Bold-38" d="M 2228 2088 
Q 1891 2088 1709 1903 
Q 1528 1719 1528 1375 
Q 1528 1031 1709 848 
Q 1891 666 2228 666 
Q 2563 666 2741 848 
Q 2919 1031 2919 1375 
Q 2919 1722 2741 1905 
Q 2563 2088 2228 2088 
z
M 1350 2484 
Q 925 2613 709 2878 
Q 494 3144 494 3541 
Q 494 4131 934 4440 
Q 1375 4750 2228 4750 
Q 3075 4750 3515 4442 
Q 3956 4134 3956 3541 
Q 3956 3144 3739 2878 
Q 3522 2613 3097 2484 
Q 3572 2353 3814 2058 
Q 4056 1763 4056 1313 
Q 4056 619 3595 264 
Q 3134 -91 2228 -91 
Q 1319 -91 855 264 
Q 391 619 391 1313 
Q 391 1763 633 2058 
Q 875 2353 1350 2484 
z
M 1631 3419 
Q 1631 3141 1786 2991 
Q 1941 2841 2228 2841 
Q 2509 2841 2662 2991 
Q 2816 3141 2816 3419 
Q 2816 3697 2662 3845 
Q 2509 3994 2228 3994 
Q 1941 3994 1786 3844 
Q 1631 3694 1631 3419 
z
" transform="scale(0.015625)"/>
      <path id="DejaVuSans-Bold-47" d="M 4781 347 
Q 4331 128 3847 18 
Q 3363 -91 2847 -91 
Q 1681 -91 1000 561 
Q 319 1213 319 2328 
Q 319 3456 1012 4103 
Q 1706 4750 2913 4750 
Q 3378 4750 3804 4662 
Q 4231 4575 4609 4403 
L 4609 3438 
Q 4219 3659 3833 3768 
Q 3447 3878 3059 3878 
Q 2341 3878 1952 3476 
Q 1563 3075 1563 2328 
Q 1563 1588 1938 1184 
Q 2313 781 3003 781 
Q 3191 781 3352 804 
Q 3513 828 3641 878 
L 3641 1784 
L 2906 1784 
L 2906 2591 
L 4781 2591 
L 4781 347 
z
" transform="scale(0.015625)"/>
      <path id="DejaVuSans-Bold-29" d="M 513 -844 
Q 913 -100 1113 609 
Q 1313 1319 1313 2009 
Q 1313 2700 1113 3408 
Q 913 4116 513 4856 
L 1441 4856 
Q 1916 4091 2145 3389 
Q 2375 2688 2375 2003 
Q 2375 1319 2147 623 
Q 1919 -72 1441 -844 
L 513 -844 
z
" transform="scale(0.015625)"/>
     </defs>
     <use xlink:href="#DejaVuSans-Bold-48"/>
     <use xlink:href="#DejaVuSans-Bold-31" transform="translate(83.691406 0)"/>
     <use xlink:href="#DejaVuSans-Bold-30" transform="translate(153.271484 0)"/>
     <use xlink:href="#DejaVuSans-Bold-30" transform="translate(222.851562 0)"/>
     <use xlink:href="#DejaVuSans-Bold-20" transform="translate(292.431641 0)"/>
     <use xlink:href="#DejaVuSans-Bold-48" transform="translate(327.246094 0)"/>
     <use xlink:href="#DejaVuSans-Bold-42" transform="translate(410.9375 0)"/>
     <use xlink:href="#DejaVuSans-Bold-4d" transform="translate(487.158203 0)"/>
     <use xlink:href="#DejaVuSans-Bold-33" transform="translate(586.669922 0)"/>
     <use xlink:href="#DejaVuSans-Bold-20" transform="translate(656.25 0)"/>
     <use xlink:href="#DejaVuSans-Bold-28" transform="translate(691.064453 0)"/>
     <use xlink:href="#DejaVuSans-Bold-38" transform="translate(736.767578 0)"/>
     <use xlink:href="#DejaVuSans-Bold-30" transform="translate(806.347656 0)"/>
     <use xlink:href="#DejaVuSans-Bold-20" transform="translate(875.927734 0)"/>
     <use xlink:href="#DejaVuSans-Bold-47" transform="translate(910.742188 0)"/>
     <use xlink:href="#DejaVuSans-Bold-42" transform="translate(992.822266 0)"/>
     <use xlink:href="#DejaVuSans-Bold-29" transform="translate(1069.042969 0)"/>
    </g>
   </g>
   <g id="text_13">
    <!-- OOM ZONE -->
    <g style="fill: #ff6b6b; opacity: 0.4" transform="translate(620.513764 220.546046) scale(0.14 -0.14)">
     <defs>
      <path id="DejaVuSans-Bold-4f" d="M 2719 3878 
Q 2169 3878 1866 3472 
Q 1563 3066 1563 2328 
Q 1563 1594 1866 1187 
Q 2169 781 2719 781 
Q 3272 781 3575 1187 
Q 3878 1594 3878 2328 
Q 3878 3066 3575 3472 
Q 3272 3878 2719 3878 
z
M 2719 4750 
Q 3844 4750 4481 4106 
Q 5119 3463 5119 2328 
Q 5119 1197 4481 553 
Q 3844 -91 2719 -91 
Q 1597 -91 958 553 
Q 319 1197 319 2328 
Q 319 3463 958 4106 
Q 1597 4750 2719 4750 
z
" transform="scale(0.015625)"/>
      <path id="DejaVuSans-Bold-5a" d="M 359 4666 
L 4281 4666 
L 4281 3938 
L 1778 909 
L 4353 909 
L 4353 0 
L 288 0 
L 288 728 
L 2791 3756 
L 359 3756 
L 359 4666 
z
" transform="scale(0.015625)"/>
      <path id="DejaVuSans-Bold-4e" d="M 588 4666 
L 1931 4666 
L 3628 1466 
L 3628 4666 
L 4769 4666 
L 4769 0 
L 3425 0 
L 1728 3200 
L 1728 0 
L 588 0 
L 588 4666 
z
" transform="scale(0.015625)"/>
      <path id="DejaVuSans-Bold-45" d="M 588 4666 
L 3834 4666 
L 3834 3756 
L 1791 3756 
L 1791 2888 
L 3713 2888 
L 3713 1978 
L 1791 1978 
L 1791 909 
L 3903 909 
L 3903 0 
L 588 0 
L 588 4666 
z
" transform="scale(0.015625)"/>
     </defs>
     <use xlink:href="#DejaVuSans-Bold-4f"/>
     <use xlink:href="#DejaVuSans-Bold-4f" transform="translate(85.009766 0)"/>
     <use xlink:href="#DejaVuSans-Bold-4d" transform="translate(170.019531 0)"/>
     <use xlink:href="#DejaVuSans-Bold-20" transform="translate(269.53125 0)"/>
     <use xlink:href="#DejaVuSans-Bold-5a" transform="translate(304.345703 0)"/>
     <use xlink:href="#DejaVuSans-Bold-4f" transform="translate(376.855469 0)"/>
     <use xlink:href="#DejaVuSans-Bold-4e" transform="translate(461.865234 0)"/>
     <use xlink:href="#DejaVuSans-Bold-45" transform="translate(545.556641 0)"/>
    </g>
   </g>
   <g id="patch_7">
    <path d="M 487.999819 234.755462 
Q 470.203967 231.925887 454.06436 229.359659 
" style="fill: none; stroke: #ff6b6b; stroke-width: 1.5; stroke-linecap: round"/>
    <path d="M 457.700678 231.962964 
L 454.06436 229.359659 
L 458.328795 228.012588 
" style="fill: none; stroke: #ff6b6b; stroke-width: 1.5; stroke-linecap: round"/>
   </g>
   <g id="text_14">
    <!-- 32K tokens -->
    <g style="fill: #ff6b6b" transform="translate(491.974536 242.569314) scale(0.1 -0.1)">
     <use xlink:href="#DejaVuSans-33"/>
     <use xlink:href="#DejaVuSans-32" transform="translate(63.623047 0)"/>
     <use xlink:href="#DejaVuSans-4b" transform="translate(127.246094 0)"/>
     <use xlink:href="#DejaVuSans-20" transform="translate(192.822266 0)"/>
     <use xlink:href="#DejaVuSans-74" transform="translate(224.609375 0)"/>
     <use xlink:href="#DejaVuSans-6f" transform="translate(263.818359 0)"/>
     <use xlink:href="#DejaVuSans-6b" transform="translate(325 0)"/>
     <use xlink:href="#DejaVuSans-65" transform="translate(379.285156 0)"/>
     <use xlink:href="#DejaVuSans-6e" transform="translate(440.808594 0)"/>
     <use xlink:href="#DejaVuSans-73" transform="translate(504.1875 0)"/>
    </g>
   </g>
   <g id="patch_8">
    <path d="M 559.018001 234.755462 
Q 541.222149 231.925887 525.082542 229.359659 
" style="fill: none; stroke: #4ecdc4; stroke-width: 1.5; stroke-linecap: round"/>
    <path d="M 528.718859 231.962964 
L 525.082542 229.359659 
L 529.346977 228.012588 
" style="fill: none; stroke: #4ecdc4; stroke-width: 1.5; stroke-linecap: round"/>
   </g>
   <g id="text_15">
    <!-- 64K tokens -->
    <g style="fill: #4ecdc4" transform="translate(562.992718 242.569314) scale(0.1 -0.1)">
     <defs>
      <path id="DejaVuSans-36" d="M 2113 2584 
Q 1688 2584 1439 2293 
Q 1191 2003 1191 1497 
Q 1191 994 1439 701 
Q 1688 409 2113 409 
Q 2538 409 2786 701 
Q 3034 994 3034 1497 
Q 3034 2003 2786 2293 
Q 2538 2584 2113 2584 
z
M 3366 4563 
L 3366 3988 
Q 3128 4100 2886 4159 
Q 2644 4219 2406 4219 
Q 1781 4219 1451 3797 
Q 1122 3375 1075 2522 
Q 1259 2794 1537 2939 
Q 1816 3084 2150 3084 
Q 2853 3084 3261 2657 
Q 3669 2231 3669 1497 
Q 3669 778 3244 343 
Q 2819 -91 2113 -91 
Q 1303 -91 875 529 
Q 447 1150 447 2328 
Q 447 3434 972 4092 
Q 1497 4750 2381 4750 
Q 2619 4750 2861 4703 
Q 3103 4656 3366 4563 
z
" transform="scale(0.015625)"/>
      <path id="DejaVuSans-34" d="M 2419 4116 
L 825 1625 
L 2419 1625 
L 2419 4116 
z
M 2253 4666 
L 3047 4666 
L 3047 1625 
L 3713 1625 
L 3713 1100 
L 3047 1100 
L 3047 0 
L 2419 0 
L 2419 1100 
L 313 1100 
L 313 1709 
L 2253 4666 
z
" transform="scale(0.015625)"/>
     </defs>
     <use xlink:href="#DejaVuSans-36"/>
     <use xlink:href="#DejaVuSans-34" transform="translate(63.623047 0)"/>
     <use xlink:href="#DejaVuSans-4b" transform="translate(127.246094 0)"/>
     <use xlink:href="#DejaVuSans-20" transform="translate(192.822266 0)"/>
     <use xlink:href="#DejaVuSans-74" transform="translate(224.609375 0)"/>
     <use xlink:href="#DejaVuSans-6f" transform="translate(263.818359 0)"/>
     <use xlink:href="#DejaVuSans-6b" transform="translate(325 0)"/>
     <use xlink:href="#DejaVuSans-65" transform="translate(379.285156 0)"/>
     <use xlink:href="#DejaVuSans-6e" transform="translate(440.808594 0)"/>
     <use xlink:href="#DejaVuSans-73" transform="translate(504.1875 0)"/>
    </g>
   </g>
   <g id="patch_9">
    <path d="M 630.034754 234.493273 
Q 612.239579 231.787896 596.102404 229.334582 
" style="fill: none; stroke: #96ceb4; stroke-width: 1.5; stroke-linecap: round"/>
    <path d="M 599.756361 231.913069 
L 596.102404 229.334582 
L 600.357568 227.958508 
" style="fill: none; stroke: #96ceb4; stroke-width: 1.5; stroke-linecap: round"/>
   </g>
   <g id="text_16">
    <!-- 128K tokens -->
    <g style="fill: #96ceb4" transform="translate(634.010899 242.569314) scale(0.1 -0.1)">
     <use xlink:href="#DejaVuSans-31"/>
     <use xlink:href="#DejaVuSans-32" transform="translate(63.623047 0)"/>
     <use xlink:href="#DejaVuSans-38" transform="translate(127.246094 0)"/>
     <use xlink:href="#DejaVuSans-4b" transform="translate(190.869141 0)"/>
     <use xlink:href="#DejaVuSans-20" transform="translate(256.445312 0)"/>
     <use xlink:href="#DejaVuSans-74" transform="translate(288.232422 0)"/>
     <use xlink:href="#DejaVuSans-6f" transform="translate(327.441406 0)"/>
     <use xlink:href="#DejaVuSans-6b" transform="translate(388.623047 0)"/>
     <use xlink:href="#DejaVuSans-65" transform="translate(442.908203 0)"/>
     <use xlink:href="#DejaVuSans-6e" transform="translate(504.431641 0)"/>
     <use xlink:href="#DejaVuSans-73" transform="translate(567.810547 0)"/>
    </g>
   </g>
   <g id="text_17">
    <!-- OrthoCache GPU: KV-Cache Memory Projection (Llama 3 70B) -->
    <g style="fill: #e0e0e0" transform="translate(174.216563 22.9575) scale(0.16 -0.16)">
     <defs>
      <path id="DejaVuSans-Bold-72" d="M 3138 2547 
Q 2991 2616 2845 2648 
Q 2700 2681 2553 2681 
Q 2122 2681 1889 2404 
Q 1656 2128 1656 1613 
L 1656 0 
L 538 0 
L 538 3500 
L 1656 3500 
L 1656 2925 
Q 1872 3269 2151 3426 
Q 2431 3584 2822 3584 
Q 2878 3584 2943 3579 
Q 3009 3575 3134 3559 
L 3138 2547 
z
" transform="scale(0.015625)"/>
      <path id="DejaVuSans-Bold-74" d="M 1759 4494 
L 1759 3500 
L 2913 3500 
L 2913 2700 
L 1759 2700 
L 1759 1216 
Q 1759 972 1856 886 
Q 1953 800 2241 800 
L 2816 800 
L 2816 0 
L 1856 0 
Q 1194 0 917 276 
Q 641 553 641 1216 
L 641 2700 
L 84 2700 
L 84 3500 
L 641 3500 
L 641 4494 
L 1759 4494 
z
" transform="scale(0.015625)"/>
      <path id="DejaVuSans-Bold-68" d="M 4056 2131 
L 4056 0 
L 2931 0 
L 2931 347 
L 2931 1625 
Q 2931 2084 2911 2256 
Q 2891 2428 2841 2509 
Q 2775 2619 2662 2680 
Q 2550 2741 2406 2741 
Q 2056 2741 1856 2470 
Q 1656 2200 1656 1722 
L 1656 0 
L 538 0 
L 538 4863 
L 1656 4863 
L 1656 2988 
Q 1909 3294 2193 3439 
Q 2478 3584 2822 3584 
Q 3428 3584 3742 3212 
Q 4056 2841 4056 2131 
z
" transform="scale(0.015625)"/>
      <path id="DejaVuSans-Bold-6f" d="M 2203 2784 
Q 1831 2784 1636 2517 
Q 1441 2250 1441 1747 
Q 1441 1244 1636 976 
Q 1831 709 2203 709 
Q 2569 709 2762 976 
Q 2956 1244 2956 1747 
Q 2956 2250 2762 2517 
Q 2569 2784 2203 2784 
z
M 2203 3584 
Q 3106 3584 3614 3096 
Q 4122 2609 4122 1747 
Q 4122 884 3614 396 
Q 3106 -91 2203 -91 
Q 1297 -91 786 396 
Q 275 884 275 1747 
Q 275 2609 786 3096 
Q 1297 3584 2203 3584 
z
" transform="scale(0.015625)"/>
      <path id="DejaVuSans-Bold-43" d="M 4288 256 
Q 3956 84 3597 -3 
Q 3238 -91 2847 -91 
Q 1681 -91 1000 561 
Q 319 1213 319 2328 
Q 319 3447 1000 4098 
Q 1681 4750 2847 4750 
Q 3238 4750 3597 4662 
Q 3956 4575 4288 4403 
L 4288 3438 
Q 3953 3666 3628 3772 
Q 3303 3878 2944 3878 
Q 2300 3878 1931 3465 
Q 1563 3053 1563 2328 
Q 1563 1606 1931 1193 
Q 2300 781 2944 781 
Q 3303 781 3628 887 
Q 3953 994 4288 1222 
L 4288 256 
z
" transform="scale(0.015625)"/>
      <path id="DejaVuSans-Bold-61" d="M 2106 1575 
Q 1756 1575 1579 1456 
Q 1403 1338 1403 1106 
Q 1403 894 1545 773 
Q 1688 653 1941 653 
Q 2256 653 2472 879 
Q 2688 1106 2688 1447 
L 2688 1575 
L 2106 1575 
z
M 3816 1997 
L 3816 0 
L 2688 0 
L 2688 519 
Q 2463 200 2181 54 
Q 1900 -91 1497 -91 
Q 953 -91 614 226 
Q 275 544 275 1050 
Q 275 1666 698 1953 
Q 1122 2241 2028 2241 
L 2688 2241 
L 2688 2328 
Q 2688 2594 2478 2717 
Q 2269 2841 1825 2841 
Q 1466 2841 1156 2769 
Q 847 2697 581 2553 
L 581 3406 
Q 941 3494 1303 3539 
Q 1666 3584 2028 3584 
Q 2975 3584 3395 3211 
Q 3816 2838 3816 1997 
z
" transform="scale(0.015625)"/>
      <path id="DejaVuSans-Bold-63" d="M 3366 3391 
L 3366 2478 
Q 3138 2634 2908 2709 
Q 2678 2784 2431 2784 
Q 1963 2784 1702 2511 
Q 1441 2238 1441 1747 
Q 1441 1256 1702 982 
Q 1963 709 2431 709 
Q 2694 709 2930 787 
Q 3166 866 3366 1019 
L 3366 103 
Q 3103 6 2833 -42 
Q 2563 -91 2291 -91 
Q 1344 -91 809 395 
Q 275 881 275 1747 
Q 275 2613 809 3098 
Q 1344 3584 2291 3584 
Q 2566 3584 2833 3536 
Q 3100 3488 3366 3391 
z
" transform="scale(0.015625)"/>
      <path id="DejaVuSans-Bold-65" d="M 4031 1759 
L 4031 1441 
L 1416 1441 
Q 1456 1047 1700 850 
Q 1944 653 2381 653 
Q 2734 653 3104 758 
Q 3475 863 3866 1075 
L 3866 213 
Q 3469 63 3072 -14 
Q 2675 -91 2278 -91 
Q 1328 -91 801 392 
Q 275 875 275 1747 
Q 275 2603 792 3093 
Q 1309 3584 2216 3584 
Q 3041 3584 3536 3087 
Q 4031 2591 4031 1759 
z
M 2881 2131 
Q 2881 2450 2695 2645 
Q 2509 2841 2209 2841 
Q 1884 2841 1681 2658 
Q 1478 2475 1428 2131 
L 2881 2131 
z
" transform="scale(0.015625)"/>
      <path id="DejaVuSans-Bold-50" d="M 588 4666 
L 2584 4666 
Q 3475 4666 3951 4270 
Q 4428 3875 4428 3144 
Q 4428 2409 3951 2014 
Q 3475 1619 2584 1619 
L 1791 1619 
L 1791 0 
L 588 0 
L 588 4666 
z
M 1791 3794 
L 1791 2491 
L 2456 2491 
Q 2806 2491 2997 2661 
Q 3188 2831 3188 3144 
Q 3188 3456 2997 3625 
Q 2806 3794 2456 3794 
L 1791 3794 
z
" transform="scale(0.015625)"/>
      <path id="DejaVuSans-Bold-55" d="M 588 4666 
L 1791 4666 
L 1791 1869 
Q 1791 1291 1980 1042 
Q 2169 794 2597 794 
Q 3028 794 3217 1042 
Q 3406 1291 3406 1869 
L 3406 4666 
L 4609 4666 
L 4609 1869 
Q 4609 878 4112 393 
Q 3616 -91 2597 -91 
Q 1581 -91 1084 393 
Q 588 878 588 1869 
L 588 4666 
z
" transform="scale(0.015625)"/>
      <path id="DejaVuSans-Bold-3a" d="M 716 3500 
L 1844 3500 
L 1844 2291 
L 716 2291 
L 716 3500 
z
M 716 1209 
L 1844 1209 
L 1844 0 
L 716 0 
L 716 1209 
z
" transform="scale(0.015625)"/>
      <path id="DejaVuSans-Bold-4b" d="M 588 4666 
L 1791 4666 
L 1791 2963 
L 3525 4666 
L 4922 4666 
L 2675 2456 
L 5153 0 
L 3647 0 
L 1791 1838 
L 1791 0 
L 588 0 
L 588 4666 
z
" transform="scale(0.015625)"/>
      <path id="DejaVuSans-Bold-56" d="M 31 4666 
L 1241 4666 
L 2478 1222 
L 3713 4666 
L 4922 4666 
L 3194 0 
L 1759 0 
L 31 4666 
z
" transform="scale(0.015625)"/>
      <path id="DejaVuSans-Bold-2d" d="M 347 2297 
L 2309 2297 
L 2309 1388 
L 347 1388 
L 347 2297 
z
" transform="scale(0.015625)"/>
      <path id="DejaVuSans-Bold-6d" d="M 3781 2919 
Q 3994 3244 4286 3414 
Q 4578 3584 4928 3584 
Q 5531 3584 5847 3212 
Q 6163 2841 6163 2131 
L 6163 0 
L 5038 0 
L 5038 1825 
Q 5041 1866 5042 1909 
Q 5044 1953 5044 2034 
Q 5044 2406 4934 2573 
Q 4825 2741 4581 2741 
Q 4263 2741 4089 2478 
Q 3916 2216 3909 1719 
L 3909 0 
L 2784 0 
L 2784 1825 
Q 2784 2406 2684 2573 
Q 2584 2741 2328 2741 
Q 2006 2741 1831 2477 
Q 1656 2213 1656 1722 
L 1656 0 
L 531 0 
L 531 3500 
L 1656 3500 
L 1656 2988 
Q 1863 3284 2130 3434 
Q 2397 3584 2719 3584 
Q 3081 3584 3359 3409 
Q 3638 3234 3781 2919 
z
" transform="scale(0.015625)"/>
      <path id="DejaVuSans-Bold-79" d="M 78 3500 
L 1197 3500 
L 2138 1125 
L 2938 3500 
L 4056 3500 
L 2584 -331 
Q 2363 -916 2067 -1148 
Q 1772 -1381 1288 -1381 
L 641 -1381 
L 641 -647 
L 991 -647 
Q 1275 -647 1404 -556 
Q 1534 -466 1606 -231 
L 1638 -134 
L 78 3500 
z
" transform="scale(0.015625)"/>
      <path id="DejaVuSans-Bold-6a" d="M 538 3500 
L 1656 3500 
L 1656 63 
Q 1656 -641 1318 -1011 
Q 981 -1381 341 -1381 
L -213 -1381 
L -213 -647 
L -19 -647 
Q 300 -647 419 -503 
Q 538 -359 538 63 
L 538 3500 
z
M 538 4863 
L 1656 4863 
L 1656 3950 
L 538 3950 
L 538 4863 
z
" transform="scale(0.015625)"/>
      <path id="DejaVuSans-Bold-69" d="M 538 3500 
L 1656 3500 
L 1656 0 
L 538 0 
L 538 3500 
z
M 538 4863 
L 1656 4863 
L 1656 3950 
L 538 3950 
L 538 4863 
z
" transform="scale(0.015625)"/>
      <path id="DejaVuSans-Bold-6e" d="M 4056 2131 
L 4056 0 
L 2931 0 
L 2931 347 
L 2931 1631 
Q 2931 2084 2911 2256 
Q 2891 2428 2841 2509 
Q 2775 2619 2662 2680 
Q 2550 2741 2406 2741 
Q 2056 2741 1856 2470 
Q 1656 2200 1656 1722 
L 1656 0 
L 538 0 
L 538 3500 
L 1656 3500 
L 1656 2988 
Q 1909 3294 2193 3439 
Q 2478 3584 2822 3584 
Q 3428 3584 3742 3212 
Q 4056 2841 4056 2131 
z
" transform="scale(0.015625)"/>
      <path id="DejaVuSans-Bold-4c" d="M 588 4666 
L 1791 4666 
L 1791 909 
L 3903 909 
L 3903 0 
L 588 0 
L 588 4666 
z
" transform="scale(0.015625)"/>
      <path id="DejaVuSans-Bold-6c" d="M 538 4863 
L 1656 4863 
L 1656 0 
L 538 0 
L 538 4863 
z
" transform="scale(0.015625)"/>
      <path id="DejaVuSans-Bold-37" d="M 428 4666 
L 3944 4666 
L 3944 3988 
L 2125 0 
L 953 0 
L 2675 3781 
L 428 3781 
L 428 4666 
z
" transform="scale(0.015625)"/>
     </defs>
     <use xlink:href="#DejaVuSans-Bold-4f"/>
     <use xlink:href="#DejaVuSans-Bold-72" transform="translate(85.009766 0)"/>
     <use xlink:href="#DejaVuSans-Bold-74" transform="translate(134.326172 0)"/>
     <use xlink:href="#DejaVuSans-Bold-68" transform="translate(182.128906 0)"/>
     <use xlink:href="#DejaVuSans-Bold-6f" transform="translate(253.320312 0)"/>
     <use xlink:href="#DejaVuSans-Bold-43" transform="translate(322.021484 0)"/>
     <use xlink:href="#DejaVuSans-Bold-61" transform="translate(395.410156 0)"/>
     <use xlink:href="#DejaVuSans-Bold-63" transform="translate(462.890625 0)"/>
     <use xlink:href="#DejaVuSans-Bold-68" transform="translate(522.167969 0)"/>
     <use xlink:href="#DejaVuSans-Bold-65" transform="translate(593.359375 0)"/>
     <use xlink:href="#DejaVuSans-Bold-20" transform="translate(661.181641 0)"/>
     <use xlink:href="#DejaVuSans-Bold-47" transform="translate(695.996094 0)"/>
     <use xlink:href="#DejaVuSans-Bold-50" transform="translate(778.076172 0)"/>
     <use xlink:href="#DejaVuSans-Bold-55" transform="translate(851.367188 0)"/>
     <use xlink:href="#DejaVuSans-Bold-3a" transform="translate(932.568359 0)"/>
     <use xlink:href="#DejaVuSans-Bold-20" transform="translate(972.558594 0)"/>
     <use xlink:href="#DejaVuSans-Bold-4b" transform="translate(1007.373047 0)"/>
     <use xlink:href="#DejaVuSans-Bold-56" transform="translate(1084.863281 0)"/>
     <use xlink:href="#DejaVuSans-Bold-2d" transform="translate(1155.005859 0)"/>
     <use xlink:href="#DejaVuSans-Bold-43" transform="translate(1196.509766 0)"/>
     <use xlink:href="#DejaVuSans-Bold-61" transform="translate(1269.898438 0)"/>
     <use xlink:href="#DejaVuSans-Bold-63" transform="translate(1337.378906 0)"/>
     <use xlink:href="#DejaVuSans-Bold-68" transform="translate(1396.65625 0)"/>
     <use xlink:href="#DejaVuSans-Bold-65" transform="translate(1467.847656 0)"/>
     <use xlink:href="#DejaVuSans-Bold-20" transform="translate(1535.669922 0)"/>
     <use xlink:href="#DejaVuSans-Bold-4d" transform="translate(1570.484375 0)"/>
     <use xlink:href="#DejaVuSans-Bold-65" transform="translate(1669.996094 0)"/>
     <use xlink:href="#DejaVuSans-Bold-6d" transform="translate(1737.818359 0)"/>
     <use xlink:href="#DejaVuSans-Bold-6f" transform="translate(1842.017578 0)"/>
     <use xlink:href="#DejaVuSans-Bold-72" transform="translate(1910.71875 0)"/>
     <use xlink:href="#DejaVuSans-Bold-79" transform="translate(1960.035156 0)"/>
     <use xlink:href="#DejaVuSans-Bold-20" transform="translate(2025.220703 0)"/>
     <use xlink:href="#DejaVuSans-Bold-50" transform="translate(2060.035156 0)"/>
     <use xlink:href="#DejaVuSans-Bold-72" transform="translate(2133.326172 0)"/>
     <use xlink:href="#DejaVuSans-Bold-6f" transform="translate(2182.642578 0)"/>
     <use xlink:href="#DejaVuSans-Bold-6a" transform="translate(2251.34375 0)"/>
     <use xlink:href="#DejaVuSans-Bold-65" transform="translate(2285.621094 0)"/>
     <use xlink:href="#DejaVuSans-Bold-63" transform="translate(2353.443359 0)"/>
     <use xlink:href="#DejaVuSans-Bold-74" transform="translate(2412.720703 0)"/>
     <use xlink:href="#DejaVuSans-Bold-69" transform="translate(2460.523438 0)"/>
     <use xlink:href="#DejaVuSans-Bold-6f" transform="translate(2494.800781 0)"/>
     <use xlink:href="#DejaVuSans-Bold-6e" transform="translate(2563.501953 0)"/>
     <use xlink:href="#DejaVuSans-Bold-20" transform="translate(2634.693359 0)"/>
     <use xlink:href="#DejaVuSans-Bold-28" transform="translate(2669.507812 0)"/>
     <use xlink:href="#DejaVuSans-Bold-4c" transform="translate(2715.210938 0)"/>
     <use xlink:href="#DejaVuSans-Bold-6c" transform="translate(2778.931641 0)"/>
     <use xlink:href="#DejaVuSans-Bold-61" transform="translate(2813.208984 0)"/>
     <use xlink:href="#DejaVuSans-Bold-6d" transform="translate(2880.689453 0)"/>
     <use xlink:href="#DejaVuSans-Bold-61" transform="translate(2984.888672 0)"/>
     <use xlink:href="#DejaVuSans-Bold-20" transform="translate(3052.369141 0)"/>
     <use xlink:href="#DejaVuSans-Bold-33" transform="translate(3087.183594 0)"/>
     <use xlink:href="#DejaVuSans-Bold-20" transform="translate(3156.763672 0)"/>
     <use xlink:href="#DejaVuSans-Bold-37" transform="translate(3191.578125 0)"/>
     <use xlink:href="#DejaVuSans-Bold-30" transform="translate(3261.158203 0)"/>
     <use xlink:href="#DejaVuSans-Bold-42" transform="translate(3330.738281 0)"/>
     <use xlink:href="#DejaVuSans-Bold-29" transform="translate(3406.958984 0)"/>
    </g>
   </g>
   <g id="line2d_51">
    <path d="M 59.831563 228.782037 
L 841.031563 228.782037 
" clip-path="url(#p43f786fe57)" style="fill: none; stroke-dasharray: 7.4,3.2; stroke-dashoffset: 0; stroke: #ffd93d; stroke-opacity: 0.8; stroke-width: 2"/>
   </g>
   <g id="line2d_52">
    <path d="M 95.340653 394.878796 
L 166.358835 361.659444 
L 237.377017 328.440093 
L 308.395199 295.220741 
L 379.413381 262.001389 
L 450.431563 228.782037 
L 521.449744 195.562685 
L 592.467926 162.343333 
L 663.486108 129.123982 
L 734.50429 95.90463 
L 805.522472 62.685278 
" clip-path="url(#p43f786fe57)" style="fill: none; stroke: #ff6b6b; stroke-width: 2.5; stroke-linecap: square"/>
    <defs>
     <path id="m7af6a6f15b" d="M 0 4 
C 1.060812 4 2.078319 3.578535 2.828427 2.828427 
C 3.578535 2.078319 4 1.060812 4 0 
C 4 -1.060812 3.578535 -2.078319 2.828427 -2.828427 
C 2.078319 -3.578535 1.060812 -4 0 -4 
C -1.060812 -4 -2.078319 -3.578535 -2.828427 -2.828427 
C -3.578535 -2.078319 -4 -1.060812 -4 0 
C -4 1.060812 -3.578535 2.078319 -2.828427 2.828427 
C -2.078319 3.578535 -1.060812 4 0 4 
z
" style="stroke: #ffffff"/>
    </defs>
    <g clip-path="url(#p43f786fe57)">
     <use xlink:href="#m7af6a6f15b" x="95.340653" y="394.878796" style="fill: #ff6b6b; stroke: #ffffff"/>
     <use xlink:href="#m7af6a6f15b" x="166.358835" y="361.659444" style="fill: #ff6b6b; stroke: #ffffff"/>
     <use xlink:href="#m7af6a6f15b" x="237.377017" y="328.440093" style="fill: #ff6b6b; stroke: #ffffff"/>
     <use xlink:href="#m7af6a6f15b" x="308.395199" y="295.220741" style="fill: #ff6b6b; stroke: #ffffff"/>
     <use xlink:href="#m7af6a6f15b" x="379.413381" y="262.001389" style="fill: #ff6b6b; stroke: #ffffff"/>
     <use xlink:href="#m7af6a6f15b" x="450.431563" y="228.782037" style="fill: #ff6b6b; stroke: #ffffff"/>
     <use xlink:href="#m7af6a6f15b" x="521.449744" y="195.562685" style="fill: #ff6b6b; stroke: #ffffff"/>
     <use xlink:href="#m7af6a6f15b" x="592.467926" y="162.343333" style="fill: #ff6b6b; stroke: #ffffff"/>
     <use xlink:href="#m7af6a6f15b" x="663.486108" y="129.123982" style="fill: #ff6b6b; stroke: #ffffff"/>
     <use xlink:href="#m7af6a6f15b" x="734.50429" y="95.90463" style="fill: #ff6b6b; stroke: #ffffff"/>
     <use xlink:href="#m7af6a6f15b" x="805.522472" y="62.685278" style="fill: #ff6b6b; stroke: #ffffff"/>
    </g>
   </g>
   <g id="line2d_53">
    <path d="M 95.340653 428.098148 
L 166.358835 394.878796 
L 237.377017 361.659444 
L 308.395199 328.440093 
L 379.413381 295.220741 
L 450.431563 262.001389 
L 521.449744 228.782037 
L 592.467926 195.562685 
L 663.486108 162.343333 
L 734.50429 129.123982 
L 805.522472 95.90463 
" clip-path="url(#p43f786fe57)" style="fill: none; stroke-dasharray: 9.25,4; stroke-dashoffset: 0; stroke: #4ecdc4; stroke-width: 2.5"/>
    <defs>
     <path id="mb3c8db87ba" d="M -4 4 
L 4 4 
L 4 -4 
L -4 -4 
z
" style="stroke: #ffffff; stroke-linejoin: miter"/>
    </defs>
    <g clip-path="url(#p43f786fe57)">
     <use xlink:href="#mb3c8db87ba" x="95.340653" y="428.098148" style="fill: #4ecdc4; stroke: #ffffff; stroke-linejoin: miter"/>
     <use xlink:href="#mb3c8db87ba" x="166.358835" y="394.878796" style="fill: #4ecdc4; stroke: #ffffff; stroke-linejoin: miter"/>
     <use xlink:href="#mb3c8db87ba" x="237.377017" y="361.659444" style="fill: #4ecdc4; stroke: #ffffff; stroke-linejoin: miter"/>
     <use xlink:href="#mb3c8db87ba" x="308.395199" y="328.440093" style="fill: #4ecdc4; stroke: #ffffff; stroke-linejoin: miter"/>
     <use xlink:href="#mb3c8db87ba" x="379.413381" y="295.220741" style="fill: #4ecdc4; stroke: #ffffff; stroke-linejoin: miter"/>
     <use xlink:href="#mb3c8db87ba" x="450.431563" y="262.001389" style="fill: #4ecdc4; stroke: #ffffff; stroke-linejoin: miter"/>
     <use xlink:href="#mb3c8db87ba" x="521.449744" y="228.782037" style="fill: #4ecdc4; stroke: #ffffff; stroke-linejoin: miter"/>
     <use xlink:href="#mb3c8db87ba" x="592.467926" y="195.562685" style="fill: #4ecdc4; stroke: #ffffff; stroke-linejoin: miter"/>
     <use xlink:href="#mb3c8db87ba" x="663.486108" y="162.343333" style="fill: #4ecdc4; stroke: #ffffff; stroke-linejoin: miter"/>
     <use xlink:href="#mb3c8db87ba" x="734.50429" y="129.123982" style="fill: #4ecdc4; stroke: #ffffff; stroke-linejoin: miter"/>
     <use xlink:href="#mb3c8db87ba" x="805.522472" y="95.90463" style="fill: #4ecdc4; stroke: #ffffff; stroke-linejoin: miter"/>
    </g>
   </g>
   <g id="line2d_54">
    <path d="M 95.340653 461.3175 
L 166.358835 428.098148 
L 237.377017 394.878796 
L 308.395199 361.659444 
L 379.413381 328.440093 
L 450.431563 295.220741 
L 521.449744 262.001389 
L 592.467926 228.782037 
L 663.486108 195.562685 
L 734.50429 162.343333 
L 805.522472 129.123982 
" clip-path="url(#p43f786fe57)" style="fill: none; stroke-dasharray: 16,4,2.5,4; stroke-dashoffset: 0; stroke: #96ceb4; stroke-width: 2.5"/>
    <defs>
     <path id="m951f928102" d="M 0 -4 
L -4 4 
L 4 4 
z
" style="stroke: #ffffff; stroke-linejoin: miter"/>
    </defs>
    <g clip-path="url(#p43f786fe57)">
     <use xlink:href="#m951f928102" x="95.340653" y="461.3175" style="fill: #96ceb4; stroke: #ffffff; stroke-linejoin: miter"/>
     <use xlink:href="#m951f928102" x="166.358835" y="428.098148" style="fill: #96ceb4; stroke: #ffffff; stroke-linejoin: miter"/>
     <use xlink:href="#m951f928102" x="237.377017" y="394.878796" style="fill: #96ceb4; stroke: #ffffff; stroke-linejoin: miter"/>
     <use xlink:href="#m951f928102" x="308.395199" y="361.659444" style="fill: #96ceb4; stroke: #ffffff; stroke-linejoin: miter"/>
     <use xlink:href="#m951f928102" x="379.413381" y="328.440093" style="fill: #96ceb4; stroke: #ffffff; stroke-linejoin: miter"/>
     <use xlink:href="#m951f928102" x="450.431563" y="295.220741" style="fill: #96ceb4; stroke: #ffffff; stroke-linejoin: miter"/>
     <use xlink:href="#m951f928102" x="521.449744" y="262.001389" style="fill: #96ceb4; stroke: #ffffff; stroke-linejoin: miter"/>
     <use xlink:href="#m951f928102" x="592.467926" y="228.782037" style="fill: #96ceb4; stroke: #ffffff; stroke-linejoin: miter"/>
     <use xlink:href="#m951f928102" x="663.486108" y="195.562685" style="fill: #96ceb4; stroke: #ffffff; stroke-linejoin: miter"/>
     <use xlink:href="#m951f928102" x="734.50429" y="162.343333" style="fill: #96ceb4; stroke: #ffffff; stroke-linejoin: miter"/>
     <use xlink:href="#m951f928102" x="805.522472" y="129.123982" style="fill: #96ceb4; stroke: #ffffff; stroke-linejoin: miter"/>
    </g>
   </g>
   <g id="legend_1">
    <g id="patch_10">
     <path d="M 68.231563 100.39875 
L 184.520938 100.39875 
Q 186.920938 100.39875 186.920938 97.99875 
L 186.920938 46.3575 
Q 186.920938 43.9575 184.520938 43.9575 
L 68.231563 43.9575 
Q 65.831563 43.9575 65.831563 46.3575 
L 65.831563 97.99875 
Q 65.831563 100.39875 68.231563 100.39875 
z
" style="fill: #1a1a2e; opacity: 0.8; stroke: #444444; stroke-linejoin: miter"/>
    </g>
    <g id="line2d_55">
     <path d="M 70.631563 53.675625 
L 82.631563 53.675625 
L 94.631563 53.675625 
" style="fill: none; stroke: #ff6b6b; stroke-width: 2.5; stroke-linecap: square"/>
     <g>
      <use xlink:href="#m7af6a6f15b" x="82.631563" y="53.675625" style="fill: #ff6b6b; stroke: #ffffff"/>
     </g>
    </g>
    <g id="text_18">
     <!-- No eviction -->
     <g style="fill: #e0e0e0" transform="translate(104.231563 57.875625) scale(0.12 -0.12)">
      <defs>
       <path id="DejaVuSans-4e" d="M 628 4666 
L 1478 4666 
L 3547 763 
L 3547 4666 
L 4159 4666 
L 4159 0 
L 3309 0 
L 1241 3903 
L 1241 0 
L 628 0 
L 628 4666 
z
" transform="scale(0.015625)"/>
       <path id="DejaVuSans-76" d="M 191 3500 
L 800 3500 
L 1894 563 
L 2988 3500 
L 3597 3500 
L 2284 0 
L 1503 0 
L 191 3500 
z
" transform="scale(0.015625)"/>
       <path id="DejaVuSans-69" d="M 603 3500 
L 1178 3500 
L 1178 0 
L 603 0 
L 603 3500 
z
M 603 4863 
L 1178 4863 
L 1178 4134 
L 603 4134 
L 603 4863 
z
" transform="scale(0.015625)"/>
      </defs>
      <use xlink:href="#DejaVuSans-4e"/>
      <use xlink:href="#DejaVuSans-6f" transform="translate(74.804688 0)"/>
      <use xlink:href="#DejaVuSans-20" transform="translate(135.986328 0)"/>
      <use xlink:href="#DejaVuSans-65" transform="translate(167.773438 0)"/>
      <use xlink:href="#DejaVuSans-76" transform="translate(229.296875 0)"/>
      <use xlink:href="#DejaVuSans-69" transform="translate(288.476562 0)"/>
      <use xlink:href="#DejaVuSans-63" transform="translate(316.259766 0)"/>
      <use xlink:href="#DejaVuSans-74" transform="translate(371.240234 0)"/>
      <use xlink:href="#DejaVuSans-69" transform="translate(410.449219 0)"/>
      <use xlink:href="#DejaVuSans-6f" transform="translate(438.232422 0)"/>
      <use xlink:href="#DejaVuSans-6e" transform="translate(499.414062 0)"/>
     </g>
    </g>
    <g id="line2d_56">
     <path d="M 70.631563 71.289375 
L 82.631563 71.289375 
L 94.631563 71.289375 
" style="fill: none; stroke-dasharray: 9.25,4; stroke-dashoffset: 0; stroke: #4ecdc4; stroke-width: 2.5"/>
     <g>
      <use xlink:href="#mb3c8db87ba" x="82.631563" y="71.289375" style="fill: #4ecdc4; stroke: #ffffff; stroke-linejoin: miter"/>
     </g>
    </g>
    <g id="text_19">
     <!-- 50% eviction -->
     <g style="fill: #e0e0e0" transform="translate(104.231563 75.489375) scale(0.12 -0.12)">
      <defs>
       <path id="DejaVuSans-25" d="M 4653 2053 
Q 4381 2053 4226 1822 
Q 4072 1591 4072 1178 
Q 4072 772 4226 539 
Q 4381 306 4653 306 
Q 4919 306 5073 539 
Q 5228 772 5228 1178 
Q 5228 1588 5073 1820 
Q 4919 2053 4653 2053 
z
M 4653 2450 
Q 5147 2450 5437 2106 
Q 5728 1763 5728 1178 
Q 5728 594 5436 251 
Q 5144 -91 4653 -91 
Q 4153 -91 3862 251 
Q 3572 594 3572 1178 
Q 3572 1766 3864 2108 
Q 4156 2450 4653 2450 
z
M 1428 4353 
Q 1159 4353 1004 4120 
Q 850 3888 850 3481 
Q 850 3069 1003 2837 
Q 1156 2606 1428 2606 
Q 1700 2606 1854 2837 
Q 2009 3069 2009 3481 
Q 2009 3884 1853 4118 
Q 1697 4353 1428 4353 
z
M 4250 4750 
L 4750 4750 
L 1831 -91 
L 1331 -91 
L 4250 4750 
z
M 1428 4750 
Q 1922 4750 2215 4408 
Q 2509 4066 2509 3481 
Q 2509 2891 2217 2550 
Q 1925 2209 1428 2209 
Q 931 2209 642 2551 
Q 353 2894 353 3481 
Q 353 4063 643 4406 
Q 934 4750 1428 4750 
z
" transform="scale(0.015625)"/>
      </defs>
      <use xlink:href="#DejaVuSans-35"/>
      <use xlink:href="#DejaVuSans-30" transform="translate(63.623047 0)"/>
      <use xlink:href="#DejaVuSans-25" transform="translate(127.246094 0)"/>
      <use xlink:href="#DejaVuSans-20" transform="translate(222.265625 0)"/>
      <use xlink:href="#DejaVuSans-65" transform="translate(254.052734 0)"/>
      <use xlink:href="#DejaVuSans-76" transform="translate(315.576172 0)"/>
      <use xlink:href="#DejaVuSans-69" transform="translate(374.755859 0)"/>
      <use xlink:href="#DejaVuSans-63" transform="translate(402.539062 0)"/>
      <use xlink:href="#DejaVuSans-74" transform="translate(457.519531 0)"/>
      <use xlink:href="#DejaVuSans-69" transform="translate(496.728516 0)"/>
      <use xlink:href="#DejaVuSans-6f" transform="translate(524.511719 0)"/>
      <use xlink:href="#DejaVuSans-6e" transform="translate(585.693359 0)"/>
     </g>
    </g>
    <g id="line2d_57">
     <path d="M 70.631563 88.903125 
L 82.631563 88.903125 
L 94.631563 88.903125 
" style="fill: none; stroke-dasharray: 16,4,2.5,4; stroke-dashoffset: 0; stroke: #96ceb4; stroke-width: 2.5"/>
     <g>
      <use xlink:href="#m951f928102" x="82.631563" y="88.903125" style="fill: #96ceb4; stroke: #ffffff; stroke-linejoin: miter"/>
     </g>
    </g>
    <g id="text_20">
     <!-- 75% eviction -->
     <g style="fill: #e0e0e0" transform="translate(104.231563 93.103125) scale(0.12 -0.12)">
      <defs>
       <path id="DejaVuSans-37" d="M 525 4666 
L 3525 4666 
L 3525 4397 
L 1831 0 
L 1172 0 
L 2766 4134 
L 525 4134 
L 525 4666 
z
" transform="scale(0.015625)"/>
      </defs>
      <use xlink:href="#DejaVuSans-37"/>
      <use xlink:href="#DejaVuSans-35" transform="translate(63.623047 0)"/>
      <use xlink:href="#DejaVuSans-25" transform="translate(127.246094 0)"/>
      <use xlink:href="#DejaVuSans-20" transform="translate(222.265625 0)"/>
      <use xlink:href="#DejaVuSans-65" transform="translate(254.052734 0)"/>
      <use xlink:href="#DejaVuSans-76" transform="translate(315.576172 0)"/>
      <use xlink:href="#DejaVuSans-69" transform="translate(374.755859 0)"/>
      <use xlink:href="#DejaVuSans-63" transform="translate(402.539062 0)"/>
      <use xlink:href="#DejaVuSans-74" transform="translate(457.519531 0)"/>
      <use xlink:href="#DejaVuSans-69" transform="translate(496.728516 0)"/>
      <use xlink:href="#DejaVuSans-6f" transform="translate(524.511719 0)"/>
      <use xlink:href="#DejaVuSans-6e" transform="translate(585.693359 0)"/>
     </g>
    </g>
   </g>
   <g id="line2d_58">
    <defs>
     <path id="mebb2ccf68c" d="M -3 6 
L 0 3 
L 3 6 
L 6 3 
L 3 0 
L 6 -3 
L 3 -6 
L 0 -3 
L -3 -6 
L -6 -3 
L -3 0 
L -6 3 
z
" style="stroke: #ffffff; stroke-width: 2; stroke-linejoin: miter"/>
    </defs>
    <g clip-path="url(#p43f786fe57)">
     <use xlink:href="#mebb2ccf68c" x="450.431563" y="228.782037" style="fill: #ff6b6b; stroke: #ffffff; stroke-width: 2; stroke-linejoin: miter"/>
    </g>
   </g>
   <g id="line2d_59">
    <defs>
     <path id="m314bd130e3" d="M -3 6 
L 0 3 
L 3 6 
L 6 3 
L 3 0 
L 6 -3 
L 3 -6 
L 0 -3 
L -3 -6 
L -6 -3 
L -3 0 
L -6 3 
z
" style="stroke: #ffffff; stroke-width: 2; stroke-linejoin: miter"/>
    </defs>
    <g clip-path="url(#p43f786fe57)">
     <use xlink:href="#m314bd130e3" x="521.449744" y="228.782037" style="fill: #4ecdc4; stroke: #ffffff; stroke-width: 2; stroke-linejoin: miter"/>
    </g>
   </g>
   <g id="line2d_60">
    <defs>
     <path id="mfc4eef2c8d" d="M -3 6 
L 0 3 
L 3 6 
L 6 3 
L 3 0 
L 6 -3 
L 3 -6 
L 0 -3 
L -3 -6 
L -6 -3 
L -3 0 
L -6 3 
z
" style="stroke: #ffffff; stroke-width: 2; stroke-linejoin: miter"/>
    </defs>
    <g clip-path="url(#p43f786fe57)">
     <use xlink:href="#mfc4eef2c8d" x="592.467926" y="228.782037" style="fill: #96ceb4; stroke: #ffffff; stroke-width: 2; stroke-linejoin: miter"/>
    </g>
   </g>
  </g>
  <g id="text_21">
   <!-- OrthoCache GPU v0.1.0 -->
   <g style="fill: #888888; opacity: 0.3" transform="translate(827.051563 531.65375) scale(0.08 -0.08)">
    <defs>
     <path id="DejaVuSans-Oblique-4f" d="M 2919 4238 
Q 2400 4238 2003 3986 
Q 1606 3734 1313 3219 
Q 1125 2891 1026 2522 
Q 928 2153 928 1778 
Q 928 1128 1239 775 
Q 1550 422 2119 422 
Q 2631 422 3032 676 
Q 3434 931 3719 1434 
Q 3909 1772 4009 2142 
Q 4109 2513 4109 2881 
Q 4109 3528 3796 3883 
Q 3484 4238 2919 4238 
z
M 2100 -91 
Q 1241 -91 748 418 
Q 256 928 256 1813 
Q 256 2319 448 2847 
Q 641 3375 978 3788 
Q 1375 4272 1862 4511 
Q 2350 4750 2938 4750 
Q 3794 4750 4287 4245 
Q 4781 3741 4781 2869 
Q 4781 2331 4593 1812 
Q 4406 1294 4056 872 
Q 3656 384 3173 146 
Q 2691 -91 2100 -91 
z
" transform="scale(0.015625)"/>
     <path id="DejaVuSans-Oblique-72" d="M 2853 2969 
Q 2766 3016 2653 3041 
Q 2541 3066 2413 3066 
Q 1953 3066 1609 2717 
Q 1266 2369 1153 1784 
L 800 0 
L 225 0 
L 909 3500 
L 1484 3500 
L 1375 2956 
Q 1603 3259 1920 3421 
Q 2238 3584 2597 3584 
Q 2691 3584 2781 3573 
Q 2872 3563 2963 3538 
L 2853 2969 
z
" transform="scale(0.015625)"/>
     <path id="DejaVuSans-Oblique-74" d="M 2706 3500 
L 2619 3053 
L 1472 3053 
L 1100 1153 
Q 1081 1047 1072 975 
Q 1063 903 1063 863 
Q 1063 663 1183 572 
Q 1303 481 1569 481 
L 2150 481 
L 2053 0 
L 1503 0 
Q 991 0 739 200 
Q 488 400 488 806 
Q 488 878 497 964 
Q 506 1050 525 1153 
L 897 3053 
L 409 3053 
L 500 3500 
L 978 3500 
L 1172 4494 
L 1747 4494 
L 1556 3500 
L 2706 3500 
z
" transform="scale(0.015625)"/>
     <path id="DejaVuSans-Oblique-68" d="M 3566 2113 
L 3156 0 
L 2578 0 
L 2988 2091 
Q 3016 2238 3031 2350 
Q 3047 2463 3047 2528 
Q 3047 2791 2881 2937 
Q 2716 3084 2419 3084 
Q 1956 3084 1617 2771 
Q 1278 2459 1178 1941 
L 800 0 
L 225 0 
L 1172 4863 
L 1747 4863 
L 1375 2950 
Q 1594 3244 1934 3414 
Q 2275 3584 2650 3584 
Q 3113 3584 3367 3334 
Q 3622 3084 3622 2631 
Q 3622 2519 3608 2391 
Q 3594 2263 3566 2113 
z
" transform="scale(0.015625)"/>
     <path id="DejaVuSans-Oblique-6f" d="M 1625 -91 
Q 1009 -91 651 289 
Q 294 669 294 1325 
Q 294 1706 417 2101 
Q 541 2497 738 2766 
Q 1047 3184 1428 3384 
Q 1809 3584 2291 3584 
Q 2888 3584 3255 3212 
Q 3622 2841 3622 2241 
Q 3622 1825 3500 1412 
Q 3378 1000 3181 728 
Q 2875 309 2494 109 
Q 2113 -91 1625 -91 
z
M 891 1344 
Q 891 869 1089 633 
Q 1288 397 1691 397 
Q 2269 397 2648 901 
Q 3028 1406 3028 2181 
Q 3028 2634 2825 2865 
Q 2622 3097 2228 3097 
Q 1903 3097 1650 2945 
Q 1397 2794 1197 2484 
Q 1050 2253 970 1956 
Q 891 1659 891 1344 
z
" transform="scale(0.015625)"/>
     <path id="DejaVuSans-Oblique-43" d="M 4447 4306 
L 4319 3641 
Q 4019 3944 3683 4091 
Q 3347 4238 2956 4238 
Q 2422 4238 2017 3981 
Q 1613 3725 1319 3200 
Q 1131 2863 1032 2486 
Q 934 2109 934 1728 
Q 934 1091 1264 756 
Q 1594 422 2222 422 
Q 2656 422 3056 561 
Q 3456 700 3834 978 
L 3688 231 
Q 3316 72 2936 -9 
Q 2556 -91 2175 -91 
Q 1278 -91 773 396 
Q 269 884 269 1753 
Q 269 2309 461 2846 
Q 653 3384 1013 3828 
Q 1394 4300 1883 4525 
Q 2372 4750 3022 4750 
Q 3422 4750 3780 4639 
Q 4138 4528 4447 4306 
z
" transform="scale(0.015625)"/>
     <path id="DejaVuSans-Oblique-61" d="M 3438 1997 
L 3047 0 
L 2472 0 
L 2578 531 
Q 2325 219 2001 64 
Q 1678 -91 1281 -91 
Q 834 -91 548 182 
Q 263 456 263 884 
Q 263 1497 752 1853 
Q 1241 2209 2100 2209 
L 2900 2209 
L 2931 2363 
Q 2938 2388 2941 2417 
Q 2944 2447 2944 2509 
Q 2944 2788 2717 2942 
Q 2491 3097 2081 3097 
Q 1800 3097 1504 3025 
Q 1209 2953 897 2809 
L 997 3341 
Q 1322 3463 1633 3523 
Q 1944 3584 2234 3584 
Q 2853 3584 3176 3315 
Q 3500 3047 3500 2534 
Q 3500 2431 3484 2292 
Q 3469 2153 3438 1997 
z
M 2816 1759 
L 2241 1759 
Q 1534 1759 1195 1570 
Q 856 1381 856 984 
Q 856 709 1029 553 
Q 1203 397 1509 397 
Q 1978 397 2328 733 
Q 2678 1069 2791 1631 
L 2816 1759 
z
" transform="scale(0.015625)"/>
     <path id="DejaVuSans-Oblique-63" d="M 3431 3366 
L 3316 2797 
Q 3109 2947 2876 3022 
Q 2644 3097 2394 3097 
Q 2119 3097 1870 3000 
Q 1622 2903 1453 2725 
Q 1184 2453 1037 2087 
Q 891 1722 891 1331 
Q 891 859 1127 628 
Q 1363 397 1844 397 
Q 2081 397 2348 469 
Q 2616 541 2906 684 
L 2797 116 
Q 2547 13 2283 -39 
Q 2019 -91 1741 -91 
Q 1044 -91 669 257 
Q 294 606 294 1253 
Q 294 1797 489 2255 
Q 684 2713 1069 3078 
Q 1331 3328 1684 3456 
Q 2038 3584 2456 3584 
Q 2700 3584 2940 3529 
Q 3181 3475 3431 3366 
z
" transform="scale(0.015625)"/>
     <path id="DejaVuSans-Oblique-65" d="M 3078 2063 
Q 3088 2113 3092 2166 
Q 3097 2219 3097 2272 
Q 3097 2653 2873 2875 
Q 2650 3097 2266 3097 
Q 1838 3097 1509 2826 
Q 1181 2556 1013 2059 
L 3078 2063 
z
M 3578 1613 
L 903 1613 
Q 884 1494 878 1425 
Q 872 1356 872 1306 
Q 872 872 1139 634 
Q 1406 397 1894 397 
Q 2269 397 2603 481 
Q 2938 566 3225 728 
L 3116 159 
Q 2806 34 2476 -28 
Q 2147 -91 1806 -91 
Q 1078 -91 686 257 
Q 294 606 294 1247 
Q 294 1794 489 2264 
Q 684 2734 1063 3103 
Q 1306 3334 1642 3459 
Q 1978 3584 2356 3584 
Q 2950 3584 3301 3228 
Q 3653 2872 3653 2272 
Q 3653 2128 3634 1964 
Q 3616 1800 3578 1613 
z
" transform="scale(0.015625)"/>
     <path id="DejaVuSans-Oblique-20" transform="scale(0.015625)"/>
     <path id="DejaVuSans-Oblique-47" d="M 3494 697 
L 3738 1919 
L 2700 1919 
L 2797 2438 
L 4453 2438 
L 4050 384 
Q 3634 156 3143 32 
Q 2653 -91 2156 -91 
Q 1278 -91 783 396 
Q 288 884 288 1753 
Q 288 2475 589 3126 
Q 891 3778 1422 4213 
Q 1756 4484 2153 4617 
Q 2550 4750 3034 4750 
Q 3472 4750 3873 4639 
Q 4275 4528 4641 4306 
L 4513 3634 
Q 4231 3928 3853 4083 
Q 3475 4238 3047 4238 
Q 2550 4238 2172 4048 
Q 1794 3859 1497 3463 
Q 1244 3125 1098 2667 
Q 953 2209 953 1734 
Q 953 1081 1287 751 
Q 1622 422 2284 422 
Q 2616 422 2925 492 
Q 3234 563 3494 697 
z
" transform="scale(0.015625)"/>
     <path id="DejaVuSans-Oblique-50" d="M 1081 4666 
L 2541 4666 
Q 3178 4666 3512 4369 
Q 3847 4072 3847 3500 
Q 3847 2731 3353 2303 
Q 2859 1875 1966 1875 
L 1172 1875 
L 806 0 
L 172 0 
L 1081 4666 
z
M 1613 4147 
L 1275 2394 
L 2069 2394 
Q 2606 2394 2893 2669 
Q 3181 2944 3181 3456 
Q 3181 3784 2986 3965 
Q 2791 4147 2438 4147 
L 1613 4147 
z
" transform="scale(0.015625)"/>
     <path id="DejaVuSans-Oblique-55" d="M 991 4666 
L 1625 4666 
L 1075 1831 
Q 1041 1641 1027 1517 
Q 1013 1394 1013 1300 
Q 1013 869 1253 645 
Q 1494 422 1959 422 
Q 2563 422 2898 753 
Q 3234 1084 3378 1831 
L 3928 4666 
L 4563 4666 
L 4000 1753 
Q 3816 809 3300 359 
Q 2784 -91 1888 -91 
Q 1188 -91 780 261 
Q 372 613 372 1216 
Q 372 1325 387 1461 
Q 403 1597 434 1753 
L 991 4666 
z
" transform="scale(0.015625)"/>
     <path id="DejaVuSans-Oblique-76" d="M 459 3500 
L 1069 3500 
L 1581 525 
L 3256 3500 
L 3866 3500 
L 1875 0 
L 1100 0 
L 459 3500 
z
" transform="scale(0.015625)"/>
     <path id="DejaVuSans-Oblique-30" d="M 2444 4750 
Q 3078 4750 3414 4328 
Q 3750 3906 3750 3116 
Q 3750 2516 3592 1923 
Q 3434 1331 3150 863 
Q 2859 394 2467 151 
Q 2075 -91 1600 -91 
Q 988 -91 653 334 
Q 319 759 319 1544 
Q 319 2138 480 2733 
Q 641 3328 928 3794 
Q 1216 4263 1602 4506 
Q 1988 4750 2444 4750 
z
M 2406 4250 
Q 2169 4250 1955 4123 
Q 1741 3997 1569 3750 
Q 1281 3338 1111 2720 
Q 941 2103 941 1453 
Q 941 938 1123 673 
Q 1306 409 1663 409 
Q 1913 409 2125 536 
Q 2338 663 2509 909 
Q 2794 1319 2961 1936 
Q 3128 2553 3128 3206 
Q 3128 3722 2945 3986 
Q 2763 4250 2406 4250 
z
" transform="scale(0.015625)"/>
     <path id="DejaVuSans-Oblique-2e" d="M 525 794 
L 1184 794 
L 1031 0 
L 372 0 
L 525 794 
z
" transform="scale(0.015625)"/>
     <path id="DejaVuSans-Oblique-31" d="M 416 531 
L 1447 531 
L 2144 4122 
L 978 3897 
L 1088 4441 
L 2247 4666 
L 2881 4666 
L 2075 531 
L 3103 531 
L 3003 0 
L 313 0 
L 416 531 
z
" transform="scale(0.015625)"/>
    </defs>
    <use xlink:href="#DejaVuSans-Oblique-4f"/>
    <use xlink:href="#DejaVuSans-Oblique-72" transform="translate(78.710938 0)"/>
    <use xlink:href="#DejaVuSans-Oblique-74" transform="translate(119.824219 0)"/>
    <use xlink:href="#DejaVuSans-Oblique-68" transform="translate(159.033203 0)"/>
    <use xlink:href="#DejaVuSans-Oblique-6f" transform="translate(222.412109 0)"/>
    <use xlink:href="#DejaVuSans-Oblique-43" transform="translate(283.59375 0)"/>
    <use xlink:href="#DejaVuSans-Oblique-61" transform="translate(353.417969 0)"/>
    <use xlink:href="#DejaVuSans-Oblique-63" transform="translate(414.697266 0)"/>
    <use xlink:href="#DejaVuSans-Oblique-68" transform="translate(469.677734 0)"/>
    <use xlink:href="#DejaVuSans-Oblique-65" transform="translate(533.056641 0)"/>
    <use xlink:href="#DejaVuSans-Oblique-20" transform="translate(594.580078 0)"/>
    <use xlink:href="#DejaVuSans-Oblique-47" transform="translate(626.367188 0)"/>
    <use xlink:href="#DejaVuSans-Oblique-50" transform="translate(703.857422 0)"/>
    <use xlink:href="#DejaVuSans-Oblique-55" transform="translate(764.160156 0)"/>
    <use xlink:href="#DejaVuSans-Oblique-20" transform="translate(837.353516 0)"/>
    <use xlink:href="#DejaVuSans-Oblique-76" transform="translate(869.140625 0)"/>
    <use xlink:href="#DejaVuSans-Oblique-30" transform="translate(928.320312 0)"/>
    <use xlink:href="#DejaVuSans-Oblique-2e" transform="translate(991.943359 0)"/>
    <use xlink:href="#DejaVuSans-Oblique-31" transform="translate(1023.730469 0)"/>
    <use xlink:href="#DejaVuSans-Oblique-2e" transform="translate(1087.353516 0)"/>
    <use xlink:href="#DejaVuSans-Oblique-30" transform="translate(1119.140625 0)"/>
   </g>
  </g>
 </g>
 <defs>
  <clipPath id="p43f786fe57">
   <rect x="59.831563" y="37.9575" width="781.2" height="443.52"/>
  </clipPath>
 </defs>
</svg>
