<?xml version="1.0" encoding="utf-8" standalone="no"?>
<!DOCTYPE svg PUBLIC "-//W3C//DTD SVG 1.1//EN"
  "http://www.w3.org/Graphics/SVG/1.1/DTD/svg11.dtd">
<svg xmlns:xlink="http://www.w3.org/1999/xlink" width="796.626562pt" height="544.1175pt" viewBox="0 0 796.626562 544.1175" xmlns="http://www.w3.org/2000/svg" version="1.1">
 <metadata>
  <rdf:RDF xmlns:dc="http://purl.org/dc/elements/1.1/" xmlns:cc="http://creativecommons.org/ns#" xmlns:rdf="http://www.w3.org/1999/02/22-rdf-syntax-ns#">
   <cc:Work>
    <dc:type rdf:resource="http://purl.org/dc/dcmitype/StillImage"/>
    <dc:date>2026-06-02T22:30:10.158402</dc:date>
    <dc:format>image/svg+xml</dc:format>
    <dc:creator>
     <cc:Agent>
      <dc:title>Matplotlib v3.10.3, https://matplotlib.org/</dc:title>
     </cc:Agent>
    </dc:creator>
   </cc:Work>
  </rdf:RDF>
 </metadata>
 <defs>
  <style type="text/css">*{stroke-linejoin: round; stroke-linecap: butt}</style>
 </defs>
 <g id="figure_1">
  <g id="patch_1">
   <path d="M 0 544.1175 
L 796.626562 544.1175 
L 796.626562 0 
L 0 0 
z
" style="fill: #0f0f1a"/>
  </g>
  <g id="axes_1">
   <g id="patch_2">
    <path d="M 47.106563 481.4775 
L 716.706563 481.4775 
L 716.706563 37.9575 
L 47.106563 37.9575 
z
" style="fill: #1a1a2e"/>
   </g>
   <g id="patch_3">
    <path d="M 77.542926 481.4775 
L 311.155126 481.4775 
L 311.155126 37.9575 
L 77.542926 37.9575 
z
" clip-path="url(#pd5dd682a3c)" style="fill: #4ecdc4; opacity: 0.08; stroke: #4ecdc4; stroke-linejoin: miter"/>
   </g>
   <g id="patch_4">
    <path d="M 311.155126 481.4775 
L 686.270199 481.4775 
L 686.270199 37.9575 
L 311.155126 37.9575 
z
" clip-path="url(#pd5dd682a3c)" style="fill: #ff6b6b; opacity: 0.08; stroke: #ff6b6b; stroke-linejoin: miter"/>
   </g>
   <g id="matplotlib.axis_1">
    <g id="xtick_1">
     <g id="line2d_1">
      <path d="M 52.515066 481.4775 
L 52.515066 37.9575 
" clip-path="url(#pd5dd682a3c)" style="fill: none; stroke: #555555; stroke-opacity: 0.2; stroke-width: 0.8; stroke-linecap: square"/>
     </g>
     <g id="line2d_2">
      <defs>
       <path id="m37c3379957" d="M 0 0 
L 0 3.5 
" style="stroke: #cccccc; stroke-width: 0.8"/>
      </defs>
      <g>
       <use xlink:href="#m37c3379957" x="52.515066" y="481.4775" style="fill: #cccccc; stroke: #cccccc; stroke-width: 0.8"/>
      </g>
     </g>
     <g id="text_1">
      <!-- 3.0 -->
      <g style="fill: #cccccc" transform="translate(44.563503 496.075938) scale(0.1 -0.1)">
       <defs>
        <path id="DejaVuSans-33" d="M 2597 2516 
Q 3050 2419 3304 2112 
Q 3559 1806 3559 1356 
Q 3559 666 3084 287 
Q 2609 -91 1734 -91 
Q 1441 -91 1130 -33 
Q 819 25 488 141 
L 488 750 
Q 750 597 1062 519 
Q 1375 441 1716 441 
Q 2309 441 2620 675 
Q 2931 909 2931 1356 
Q 2931 1769 2642 2001 
Q 2353 2234 1838 2234 
L 1294 2234 
L 1294 2753 
L 1863 2753 
Q 2328 2753 2575 2939 
Q 2822 3125 2822 3475 
Q 2822 3834 2567 4026 
Q 2313 4219 1838 4219 
Q 1578 4219 1281 4162 
Q 984 4106 628 3988 
L 628 4550 
Q 988 4650 1302 4700 
Q 1616 4750 1894 4750 
Q 2613 4750 3031 4423 
Q 3450 4097 3450 3541 
Q 3450 3153 3228 2886 
Q 3006 2619 2597 2516 
z
" transform="scale(0.015625)"/>
        <path id="DejaVuSans-2e" d="M 684 794 
L 1344 794 
L 1344 0 
L 684 0 
L 684 794 
z
" transform="scale(0.015625)"/>
        <path id="DejaVuSans-30" d="M 2034 4250 
Q 1547 4250 1301 3770 
Q 1056 3291 1056 2328 
Q 1056 1369 1301 889 
Q 1547 409 2034 409 
Q 2525 409 2770 889 
Q 3016 1369 3016 2328 
Q 3016 3291 2770 3770 
Q 2525 4250 2034 4250 
z
M 2034 4750 
Q 2819 4750 3233 4129 
Q 3647 3509 3647 2328 
Q 3647 1150 3233 529 
Q 2819 -91 2034 -91 
Q 1250 -91 836 529 
Q 422 1150 422 2328 
Q 422 3509 836 4129 
Q 1250 4750 2034 4750 
z
" transform="scale(0.015625)"/>
       </defs>
       <use xlink:href="#DejaVuSans-33"/>
       <use xlink:href="#DejaVuSans-2e" transform="translate(63.623047 0)"/>
       <use xlink:href="#DejaVuSans-30" transform="translate(95.410156 0)"/>
      </g>
     </g>
    </g>
    <g id="xtick_2">
     <g id="line2d_3">
      <path d="M 180.344421 481.4775 
L 180.344421 37.9575 
" clip-path="url(#pd5dd682a3c)" style="fill: none; stroke: #555555; stroke-opacity: 0.2; stroke-width: 0.8; stroke-linecap: square"/>
     </g>
     <g id="line2d_4">
      <g>
       <use xlink:href="#m37c3379957" x="180.344421" y="481.4775" style="fill: #cccccc; stroke: #cccccc; stroke-width: 0.8"/>
      </g>
     </g>
     <g id="text_2">
      <!-- 3.5 -->
      <g style="fill: #cccccc" transform="translate(172.392858 496.075938) scale(0.1 -0.1)">
       <defs>
        <path id="DejaVuSans-35" d="M 691 4666 
L 3169 4666 
L 3169 4134 
L 1269 4134 
L 1269 2991 
Q 1406 3038 1543 3061 
Q 1681 3084 1819 3084 
Q 2600 3084 3056 2656 
Q 3513 2228 3513 1497 
Q 3513 744 3044 326 
Q 2575 -91 1722 -91 
Q 1428 -91 1123 -41 
Q 819 9 494 109 
L 494 744 
Q 775 591 1075 516 
Q 1375 441 1709 441 
Q 2250 441 2565 725 
Q 2881 1009 2881 1497 
Q 2881 1984 2565 2268 
Q 2250 2553 1709 2553 
Q 1456 2553 1204 2497 
Q 953 2441 691 2322 
L 691 4666 
z
" transform="scale(0.015625)"/>
       </defs>
       <use xlink:href="#DejaVuSans-33"/>
       <use xlink:href="#DejaVuSans-2e" transform="translate(63.623047 0)"/>
       <use xlink:href="#DejaVuSans-35" transform="translate(95.410156 0)"/>
      </g>
     </g>
    </g>
    <g id="xtick_3">
     <g id="line2d_5">
      <path d="M 308.173776 481.4775 
L 308.173776 37.9575 
" clip-path="url(#pd5dd682a3c)" style="fill: none; stroke: #555555; stroke-opacity: 0.2; stroke-width: 0.8; stroke-linecap: square"/>
     </g>
     <g id="line2d_6">
      <g>
       <use xlink:href="#m37c3379957" x="308.173776" y="481.4775" style="fill: #cccccc; stroke: #cccccc; stroke-width: 0.8"/>
      </g>
     </g>
     <g id="text_3">
      <!-- 4.0 -->
      <g style="fill: #cccccc" transform="translate(300.222213 496.075938) scale(0.1 -0.1)">
       <defs>
        <path id="DejaVuSans-34" d="M 2419 4116 
L 825 1625 
L 2419 1625 
L 2419 4116 
z
M 2253 4666 
L 3047 4666 
L 3047 1625 
L 3713 1625 
L 3713 1100 
L 3047 1100 
L 3047 0 
L 2419 0 
L 2419 1100 
L 313 1100 
L 313 1709 
L 2253 4666 
z
" transform="scale(0.015625)"/>
       </defs>
       <use xlink:href="#DejaVuSans-34"/>
       <use xlink:href="#DejaVuSans-2e" transform="translate(63.623047 0)"/>
       <use xlink:href="#DejaVuSans-30" transform="translate(95.410156 0)"/>
      </g>
     </g>
    </g>
    <g id="xtick_4">
     <g id="line2d_7">
      <path d="M 436.003131 481.4775 
L 436.003131 37.9575 
" clip-path="url(#pd5dd682a3c)" style="fill: none; stroke: #555555; stroke-opacity: 0.2; stroke-width: 0.8; stroke-linecap: square"/>
     </g>
     <g id="line2d_8">
      <g>
       <use xlink:href="#m37c3379957" x="436.003131" y="481.4775" style="fill: #cccccc; stroke: #cccccc; stroke-width: 0.8"/>
      </g>
     </g>
     <g id="text_4">
      <!-- 4.5 -->
      <g style="fill: #cccccc" transform="translate(428.051568 496.075938) scale(0.1 -0.1)">
       <use xlink:href="#DejaVuSans-34"/>
       <use xlink:href="#DejaVuSans-2e" transform="translate(63.623047 0)"/>
       <use xlink:href="#DejaVuSans-35" transform="translate(95.410156 0)"/>
      </g>
     </g>
    </g>
    <g id="xtick_5">
     <g id="line2d_9">
      <path d="M 563.832486 481.4775 
L 563.832486 37.9575 
" clip-path="url(#pd5dd682a3c)" style="fill: none; stroke: #555555; stroke-opacity: 0.2; stroke-width: 0.8; stroke-linecap: square"/>
     </g>
     <g id="line2d_10">
      <g>
       <use xlink:href="#m37c3379957" x="563.832486" y="481.4775" style="fill: #cccccc; stroke: #cccccc; stroke-width: 0.8"/>
      </g>
     </g>
     <g id="text_5">
      <!-- 5.0 -->
      <g style="fill: #cccccc" transform="translate(555.880923 496.075938) scale(0.1 -0.1)">
       <use xlink:href="#DejaVuSans-35"/>
       <use xlink:href="#DejaVuSans-2e" transform="translate(63.623047 0)"/>
       <use xlink:href="#DejaVuSans-30" transform="translate(95.410156 0)"/>
      </g>
     </g>
    </g>
    <g id="xtick_6">
     <g id="line2d_11">
      <path d="M 691.661841 481.4775 
L 691.661841 37.9575 
" clip-path="url(#pd5dd682a3c)" style="fill: none; stroke: #555555; stroke-opacity: 0.2; stroke-width: 0.8; stroke-linecap: square"/>
     </g>
     <g id="line2d_12">
      <g>
       <use xlink:href="#m37c3379957" x="691.661841" y="481.4775" style="fill: #cccccc; stroke: #cccccc; stroke-width: 0.8"/>
      </g>
     </g>
     <g id="text_6">
      <!-- 5.5 -->
      <g style="fill: #cccccc" transform="translate(683.710278 496.075938) scale(0.1 -0.1)">
       <use xlink:href="#DejaVuSans-35"/>
       <use xlink:href="#DejaVuSans-2e" transform="translate(63.623047 0)"/>
       <use xlink:href="#DejaVuSans-35" transform="translate(95.410156 0)"/>
      </g>
     </g>
    </g>
    <g id="text_7">
     <!-- Spectral Decay Ratio (ζ) -->
     <g style="fill: #e0e0e0" transform="translate(303.172266 512.033594) scale(0.13 -0.13)">
      <defs>
       <path id="DejaVuSans-53" d="M 3425 4513 
L 3425 3897 
Q 3066 4069 2747 4153 
Q 2428 4238 2131 4238 
Q 1616 4238 1336 4038 
Q 1056 3838 1056 3469 
Q 1056 3159 1242 3001 
Q 1428 2844 1947 2747 
L 2328 2669 
Q 3034 2534 3370 2195 
Q 3706 1856 3706 1288 
Q 3706 609 3251 259 
Q 2797 -91 1919 -91 
Q 1588 -91 1214 -16 
Q 841 59 441 206 
L 441 856 
Q 825 641 1194 531 
Q 1563 422 1919 422 
Q 2459 422 2753 634 
Q 3047 847 3047 1241 
Q 3047 1584 2836 1778 
Q 2625 1972 2144 2069 
L 1759 2144 
Q 1053 2284 737 2584 
Q 422 2884 422 3419 
Q 422 4038 858 4394 
Q 1294 4750 2059 4750 
Q 2388 4750 2728 4690 
Q 3069 4631 3425 4513 
z
" transform="scale(0.015625)"/>
       <path id="DejaVuSans-70" d="M 1159 525 
L 1159 -1331 
L 581 -1331 
L 581 3500 
L 1159 3500 
L 1159 2969 
Q 1341 3281 1617 3432 
Q 1894 3584 2278 3584 
Q 2916 3584 3314 3078 
Q 3713 2572 3713 1747 
Q 3713 922 3314 415 
Q 2916 -91 2278 -91 
Q 1894 -91 1617 61 
Q 1341 213 1159 525 
z
M 3116 1747 
Q 3116 2381 2855 2742 
Q 2594 3103 2138 3103 
Q 1681 3103 1420 2742 
Q 1159 2381 1159 1747 
Q 1159 1113 1420 752 
Q 1681 391 2138 391 
Q 2594 391 2855 752 
Q 3116 1113 3116 1747 
z
" transform="scale(0.015625)"/>
       <path id="DejaVuSans-65" d="M 3597 1894 
L 3597 1613 
L 953 1613 
Q 991 1019 1311 708 
Q 1631 397 2203 397 
Q 2534 397 2845 478 
Q 3156 559 3463 722 
L 3463 178 
Q 3153 47 2828 -22 
Q 2503 -91 2169 -91 
Q 1331 -91 842 396 
Q 353 884 353 1716 
Q 353 2575 817 3079 
Q 1281 3584 2069 3584 
Q 2775 3584 3186 3129 
Q 3597 2675 3597 1894 
z
M 3022 2063 
Q 3016 2534 2758 2815 
Q 2500 3097 2075 3097 
Q 1594 3097 1305 2825 
Q 1016 2553 972 2059 
L 3022 2063 
z
" transform="scale(0.015625)"/>
       <path id="DejaVuSans-63" d="M 3122 3366 
L 3122 2828 
Q 2878 2963 2633 3030 
Q 2388 3097 2138 3097 
Q 1578 3097 1268 2742 
Q 959 2388 959 1747 
Q 959 1106 1268 751 
Q 1578 397 2138 397 
Q 2388 397 2633 464 
Q 2878 531 3122 666 
L 3122 134 
Q 2881 22 2623 -34 
Q 2366 -91 2075 -91 
Q 1284 -91 818 406 
Q 353 903 353 1747 
Q 353 2603 823 3093 
Q 1294 3584 2113 3584 
Q 2378 3584 2631 3529 
Q 2884 3475 3122 3366 
z
" transform="scale(0.015625)"/>
       <path id="DejaVuSans-74" d="M 1172 4494 
L 1172 3500 
L 2356 3500 
L 2356 3053 
L 1172 3053 
L 1172 1153 
Q 1172 725 1289 603 
Q 1406 481 1766 481 
L 2356 481 
L 2356 0 
L 1766 0 
Q 1100 0 847 248 
Q 594 497 594 1153 
L 594 3053 
L 172 3053 
L 172 3500 
L 594 3500 
L 594 4494 
L 1172 4494 
z
" transform="scale(0.015625)"/>
       <path id="DejaVuSans-72" d="M 2631 2963 
Q 2534 3019 2420 3045 
Q 2306 3072 2169 3072 
Q 1681 3072 1420 2755 
Q 1159 2438 1159 1844 
L 1159 0 
L 581 0 
L 581 3500 
L 1159 3500 
L 1159 2956 
Q 1341 3275 1631 3429 
Q 1922 3584 2338 3584 
Q 2397 3584 2469 3576 
Q 2541 3569 2628 3553 
L 2631 2963 
z
" transform="scale(0.015625)"/>
       <path id="DejaVuSans-61" d="M 2194 1759 
Q 1497 1759 1228 1600 
Q 959 1441 959 1056 
Q 959 750 1161 570 
Q 1363 391 1709 391 
Q 2188 391 2477 730 
Q 2766 1069 2766 1631 
L 2766 1759 
L 2194 1759 
z
M 3341 1997 
L 3341 0 
L 2766 0 
L 2766 531 
Q 2569 213 2275 61 
Q 1981 -91 1556 -91 
Q 1019 -91 701 211 
Q 384 513 384 1019 
Q 384 1609 779 1909 
Q 1175 2209 1959 2209 
L 2766 2209 
L 2766 2266 
Q 2766 2663 2505 2880 
Q 2244 3097 1772 3097 
Q 1472 3097 1187 3025 
Q 903 2953 641 2809 
L 641 3341 
Q 956 3463 1253 3523 
Q 1550 3584 1831 3584 
Q 2591 3584 2966 3190 
Q 3341 2797 3341 1997 
z
" transform="scale(0.015625)"/>
       <path id="DejaVuSans-6c" d="M 603 4863 
L 1178 4863 
L 1178 0 
L 603 0 
L 603 4863 
z
" transform="scale(0.015625)"/>
       <path id="DejaVuSans-20" transform="scale(0.015625)"/>
       <path id="DejaVuSans-44" d="M 1259 4147 
L 1259 519 
L 2022 519 
Q 2988 519 3436 956 
Q 3884 1394 3884 2338 
Q 3884 3275 3436 3711 
Q 2988 4147 2022 4147 
L 1259 4147 
z
M 628 4666 
L 1925 4666 
Q 3281 4666 3915 4102 
Q 4550 3538 4550 2338 
Q 4550 1131 3912 565 
Q 3275 0 1925 0 
L 628 0 
L 628 4666 
z
" transform="scale(0.015625)"/>
       <path id="DejaVuSans-79" d="M 2059 -325 
Q 1816 -950 1584 -1140 
Q 1353 -1331 966 -1331 
L 506 -1331 
L 506 -850 
L 844 -850 
Q 1081 -850 1212 -737 
Q 1344 -625 1503 -206 
L 1606 56 
L 191 3500 
L 800 3500 
L 1894 763 
L 2988 3500 
L 3597 3500 
L 2059 -325 
z
" transform="scale(0.015625)"/>
       <path id="DejaVuSans-52" d="M 2841 2188 
Q 3044 2119 3236 1894 
Q 3428 1669 3622 1275 
L 4263 0 
L 3584 0 
L 2988 1197 
Q 2756 1666 2539 1819 
Q 2322 1972 1947 1972 
L 1259 1972 
L 1259 0 
L 628 0 
L 628 4666 
L 2053 4666 
Q 2853 4666 3247 4331 
Q 3641 3997 3641 3322 
Q 3641 2881 3436 2590 
Q 3231 2300 2841 2188 
z
M 1259 4147 
L 1259 2491 
L 2053 2491 
Q 2509 2491 2742 2702 
Q 2975 2913 2975 3322 
Q 2975 3731 2742 3939 
Q 2509 4147 2053 4147 
L 1259 4147 
z
" transform="scale(0.015625)"/>
       <path id="DejaVuSans-69" d="M 603 3500 
L 1178 3500 
L 1178 0 
L 603 0 
L 603 3500 
z
M 603 4863 
L 1178 4863 
L 1178 4134 
L 603 4134 
L 603 4863 
z
" transform="scale(0.015625)"/>
       <path id="DejaVuSans-6f" d="M 1959 3097 
Q 1497 3097 1228 2736 
Q 959 2375 959 1747 
Q 959 1119 1226 758 
Q 1494 397 1959 397 
Q 2419 397 2687 759 
Q 2956 1122 2956 1747 
Q 2956 2369 2687 2733 
Q 2419 3097 1959 3097 
z
M 1959 3584 
Q 2709 3584 3137 3096 
Q 3566 2609 3566 1747 
Q 3566 888 3137 398 
Q 2709 -91 1959 -91 
Q 1206 -91 779 398 
Q 353 888 353 1747 
Q 353 2609 779 3096 
Q 1206 3584 1959 3584 
z
" transform="scale(0.015625)"/>
       <path id="DejaVuSans-28" d="M 1984 4856 
Q 1566 4138 1362 3434 
Q 1159 2731 1159 2009 
Q 1159 1288 1364 580 
Q 1569 -128 1984 -844 
L 1484 -844 
Q 1016 -109 783 600 
Q 550 1309 550 2009 
Q 550 2706 781 3412 
Q 1013 4119 1484 4856 
L 1984 4856 
z
" transform="scale(0.015625)"/>
       <path id="DejaVuSans-3b6" d="M 2231 397 
Q 2644 394 2891 159 
Q 3153 -88 3153 -463 
Q 3153 -822 2922 -1072 
Q 2672 -1344 2163 -1344 
Q 2163 -1109 2163 -872 
Q 2378 -888 2509 -750 
Q 2609 -641 2609 -525 
Q 2609 -359 2509 -222 
Q 2413 -91 2231 -91 
Q 338 -91 334 1669 
Q 334 3206 2119 4284 
L 456 4284 
L 456 4863 
L 3175 4863 
L 3175 4284 
Q 913 3147 913 1669 
Q 913 397 2231 397 
z
" transform="scale(0.015625)"/>
       <path id="DejaVuSans-29" d="M 513 4856 
L 1013 4856 
Q 1481 4119 1714 3412 
Q 1947 2706 1947 2009 
Q 1947 1309 1714 600 
Q 1481 -109 1013 -844 
L 513 -844 
Q 928 -128 1133 580 
Q 1338 1288 1338 2009 
Q 1338 2731 1133 3434 
Q 928 4138 513 4856 
z
" transform="scale(0.015625)"/>
      </defs>
      <use xlink:href="#DejaVuSans-53"/>
      <use xlink:href="#DejaVuSans-70" transform="translate(63.476562 0)"/>
      <use xlink:href="#DejaVuSans-65" transform="translate(126.953125 0)"/>
      <use xlink:href="#DejaVuSans-63" transform="translate(188.476562 0)"/>
      <use xlink:href="#DejaVuSans-74" transform="translate(243.457031 0)"/>
      <use xlink:href="#DejaVuSans-72" transform="translate(282.666016 0)"/>
      <use xlink:href="#DejaVuSans-61" transform="translate(323.779297 0)"/>
      <use xlink:href="#DejaVuSans-6c" transform="translate(385.058594 0)"/>
      <use xlink:href="#DejaVuSans-20" transform="translate(412.841797 0)"/>
      <use xlink:href="#DejaVuSans-44" transform="translate(444.628906 0)"/>
      <use xlink:href="#DejaVuSans-65" transform="translate(521.630859 0)"/>
      <use xlink:href="#DejaVuSans-63" transform="translate(583.154297 0)"/>
      <use xlink:href="#DejaVuSans-61" transform="translate(638.134766 0)"/>
      <use xlink:href="#DejaVuSans-79" transform="translate(699.414062 0)"/>
      <use xlink:href="#DejaVuSans-20" transform="translate(758.59375 0)"/>
      <use xlink:href="#DejaVuSans-52" transform="translate(790.380859 0)"/>
      <use xlink:href="#DejaVuSans-61" transform="translate(857.613281 0)"/>
      <use xlink:href="#DejaVuSans-74" transform="translate(918.892578 0)"/>
      <use xlink:href="#DejaVuSans-69" transform="translate(958.101562 0)"/>
      <use xlink:href="#DejaVuSans-6f" transform="translate(985.884766 0)"/>
      <use xlink:href="#DejaVuSans-20" transform="translate(1047.066406 0)"/>
      <use xlink:href="#DejaVuSans-28" transform="translate(1078.853516 0)"/>
      <use xlink:href="#DejaVuSans-3b6" transform="translate(1117.867188 0)"/>
      <use xlink:href="#DejaVuSans-29" transform="translate(1172.261719 0)"/>
     </g>
    </g>
   </g>
   <g id="matplotlib.axis_2">
    <g id="ytick_1">
     <g id="line2d_13">
      <path d="M 47.106563 481.4775 
L 716.706563 481.4775 
" clip-path="url(#pd5dd682a3c)" style="fill: none; stroke: #555555; stroke-opacity: 0.2; stroke-width: 0.8; stroke-linecap: square"/>
     </g>
     <g id="line2d_14">
      <defs>
       <path id="m2465a7bccb" d="M 0 0 
L -3.5 0 
" style="stroke: #cccccc; stroke-width: 0.8"/>
      </defs>
      <g>
       <use xlink:href="#m2465a7bccb" x="47.106563" y="481.4775" style="fill: #cccccc; stroke: #cccccc; stroke-width: 0.8"/>
      </g>
     </g>
     <g id="text_8">
      <!-- 0 -->
      <g style="fill: #cccccc" transform="translate(33.744062 485.276719) scale(0.1 -0.1)">
       <use xlink:href="#DejaVuSans-30"/>
      </g>
     </g>
    </g>
    <g id="ytick_2">
     <g id="line2d_15">
      <path d="M 47.106563 418.76736 
L 716.706563 418.76736 
" clip-path="url(#pd5dd682a3c)" style="fill: none; stroke: #555555; stroke-opacity: 0.2; stroke-width: 0.8; stroke-linecap: square"/>
     </g>
     <g id="line2d_16">
      <g>
       <use xlink:href="#m2465a7bccb" x="47.106563" y="418.76736" style="fill: #cccccc; stroke: #cccccc; stroke-width: 0.8"/>
      </g>
     </g>
     <g id="text_9">
      <!-- 2 -->
      <g style="fill: #cccccc" transform="translate(33.744062 422.566579) scale(0.1 -0.1)">
       <defs>
        <path id="DejaVuSans-32" d="M 1228 531 
L 3431 531 
L 3431 0 
L 469 0 
L 469 531 
Q 828 903 1448 1529 
Q 2069 2156 2228 2338 
Q 2531 2678 2651 2914 
Q 2772 3150 2772 3378 
Q 2772 3750 2511 3984 
Q 2250 4219 1831 4219 
Q 1534 4219 1204 4116 
Q 875 4013 500 3803 
L 500 4441 
Q 881 4594 1212 4672 
Q 1544 4750 1819 4750 
Q 2544 4750 2975 4387 
Q 3406 4025 3406 3419 
Q 3406 3131 3298 2873 
Q 3191 2616 2906 2266 
Q 2828 2175 2409 1742 
Q 1991 1309 1228 531 
z
" transform="scale(0.015625)"/>
       </defs>
       <use xlink:href="#DejaVuSans-32"/>
      </g>
     </g>
    </g>
    <g id="ytick_3">
     <g id="line2d_17">
      <path d="M 47.106563 356.05722 
L 716.706563 356.05722 
" clip-path="url(#pd5dd682a3c)" style="fill: none; stroke: #555555; stroke-opacity: 0.2; stroke-width: 0.8; stroke-linecap: square"/>
     </g>
     <g id="line2d_18">
      <g>
       <use xlink:href="#m2465a7bccb" x="47.106563" y="356.05722" style="fill: #cccccc; stroke: #cccccc; stroke-width: 0.8"/>
      </g>
     </g>
     <g id="text_10">
      <!-- 4 -->
      <g style="fill: #cccccc" transform="translate(33.744062 359.856439) scale(0.1 -0.1)">
       <use xlink:href="#DejaVuSans-34"/>
      </g>
     </g>
    </g>
    <g id="ytick_4">
     <g id="line2d_19">
      <path d="M 47.106563 293.34708 
L 716.706563 293.34708 
" clip-path="url(#pd5dd682a3c)" style="fill: none; stroke: #555555; stroke-opacity: 0.2; stroke-width: 0.8; stroke-linecap: square"/>
     </g>
     <g id="line2d_20">
      <g>
       <use xlink:href="#m2465a7bccb" x="47.106563" y="293.34708" style="fill: #cccccc; stroke: #cccccc; stroke-width: 0.8"/>
      </g>
     </g>
     <g id="text_11">
      <!-- 6 -->
      <g style="fill: #cccccc" transform="translate(33.744062 297.146298) scale(0.1 -0.1)">
       <defs>
        <path id="DejaVuSans-36" d="M 2113 2584 
Q 1688 2584 1439 2293 
Q 1191 2003 1191 1497 
Q 1191 994 1439 701 
Q 1688 409 2113 409 
Q 2538 409 2786 701 
Q 3034 994 3034 1497 
Q 3034 2003 2786 2293 
Q 2538 2584 2113 2584 
z
M 3366 4563 
L 3366 3988 
Q 3128 4100 2886 4159 
Q 2644 4219 2406 4219 
Q 1781 4219 1451 3797 
Q 1122 3375 1075 2522 
Q 1259 2794 1537 2939 
Q 1816 3084 2150 3084 
Q 2853 3084 3261 2657 
Q 3669 2231 3669 1497 
Q 3669 778 3244 343 
Q 2819 -91 2113 -91 
Q 1303 -91 875 529 
Q 447 1150 447 2328 
Q 447 3434 972 4092 
Q 1497 4750 2381 4750 
Q 2619 4750 2861 4703 
Q 3103 4656 3366 4563 
z
" transform="scale(0.015625)"/>
       </defs>
       <use xlink:href="#DejaVuSans-36"/>
      </g>
     </g>
    </g>
    <g id="ytick_5">
     <g id="line2d_21">
      <path d="M 47.106563 230.63694 
L 716.706563 230.63694 
" clip-path="url(#pd5dd682a3c)" style="fill: none; stroke: #555555; stroke-opacity: 0.2; stroke-width: 0.8; stroke-linecap: square"/>
     </g>
     <g id="line2d_22">
      <g>
       <use xlink:href="#m2465a7bccb" x="47.106563" y="230.63694" style="fill: #cccccc; stroke: #cccccc; stroke-width: 0.8"/>
      </g>
     </g>
     <g id="text_12">
      <!-- 8 -->
      <g style="fill: #cccccc" transform="translate(33.744062 234.436158) scale(0.1 -0.1)">
       <defs>
        <path id="DejaVuSans-38" d="M 2034 2216 
Q 1584 2216 1326 1975 
Q 1069 1734 1069 1313 
Q 1069 891 1326 650 
Q 1584 409 2034 409 
Q 2484 409 2743 651 
Q 3003 894 3003 1313 
Q 3003 1734 2745 1975 
Q 2488 2216 2034 2216 
z
M 1403 2484 
Q 997 2584 770 2862 
Q 544 3141 544 3541 
Q 544 4100 942 4425 
Q 1341 4750 2034 4750 
Q 2731 4750 3128 4425 
Q 3525 4100 3525 3541 
Q 3525 3141 3298 2862 
Q 3072 2584 2669 2484 
Q 3125 2378 3379 2068 
Q 3634 1759 3634 1313 
Q 3634 634 3220 271 
Q 2806 -91 2034 -91 
Q 1263 -91 848 271 
Q 434 634 434 1313 
Q 434 1759 690 2068 
Q 947 2378 1403 2484 
z
M 1172 3481 
Q 1172 3119 1398 2916 
Q 1625 2713 2034 2713 
Q 2441 2713 2670 2916 
Q 2900 3119 2900 3481 
Q 2900 3844 2670 4047 
Q 2441 4250 2034 4250 
Q 1625 4250 1398 4047 
Q 1172 3844 1172 3481 
z
" transform="scale(0.015625)"/>
       </defs>
       <use xlink:href="#DejaVuSans-38"/>
      </g>
     </g>
    </g>
    <g id="ytick_6">
     <g id="line2d_23">
      <path d="M 47.106563 167.926799 
L 716.706563 167.926799 
" clip-path="url(#pd5dd682a3c)" style="fill: none; stroke: #555555; stroke-opacity: 0.2; stroke-width: 0.8; stroke-linecap: square"/>
     </g>
     <g id="line2d_24">
      <g>
       <use xlink:href="#m2465a7bccb" x="47.106563" y="167.926799" style="fill: #cccccc; stroke: #cccccc; stroke-width: 0.8"/>
      </g>
     </g>
     <g id="text_13">
      <!-- 10 -->
      <g style="fill: #cccccc" transform="translate(27.381563 171.726018) scale(0.1 -0.1)">
       <defs>
        <path id="DejaVuSans-31" d="M 794 531 
L 1825 531 
L 1825 4091 
L 703 3866 
L 703 4441 
L 1819 4666 
L 2450 4666 
L 2450 531 
L 3481 531 
L 3481 0 
L 794 0 
L 794 531 
z
" transform="scale(0.015625)"/>
       </defs>
       <use xlink:href="#DejaVuSans-31"/>
       <use xlink:href="#DejaVuSans-30" transform="translate(63.623047 0)"/>
      </g>
     </g>
    </g>
    <g id="ytick_7">
     <g id="line2d_25">
      <path d="M 47.106563 105.216659 
L 716.706563 105.216659 
" clip-path="url(#pd5dd682a3c)" style="fill: none; stroke: #555555; stroke-opacity: 0.2; stroke-width: 0.8; stroke-linecap: square"/>
     </g>
     <g id="line2d_26">
      <g>
       <use xlink:href="#m2465a7bccb" x="47.106563" y="105.216659" style="fill: #cccccc; stroke: #cccccc; stroke-width: 0.8"/>
      </g>
     </g>
     <g id="text_14">
      <!-- 12 -->
      <g style="fill: #cccccc" transform="translate(27.381563 109.015878) scale(0.1 -0.1)">
       <use xlink:href="#DejaVuSans-31"/>
       <use xlink:href="#DejaVuSans-32" transform="translate(63.623047 0)"/>
      </g>
     </g>
    </g>
    <g id="ytick_8">
     <g id="line2d_27">
      <path d="M 47.106563 42.506519 
L 716.706563 42.506519 
" clip-path="url(#pd5dd682a3c)" style="fill: none; stroke: #555555; stroke-opacity: 0.2; stroke-width: 0.8; stroke-linecap: square"/>
     </g>
     <g id="line2d_28">
      <g>
       <use xlink:href="#m2465a7bccb" x="47.106563" y="42.506519" style="fill: #cccccc; stroke: #cccccc; stroke-width: 0.8"/>
      </g>
     </g>
     <g id="text_15">
      <!-- 14 -->
      <g style="fill: #cccccc" transform="translate(27.381563 46.305738) scale(0.1 -0.1)">
       <use xlink:href="#DejaVuSans-31"/>
       <use xlink:href="#DejaVuSans-34" transform="translate(63.623047 0)"/>
      </g>
     </g>
    </g>
    <g id="text_16">
     <!-- Density -->
     <g style="fill: #e0e0e0" transform="translate(20.677969 284.428672) rotate(-90) scale(0.13 -0.13)">
      <defs>
       <path id="DejaVuSans-6e" d="M 3513 2113 
L 3513 0 
L 2938 0 
L 2938 2094 
Q 2938 2591 2744 2837 
Q 2550 3084 2163 3084 
Q 1697 3084 1428 2787 
Q 1159 2491 1159 1978 
L 1159 0 
L 581 0 
L 581 3500 
L 1159 3500 
L 1159 2956 
Q 1366 3272 1645 3428 
Q 1925 3584 2291 3584 
Q 2894 3584 3203 3211 
Q 3513 2838 3513 2113 
z
" transform="scale(0.015625)"/>
       <path id="DejaVuSans-73" d="M 2834 3397 
L 2834 2853 
Q 2591 2978 2328 3040 
Q 2066 3103 1784 3103 
Q 1356 3103 1142 2972 
Q 928 2841 928 2578 
Q 928 2378 1081 2264 
Q 1234 2150 1697 2047 
L 1894 2003 
Q 2506 1872 2764 1633 
Q 3022 1394 3022 966 
Q 3022 478 2636 193 
Q 2250 -91 1575 -91 
Q 1294 -91 989 -36 
Q 684 19 347 128 
L 347 722 
Q 666 556 975 473 
Q 1284 391 1588 391 
Q 1994 391 2212 530 
Q 2431 669 2431 922 
Q 2431 1156 2273 1281 
Q 2116 1406 1581 1522 
L 1381 1569 
Q 847 1681 609 1914 
Q 372 2147 372 2553 
Q 372 3047 722 3315 
Q 1072 3584 1716 3584 
Q 2034 3584 2315 3537 
Q 2597 3491 2834 3397 
z
" transform="scale(0.015625)"/>
      </defs>
      <use xlink:href="#DejaVuSans-44"/>
      <use xlink:href="#DejaVuSans-65" transform="translate(77.001953 0)"/>
      <use xlink:href="#DejaVuSans-6e" transform="translate(138.525391 0)"/>
      <use xlink:href="#DejaVuSans-73" transform="translate(201.904297 0)"/>
      <use xlink:href="#DejaVuSans-69" transform="translate(254.003906 0)"/>
      <use xlink:href="#DejaVuSans-74" transform="translate(281.787109 0)"/>
      <use xlink:href="#DejaVuSans-79" transform="translate(320.996094 0)"/>
     </g>
    </g>
   </g>
   <g id="patch_5">
    <path d="M 47.106563 481.4775 
L 47.106563 37.9575 
" style="fill: none; stroke: #444444; stroke-width: 0.8; stroke-linejoin: miter; stroke-linecap: square"/>
   </g>
   <g id="patch_6">
    <path d="M 716.706563 481.4775 
L 716.706563 37.9575 
" style="fill: none; stroke: #444444; stroke-width: 0.8; stroke-linejoin: miter; stroke-linecap: square"/>
   </g>
   <g id="patch_7">
    <path d="M 47.106562 481.4775 
L 716.706562 481.4775 
" style="fill: none; stroke: #444444; stroke-width: 0.8; stroke-linejoin: miter; stroke-linecap: square"/>
   </g>
   <g id="patch_8">
    <path d="M 47.106562 37.9575 
L 716.706562 37.9575 
" style="fill: none; stroke: #444444; stroke-width: 0.8; stroke-linejoin: miter; stroke-linecap: square"/>
   </g>
   <g id="patch_9">
    <path d="M 105.149605 481.4775 
L 116.417637 481.4775 
L 116.417637 481.4775 
L 105.149605 481.4775 
z
" clip-path="url(#pd5dd682a3c)" style="fill: #4ecdc4; opacity: 0.55; stroke: #ffffff; stroke-width: 0.5; stroke-linejoin: miter"/>
   </g>
   <g id="patch_10">
    <path d="M 116.417637 481.4775 
L 127.68567 481.4775 
L 127.68567 481.4775 
L 116.417637 481.4775 
z
" clip-path="url(#pd5dd682a3c)" style="fill: #4ecdc4; opacity: 0.55; stroke: #ffffff; stroke-width: 0.5; stroke-linejoin: miter"/>
   </g>
   <g id="patch_11">
    <path d="M 127.68567 481.4775 
L 138.953702 481.4775 
L 138.953702 481.4775 
L 127.68567 481.4775 
z
" clip-path="url(#pd5dd682a3c)" style="fill: #4ecdc4; opacity: 0.55; stroke: #ffffff; stroke-width: 0.5; stroke-linejoin: miter"/>
   </g>
   <g id="patch_12">
    <path d="M 138.953702 481.4775 
L 150.221734 481.4775 
L 150.221734 481.4775 
L 138.953702 481.4775 
z
" clip-path="url(#pd5dd682a3c)" style="fill: #4ecdc4; opacity: 0.55; stroke: #ffffff; stroke-width: 0.5; stroke-linejoin: miter"/>
   </g>
   <g id="patch_13">
    <path d="M 150.221734 481.4775 
L 161.489766 481.4775 
L 161.489766 481.4775 
L 150.221734 481.4775 
z
" clip-path="url(#pd5dd682a3c)" style="fill: #4ecdc4; opacity: 0.55; stroke: #ffffff; stroke-width: 0.5; stroke-linejoin: miter"/>
   </g>
   <g id="patch_14">
    <path d="M 161.489766 481.4775 
L 172.757799 481.4775 
L 172.757799 481.4775 
L 161.489766 481.4775 
z
" clip-path="url(#pd5dd682a3c)" style="fill: #4ecdc4; opacity: 0.55; stroke: #ffffff; stroke-width: 0.5; stroke-linejoin: miter"/>
   </g>
   <g id="patch_15">
    <path d="M 172.757799 481.4775 
L 184.025831 481.4775 
L 184.025831 481.4775 
L 172.757799 481.4775 
z
" clip-path="url(#pd5dd682a3c)" style="fill: #4ecdc4; opacity: 0.55; stroke: #ffffff; stroke-width: 0.5; stroke-linejoin: miter"/>
   </g>
   <g id="patch_16">
    <path d="M 184.025831 481.4775 
L 195.293863 481.4775 
L 195.293863 481.4775 
L 184.025831 481.4775 
z
" clip-path="url(#pd5dd682a3c)" style="fill: #4ecdc4; opacity: 0.55; stroke: #ffffff; stroke-width: 0.5; stroke-linejoin: miter"/>
   </g>
   <g id="patch_17">
    <path d="M 195.293863 481.4775 
L 206.561896 481.4775 
L 206.561896 459.245921 
L 195.293863 459.245921 
z
" clip-path="url(#pd5dd682a3c)" style="fill: #4ecdc4; opacity: 0.55; stroke: #ffffff; stroke-width: 0.5; stroke-linejoin: miter"/>
   </g>
   <g id="patch_18">
    <path d="M 206.561896 481.4775 
L 217.829928 481.4775 
L 217.829928 459.245921 
L 206.561896 459.245921 
z
" clip-path="url(#pd5dd682a3c)" style="fill: #4ecdc4; opacity: 0.55; stroke: #ffffff; stroke-width: 0.5; stroke-linejoin: miter"/>
   </g>
   <g id="patch_19">
    <path d="M 217.829928 481.4775 
L 229.09796 481.4775 
L 229.09796 459.245921 
L 217.829928 459.245921 
z
" clip-path="url(#pd5dd682a3c)" style="fill: #4ecdc4; opacity: 0.55; stroke: #ffffff; stroke-width: 0.5; stroke-linejoin: miter"/>
   </g>
   <g id="patch_20">
    <path d="M 229.09796 481.4775 
L 240.365992 481.4775 
L 240.365992 459.245921 
L 229.09796 459.245921 
z
" clip-path="url(#pd5dd682a3c)" style="fill: #4ecdc4; opacity: 0.55; stroke: #ffffff; stroke-width: 0.5; stroke-linejoin: miter"/>
   </g>
   <g id="patch_21">
    <path d="M 240.365992 481.4775 
L 251.634025 481.4775 
L 251.634025 459.245921 
L 240.365992 459.245921 
z
" clip-path="url(#pd5dd682a3c)" style="fill: #4ecdc4; opacity: 0.55; stroke: #ffffff; stroke-width: 0.5; stroke-linejoin: miter"/>
   </g>
   <g id="patch_22">
    <path d="M 251.634025 481.4775 
L 262.902057 481.4775 
L 262.902057 481.4775 
L 251.634025 481.4775 
z
" clip-path="url(#pd5dd682a3c)" style="fill: #4ecdc4; opacity: 0.55; stroke: #ffffff; stroke-width: 0.5; stroke-linejoin: miter"/>
   </g>
   <g id="patch_23">
    <path d="M 262.902057 481.4775 
L 274.170089 481.4775 
L 274.170089 481.4775 
L 262.902057 481.4775 
z
" clip-path="url(#pd5dd682a3c)" style="fill: #4ecdc4; opacity: 0.55; stroke: #ffffff; stroke-width: 0.5; stroke-linejoin: miter"/>
   </g>
   <g id="patch_24">
    <path d="M 274.170089 481.4775 
L 285.438121 481.4775 
L 285.438121 459.245921 
L 274.170089 459.245921 
z
" clip-path="url(#pd5dd682a3c)" style="fill: #4ecdc4; opacity: 0.55; stroke: #ffffff; stroke-width: 0.5; stroke-linejoin: miter"/>
   </g>
   <g id="patch_25">
    <path d="M 285.438121 481.4775 
L 296.706154 481.4775 
L 296.706154 481.4775 
L 285.438121 481.4775 
z
" clip-path="url(#pd5dd682a3c)" style="fill: #4ecdc4; opacity: 0.55; stroke: #ffffff; stroke-width: 0.5; stroke-linejoin: miter"/>
   </g>
   <g id="patch_26">
    <path d="M 296.706154 481.4775 
L 307.974186 481.4775 
L 307.974186 459.245921 
L 296.706154 459.245921 
z
" clip-path="url(#pd5dd682a3c)" style="fill: #4ecdc4; opacity: 0.55; stroke: #ffffff; stroke-width: 0.5; stroke-linejoin: miter"/>
   </g>
   <g id="patch_27">
    <path d="M 307.974186 481.4775 
L 319.242218 481.4775 
L 319.242218 414.782763 
L 307.974186 414.782763 
z
" clip-path="url(#pd5dd682a3c)" style="fill: #4ecdc4; opacity: 0.55; stroke: #ffffff; stroke-width: 0.5; stroke-linejoin: miter"/>
   </g>
   <g id="patch_28">
    <path d="M 319.242218 481.4775 
L 330.51025 481.4775 
L 330.51025 481.4775 
L 319.242218 481.4775 
z
" clip-path="url(#pd5dd682a3c)" style="fill: #4ecdc4; opacity: 0.55; stroke: #ffffff; stroke-width: 0.5; stroke-linejoin: miter"/>
   </g>
   <g id="patch_29">
    <path d="M 330.51025 481.4775 
L 341.778283 481.4775 
L 341.778283 437.014342 
L 330.51025 437.014342 
z
" clip-path="url(#pd5dd682a3c)" style="fill: #4ecdc4; opacity: 0.55; stroke: #ffffff; stroke-width: 0.5; stroke-linejoin: miter"/>
   </g>
   <g id="patch_30">
    <path d="M 341.778283 481.4775 
L 353.046315 481.4775 
L 353.046315 459.245921 
L 341.778283 459.245921 
z
" clip-path="url(#pd5dd682a3c)" style="fill: #4ecdc4; opacity: 0.55; stroke: #ffffff; stroke-width: 0.5; stroke-linejoin: miter"/>
   </g>
   <g id="patch_31">
    <path d="M 353.046315 481.4775 
L 364.314347 481.4775 
L 364.314347 437.014342 
L 353.046315 437.014342 
z
" clip-path="url(#pd5dd682a3c)" style="fill: #4ecdc4; opacity: 0.55; stroke: #ffffff; stroke-width: 0.5; stroke-linejoin: miter"/>
   </g>
   <g id="patch_32">
    <path d="M 364.314347 481.4775 
L 375.582379 481.4775 
L 375.582379 414.782763 
L 364.314347 414.782763 
z
" clip-path="url(#pd5dd682a3c)" style="fill: #4ecdc4; opacity: 0.55; stroke: #ffffff; stroke-width: 0.5; stroke-linejoin: miter"/>
   </g>
   <g id="patch_33">
    <path d="M 375.582379 481.4775 
L 386.850412 481.4775 
L 386.850412 459.245921 
L 375.582379 459.245921 
z
" clip-path="url(#pd5dd682a3c)" style="fill: #4ecdc4; opacity: 0.55; stroke: #ffffff; stroke-width: 0.5; stroke-linejoin: miter"/>
   </g>
   <g id="patch_34">
    <path d="M 386.850412 481.4775 
L 398.118444 481.4775 
L 398.118444 437.014342 
L 386.850412 437.014342 
z
" clip-path="url(#pd5dd682a3c)" style="fill: #4ecdc4; opacity: 0.55; stroke: #ffffff; stroke-width: 0.5; stroke-linejoin: miter"/>
   </g>
   <g id="patch_35">
    <path d="M 398.118444 481.4775 
L 409.386476 481.4775 
L 409.386476 437.014342 
L 398.118444 437.014342 
z
" clip-path="url(#pd5dd682a3c)" style="fill: #4ecdc4; opacity: 0.55; stroke: #ffffff; stroke-width: 0.5; stroke-linejoin: miter"/>
   </g>
   <g id="patch_36">
    <path d="M 409.386476 481.4775 
L 420.654508 481.4775 
L 420.654508 437.014342 
L 409.386476 437.014342 
z
" clip-path="url(#pd5dd682a3c)" style="fill: #4ecdc4; opacity: 0.55; stroke: #ffffff; stroke-width: 0.5; stroke-linejoin: miter"/>
   </g>
   <g id="patch_37">
    <path d="M 420.654508 481.4775 
L 431.922541 481.4775 
L 431.922541 481.4775 
L 420.654508 481.4775 
z
" clip-path="url(#pd5dd682a3c)" style="fill: #4ecdc4; opacity: 0.55; stroke: #ffffff; stroke-width: 0.5; stroke-linejoin: miter"/>
   </g>
   <g id="patch_38">
    <path d="M 431.922541 481.4775 
L 443.190573 481.4775 
L 443.190573 481.4775 
L 431.922541 481.4775 
z
" clip-path="url(#pd5dd682a3c)" style="fill: #4ecdc4; opacity: 0.55; stroke: #ffffff; stroke-width: 0.5; stroke-linejoin: miter"/>
   </g>
   <g id="patch_39">
    <path d="M 443.190573 481.4775 
L 454.458605 481.4775 
L 454.458605 437.014342 
L 443.190573 437.014342 
z
" clip-path="url(#pd5dd682a3c)" style="fill: #4ecdc4; opacity: 0.55; stroke: #ffffff; stroke-width: 0.5; stroke-linejoin: miter"/>
   </g>
   <g id="patch_40">
    <path d="M 454.458605 481.4775 
L 465.726637 481.4775 
L 465.726637 459.245921 
L 454.458605 459.245921 
z
" clip-path="url(#pd5dd682a3c)" style="fill: #4ecdc4; opacity: 0.55; stroke: #ffffff; stroke-width: 0.5; stroke-linejoin: miter"/>
   </g>
   <g id="patch_41">
    <path d="M 465.726637 481.4775 
L 476.99467 481.4775 
L 476.99467 481.4775 
L 465.726637 481.4775 
z
" clip-path="url(#pd5dd682a3c)" style="fill: #4ecdc4; opacity: 0.55; stroke: #ffffff; stroke-width: 0.5; stroke-linejoin: miter"/>
   </g>
   <g id="patch_42">
    <path d="M 476.99467 481.4775 
L 488.262702 481.4775 
L 488.262702 459.245921 
L 476.99467 459.245921 
z
" clip-path="url(#pd5dd682a3c)" style="fill: #4ecdc4; opacity: 0.55; stroke: #ffffff; stroke-width: 0.5; stroke-linejoin: miter"/>
   </g>
   <g id="patch_43">
    <path d="M 488.262702 481.4775 
L 499.530734 481.4775 
L 499.530734 481.4775 
L 488.262702 481.4775 
z
" clip-path="url(#pd5dd682a3c)" style="fill: #4ecdc4; opacity: 0.55; stroke: #ffffff; stroke-width: 0.5; stroke-linejoin: miter"/>
   </g>
   <g id="patch_44">
    <path d="M 499.530734 481.4775 
L 510.798767 481.4775 
L 510.798767 459.245921 
L 499.530734 459.245921 
z
" clip-path="url(#pd5dd682a3c)" style="fill: #4ecdc4; opacity: 0.55; stroke: #ffffff; stroke-width: 0.5; stroke-linejoin: miter"/>
   </g>
   <g id="patch_45">
    <path d="M 510.798767 481.4775 
L 522.066799 481.4775 
L 522.066799 459.245921 
L 510.798767 459.245921 
z
" clip-path="url(#pd5dd682a3c)" style="fill: #4ecdc4; opacity: 0.55; stroke: #ffffff; stroke-width: 0.5; stroke-linejoin: miter"/>
   </g>
   <g id="patch_46">
    <path d="M 522.066799 481.4775 
L 533.334831 481.4775 
L 533.334831 459.245921 
L 522.066799 459.245921 
z
" clip-path="url(#pd5dd682a3c)" style="fill: #4ecdc4; opacity: 0.55; stroke: #ffffff; stroke-width: 0.5; stroke-linejoin: miter"/>
   </g>
   <g id="patch_47">
    <path d="M 533.334831 481.4775 
L 544.602863 481.4775 
L 544.602863 481.4775 
L 533.334831 481.4775 
z
" clip-path="url(#pd5dd682a3c)" style="fill: #4ecdc4; opacity: 0.55; stroke: #ffffff; stroke-width: 0.5; stroke-linejoin: miter"/>
   </g>
   <g id="patch_48">
    <path d="M 544.602863 481.4775 
L 555.870896 481.4775 
L 555.870896 481.4775 
L 544.602863 481.4775 
z
" clip-path="url(#pd5dd682a3c)" style="fill: #4ecdc4; opacity: 0.55; stroke: #ffffff; stroke-width: 0.5; stroke-linejoin: miter"/>
   </g>
   <g id="patch_49">
    <path d="M 555.870896 481.4775 
L 567.138928 481.4775 
L 567.138928 481.4775 
L 555.870896 481.4775 
z
" clip-path="url(#pd5dd682a3c)" style="fill: #4ecdc4; opacity: 0.55; stroke: #ffffff; stroke-width: 0.5; stroke-linejoin: miter"/>
   </g>
   <g id="patch_50">
    <path d="M 567.138928 481.4775 
L 578.40696 481.4775 
L 578.40696 481.4775 
L 567.138928 481.4775 
z
" clip-path="url(#pd5dd682a3c)" style="fill: #4ecdc4; opacity: 0.55; stroke: #ffffff; stroke-width: 0.5; stroke-linejoin: miter"/>
   </g>
   <g id="patch_51">
    <path d="M 578.40696 481.4775 
L 589.674992 481.4775 
L 589.674992 481.4775 
L 578.40696 481.4775 
z
" clip-path="url(#pd5dd682a3c)" style="fill: #4ecdc4; opacity: 0.55; stroke: #ffffff; stroke-width: 0.5; stroke-linejoin: miter"/>
   </g>
   <g id="patch_52">
    <path d="M 589.674992 481.4775 
L 600.943025 481.4775 
L 600.943025 481.4775 
L 589.674992 481.4775 
z
" clip-path="url(#pd5dd682a3c)" style="fill: #4ecdc4; opacity: 0.55; stroke: #ffffff; stroke-width: 0.5; stroke-linejoin: miter"/>
   </g>
   <g id="patch_53">
    <path d="M 600.943025 481.4775 
L 612.211057 481.4775 
L 612.211057 481.4775 
L 600.943025 481.4775 
z
" clip-path="url(#pd5dd682a3c)" style="fill: #4ecdc4; opacity: 0.55; stroke: #ffffff; stroke-width: 0.5; stroke-linejoin: miter"/>
   </g>
   <g id="patch_54">
    <path d="M 612.211057 481.4775 
L 623.479089 481.4775 
L 623.479089 481.4775 
L 612.211057 481.4775 
z
" clip-path="url(#pd5dd682a3c)" style="fill: #4ecdc4; opacity: 0.55; stroke: #ffffff; stroke-width: 0.5; stroke-linejoin: miter"/>
   </g>
   <g id="patch_55">
    <path d="M 623.479089 481.4775 
L 634.747121 481.4775 
L 634.747121 481.4775 
L 623.479089 481.4775 
z
" clip-path="url(#pd5dd682a3c)" style="fill: #4ecdc4; opacity: 0.55; stroke: #ffffff; stroke-width: 0.5; stroke-linejoin: miter"/>
   </g>
   <g id="patch_56">
    <path d="M 634.747121 481.4775 
L 646.015154 481.4775 
L 646.015154 481.4775 
L 634.747121 481.4775 
z
" clip-path="url(#pd5dd682a3c)" style="fill: #4ecdc4; opacity: 0.55; stroke: #ffffff; stroke-width: 0.5; stroke-linejoin: miter"/>
   </g>
   <g id="patch_57">
    <path d="M 646.015154 481.4775 
L 657.283186 481.4775 
L 657.283186 481.4775 
L 646.015154 481.4775 
z
" clip-path="url(#pd5dd682a3c)" style="fill: #4ecdc4; opacity: 0.55; stroke: #ffffff; stroke-width: 0.5; stroke-linejoin: miter"/>
   </g>
   <g id="patch_58">
    <path d="M 105.149605 481.4775 
L 116.417637 481.4775 
L 116.417637 481.4775 
L 105.149605 481.4775 
z
" clip-path="url(#pd5dd682a3c)" style="fill: #ff6b6b; opacity: 0.55; stroke: #ffffff; stroke-width: 0.5; stroke-linejoin: miter"/>
   </g>
   <g id="patch_59">
    <path d="M 116.417637 481.4775 
L 127.68567 481.4775 
L 127.68567 481.4775 
L 116.417637 481.4775 
z
" clip-path="url(#pd5dd682a3c)" style="fill: #ff6b6b; opacity: 0.55; stroke: #ffffff; stroke-width: 0.5; stroke-linejoin: miter"/>
   </g>
   <g id="patch_60">
    <path d="M 127.68567 481.4775 
L 138.953702 481.4775 
L 138.953702 481.4775 
L 127.68567 481.4775 
z
" clip-path="url(#pd5dd682a3c)" style="fill: #ff6b6b; opacity: 0.55; stroke: #ffffff; stroke-width: 0.5; stroke-linejoin: miter"/>
   </g>
   <g id="patch_61">
    <path d="M 138.953702 481.4775 
L 150.221734 481.4775 
L 150.221734 481.4775 
L 138.953702 481.4775 
z
" clip-path="url(#pd5dd682a3c)" style="fill: #ff6b6b; opacity: 0.55; stroke: #ffffff; stroke-width: 0.5; stroke-linejoin: miter"/>
   </g>
   <g id="patch_62">
    <path d="M 150.221734 481.4775 
L 161.489766 481.4775 
L 161.489766 481.4775 
L 150.221734 481.4775 
z
" clip-path="url(#pd5dd682a3c)" style="fill: #ff6b6b; opacity: 0.55; stroke: #ffffff; stroke-width: 0.5; stroke-linejoin: miter"/>
   </g>
   <g id="patch_63">
    <path d="M 161.489766 481.4775 
L 172.757799 481.4775 
L 172.757799 481.4775 
L 161.489766 481.4775 
z
" clip-path="url(#pd5dd682a3c)" style="fill: #ff6b6b; opacity: 0.55; stroke: #ffffff; stroke-width: 0.5; stroke-linejoin: miter"/>
   </g>
   <g id="patch_64">
    <path d="M 172.757799 481.4775 
L 184.025831 481.4775 
L 184.025831 481.4775 
L 172.757799 481.4775 
z
" clip-path="url(#pd5dd682a3c)" style="fill: #ff6b6b; opacity: 0.55; stroke: #ffffff; stroke-width: 0.5; stroke-linejoin: miter"/>
   </g>
   <g id="patch_65">
    <path d="M 184.025831 481.4775 
L 195.293863 481.4775 
L 195.293863 481.4775 
L 184.025831 481.4775 
z
" clip-path="url(#pd5dd682a3c)" style="fill: #ff6b6b; opacity: 0.55; stroke: #ffffff; stroke-width: 0.5; stroke-linejoin: miter"/>
   </g>
   <g id="patch_66">
    <path d="M 195.293863 481.4775 
L 206.561896 481.4775 
L 206.561896 481.4775 
L 195.293863 481.4775 
z
" clip-path="url(#pd5dd682a3c)" style="fill: #ff6b6b; opacity: 0.55; stroke: #ffffff; stroke-width: 0.5; stroke-linejoin: miter"/>
   </g>
   <g id="patch_67">
    <path d="M 206.561896 481.4775 
L 217.829928 481.4775 
L 217.829928 481.4775 
L 206.561896 481.4775 
z
" clip-path="url(#pd5dd682a3c)" style="fill: #ff6b6b; opacity: 0.55; stroke: #ffffff; stroke-width: 0.5; stroke-linejoin: miter"/>
   </g>
   <g id="patch_68">
    <path d="M 217.829928 481.4775 
L 229.09796 481.4775 
L 229.09796 481.4775 
L 217.829928 481.4775 
z
" clip-path="url(#pd5dd682a3c)" style="fill: #ff6b6b; opacity: 0.55; stroke: #ffffff; stroke-width: 0.5; stroke-linejoin: miter"/>
   </g>
   <g id="patch_69">
    <path d="M 229.09796 481.4775 
L 240.365992 481.4775 
L 240.365992 481.4775 
L 229.09796 481.4775 
z
" clip-path="url(#pd5dd682a3c)" style="fill: #ff6b6b; opacity: 0.55; stroke: #ffffff; stroke-width: 0.5; stroke-linejoin: miter"/>
   </g>
   <g id="patch_70">
    <path d="M 240.365992 481.4775 
L 251.634025 481.4775 
L 251.634025 481.4775 
L 240.365992 481.4775 
z
" clip-path="url(#pd5dd682a3c)" style="fill: #ff6b6b; opacity: 0.55; stroke: #ffffff; stroke-width: 0.5; stroke-linejoin: miter"/>
   </g>
   <g id="patch_71">
    <path d="M 251.634025 481.4775 
L 262.902057 481.4775 
L 262.902057 481.4775 
L 251.634025 481.4775 
z
" clip-path="url(#pd5dd682a3c)" style="fill: #ff6b6b; opacity: 0.55; stroke: #ffffff; stroke-width: 0.5; stroke-linejoin: miter"/>
   </g>
   <g id="patch_72">
    <path d="M 262.902057 481.4775 
L 274.170089 481.4775 
L 274.170089 481.4775 
L 262.902057 481.4775 
z
" clip-path="url(#pd5dd682a3c)" style="fill: #ff6b6b; opacity: 0.55; stroke: #ffffff; stroke-width: 0.5; stroke-linejoin: miter"/>
   </g>
   <g id="patch_73">
    <path d="M 274.170089 481.4775 
L 285.438121 481.4775 
L 285.438121 481.4775 
L 274.170089 481.4775 
z
" clip-path="url(#pd5dd682a3c)" style="fill: #ff6b6b; opacity: 0.55; stroke: #ffffff; stroke-width: 0.5; stroke-linejoin: miter"/>
   </g>
   <g id="patch_74">
    <path d="M 285.438121 481.4775 
L 296.706154 481.4775 
L 296.706154 481.4775 
L 285.438121 481.4775 
z
" clip-path="url(#pd5dd682a3c)" style="fill: #ff6b6b; opacity: 0.55; stroke: #ffffff; stroke-width: 0.5; stroke-linejoin: miter"/>
   </g>
   <g id="patch_75">
    <path d="M 296.706154 481.4775 
L 307.974186 481.4775 
L 307.974186 481.4775 
L 296.706154 481.4775 
z
" clip-path="url(#pd5dd682a3c)" style="fill: #ff6b6b; opacity: 0.55; stroke: #ffffff; stroke-width: 0.5; stroke-linejoin: miter"/>
   </g>
   <g id="patch_76">
    <path d="M 307.974186 481.4775 
L 319.242218 481.4775 
L 319.242218 348.088026 
L 307.974186 348.088026 
z
" clip-path="url(#pd5dd682a3c)" style="fill: #ff6b6b; opacity: 0.55; stroke: #ffffff; stroke-width: 0.5; stroke-linejoin: miter"/>
   </g>
   <g id="patch_77">
    <path d="M 319.242218 481.4775 
L 330.51025 481.4775 
L 330.51025 59.0775 
L 319.242218 59.0775 
z
" clip-path="url(#pd5dd682a3c)" style="fill: #ff6b6b; opacity: 0.55; stroke: #ffffff; stroke-width: 0.5; stroke-linejoin: miter"/>
   </g>
   <g id="patch_78">
    <path d="M 330.51025 481.4775 
L 341.778283 481.4775 
L 341.778283 325.856447 
L 330.51025 325.856447 
z
" clip-path="url(#pd5dd682a3c)" style="fill: #ff6b6b; opacity: 0.55; stroke: #ffffff; stroke-width: 0.5; stroke-linejoin: miter"/>
   </g>
   <g id="patch_79">
    <path d="M 341.778283 481.4775 
L 353.046315 481.4775 
L 353.046315 481.4775 
L 341.778283 481.4775 
z
" clip-path="url(#pd5dd682a3c)" style="fill: #ff6b6b; opacity: 0.55; stroke: #ffffff; stroke-width: 0.5; stroke-linejoin: miter"/>
   </g>
   <g id="patch_80">
    <path d="M 353.046315 481.4775 
L 364.314347 481.4775 
L 364.314347 481.4775 
L 353.046315 481.4775 
z
" clip-path="url(#pd5dd682a3c)" style="fill: #ff6b6b; opacity: 0.55; stroke: #ffffff; stroke-width: 0.5; stroke-linejoin: miter"/>
   </g>
   <g id="patch_81">
    <path d="M 364.314347 481.4775 
L 375.582379 481.4775 
L 375.582379 481.4775 
L 364.314347 481.4775 
z
" clip-path="url(#pd5dd682a3c)" style="fill: #ff6b6b; opacity: 0.55; stroke: #ffffff; stroke-width: 0.5; stroke-linejoin: miter"/>
   </g>
   <g id="patch_82">
    <path d="M 375.582379 481.4775 
L 386.850412 481.4775 
L 386.850412 481.4775 
L 375.582379 481.4775 
z
" clip-path="url(#pd5dd682a3c)" style="fill: #ff6b6b; opacity: 0.55; stroke: #ffffff; stroke-width: 0.5; stroke-linejoin: miter"/>
   </g>
   <g id="patch_83">
    <path d="M 386.850412 481.4775 
L 398.118444 481.4775 
L 398.118444 481.4775 
L 386.850412 481.4775 
z
" clip-path="url(#pd5dd682a3c)" style="fill: #ff6b6b; opacity: 0.55; stroke: #ffffff; stroke-width: 0.5; stroke-linejoin: miter"/>
   </g>
   <g id="patch_84">
    <path d="M 398.118444 481.4775 
L 409.386476 481.4775 
L 409.386476 481.4775 
L 398.118444 481.4775 
z
" clip-path="url(#pd5dd682a3c)" style="fill: #ff6b6b; opacity: 0.55; stroke: #ffffff; stroke-width: 0.5; stroke-linejoin: miter"/>
   </g>
   <g id="patch_85">
    <path d="M 409.386476 481.4775 
L 420.654508 481.4775 
L 420.654508 481.4775 
L 409.386476 481.4775 
z
" clip-path="url(#pd5dd682a3c)" style="fill: #ff6b6b; opacity: 0.55; stroke: #ffffff; stroke-width: 0.5; stroke-linejoin: miter"/>
   </g>
   <g id="patch_86">
    <path d="M 420.654508 481.4775 
L 431.922541 481.4775 
L 431.922541 481.4775 
L 420.654508 481.4775 
z
" clip-path="url(#pd5dd682a3c)" style="fill: #ff6b6b; opacity: 0.55; stroke: #ffffff; stroke-width: 0.5; stroke-linejoin: miter"/>
   </g>
   <g id="patch_87">
    <path d="M 431.922541 481.4775 
L 443.190573 481.4775 
L 443.190573 481.4775 
L 431.922541 481.4775 
z
" clip-path="url(#pd5dd682a3c)" style="fill: #ff6b6b; opacity: 0.55; stroke: #ffffff; stroke-width: 0.5; stroke-linejoin: miter"/>
   </g>
   <g id="patch_88">
    <path d="M 443.190573 481.4775 
L 454.458605 481.4775 
L 454.458605 481.4775 
L 443.190573 481.4775 
z
" clip-path="url(#pd5dd682a3c)" style="fill: #ff6b6b; opacity: 0.55; stroke: #ffffff; stroke-width: 0.5; stroke-linejoin: miter"/>
   </g>
   <g id="patch_89">
    <path d="M 454.458605 481.4775 
L 465.726637 481.4775 
L 465.726637 481.4775 
L 454.458605 481.4775 
z
" clip-path="url(#pd5dd682a3c)" style="fill: #ff6b6b; opacity: 0.55; stroke: #ffffff; stroke-width: 0.5; stroke-linejoin: miter"/>
   </g>
   <g id="patch_90">
    <path d="M 465.726637 481.4775 
L 476.99467 481.4775 
L 476.99467 481.4775 
L 465.726637 481.4775 
z
" clip-path="url(#pd5dd682a3c)" style="fill: #ff6b6b; opacity: 0.55; stroke: #ffffff; stroke-width: 0.5; stroke-linejoin: miter"/>
   </g>
   <g id="patch_91">
    <path d="M 476.99467 481.4775 
L 488.262702 481.4775 
L 488.262702 481.4775 
L 476.99467 481.4775 
z
" clip-path="url(#pd5dd682a3c)" style="fill: #ff6b6b; opacity: 0.55; stroke: #ffffff; stroke-width: 0.5; stroke-linejoin: miter"/>
   </g>
   <g id="patch_92">
    <path d="M 488.262702 481.4775 
L 499.530734 481.4775 
L 499.530734 481.4775 
L 488.262702 481.4775 
z
" clip-path="url(#pd5dd682a3c)" style="fill: #ff6b6b; opacity: 0.55; stroke: #ffffff; stroke-width: 0.5; stroke-linejoin: miter"/>
   </g>
   <g id="patch_93">
    <path d="M 499.530734 481.4775 
L 510.798767 481.4775 
L 510.798767 481.4775 
L 499.530734 481.4775 
z
" clip-path="url(#pd5dd682a3c)" style="fill: #ff6b6b; opacity: 0.55; stroke: #ffffff; stroke-width: 0.5; stroke-linejoin: miter"/>
   </g>
   <g id="patch_94">
    <path d="M 510.798767 481.4775 
L 522.066799 481.4775 
L 522.066799 481.4775 
L 510.798767 481.4775 
z
" clip-path="url(#pd5dd682a3c)" style="fill: #ff6b6b; opacity: 0.55; stroke: #ffffff; stroke-width: 0.5; stroke-linejoin: miter"/>
   </g>
   <g id="patch_95">
    <path d="M 522.066799 481.4775 
L 533.334831 481.4775 
L 533.334831 481.4775 
L 522.066799 481.4775 
z
" clip-path="url(#pd5dd682a3c)" style="fill: #ff6b6b; opacity: 0.55; stroke: #ffffff; stroke-width: 0.5; stroke-linejoin: miter"/>
   </g>
   <g id="patch_96">
    <path d="M 533.334831 481.4775 
L 544.602863 481.4775 
L 544.602863 481.4775 
L 533.334831 481.4775 
z
" clip-path="url(#pd5dd682a3c)" style="fill: #ff6b6b; opacity: 0.55; stroke: #ffffff; stroke-width: 0.5; stroke-linejoin: miter"/>
   </g>
   <g id="patch_97">
    <path d="M 544.602863 481.4775 
L 555.870896 481.4775 
L 555.870896 481.4775 
L 544.602863 481.4775 
z
" clip-path="url(#pd5dd682a3c)" style="fill: #ff6b6b; opacity: 0.55; stroke: #ffffff; stroke-width: 0.5; stroke-linejoin: miter"/>
   </g>
   <g id="patch_98">
    <path d="M 555.870896 481.4775 
L 567.138928 481.4775 
L 567.138928 481.4775 
L 555.870896 481.4775 
z
" clip-path="url(#pd5dd682a3c)" style="fill: #ff6b6b; opacity: 0.55; stroke: #ffffff; stroke-width: 0.5; stroke-linejoin: miter"/>
   </g>
   <g id="patch_99">
    <path d="M 567.138928 481.4775 
L 578.40696 481.4775 
L 578.40696 481.4775 
L 567.138928 481.4775 
z
" clip-path="url(#pd5dd682a3c)" style="fill: #ff6b6b; opacity: 0.55; stroke: #ffffff; stroke-width: 0.5; stroke-linejoin: miter"/>
   </g>
   <g id="patch_100">
    <path d="M 578.40696 481.4775 
L 589.674992 481.4775 
L 589.674992 481.4775 
L 578.40696 481.4775 
z
" clip-path="url(#pd5dd682a3c)" style="fill: #ff6b6b; opacity: 0.55; stroke: #ffffff; stroke-width: 0.5; stroke-linejoin: miter"/>
   </g>
   <g id="patch_101">
    <path d="M 589.674992 481.4775 
L 600.943025 481.4775 
L 600.943025 481.4775 
L 589.674992 481.4775 
z
" clip-path="url(#pd5dd682a3c)" style="fill: #ff6b6b; opacity: 0.55; stroke: #ffffff; stroke-width: 0.5; stroke-linejoin: miter"/>
   </g>
   <g id="patch_102">
    <path d="M 600.943025 481.4775 
L 612.211057 481.4775 
L 612.211057 481.4775 
L 600.943025 481.4775 
z
" clip-path="url(#pd5dd682a3c)" style="fill: #ff6b6b; opacity: 0.55; stroke: #ffffff; stroke-width: 0.5; stroke-linejoin: miter"/>
   </g>
   <g id="patch_103">
    <path d="M 612.211057 481.4775 
L 623.479089 481.4775 
L 623.479089 481.4775 
L 612.211057 481.4775 
z
" clip-path="url(#pd5dd682a3c)" style="fill: #ff6b6b; opacity: 0.55; stroke: #ffffff; stroke-width: 0.5; stroke-linejoin: miter"/>
   </g>
   <g id="patch_104">
    <path d="M 623.479089 481.4775 
L 634.747121 481.4775 
L 634.747121 481.4775 
L 623.479089 481.4775 
z
" clip-path="url(#pd5dd682a3c)" style="fill: #ff6b6b; opacity: 0.55; stroke: #ffffff; stroke-width: 0.5; stroke-linejoin: miter"/>
   </g>
   <g id="patch_105">
    <path d="M 634.747121 481.4775 
L 646.015154 481.4775 
L 646.015154 481.4775 
L 634.747121 481.4775 
z
" clip-path="url(#pd5dd682a3c)" style="fill: #ff6b6b; opacity: 0.55; stroke: #ffffff; stroke-width: 0.5; stroke-linejoin: miter"/>
   </g>
   <g id="patch_106">
    <path d="M 646.015154 481.4775 
L 657.283186 481.4775 
L 657.283186 481.4775 
L 646.015154 481.4775 
z
" clip-path="url(#pd5dd682a3c)" style="fill: #ff6b6b; opacity: 0.55; stroke: #ffffff; stroke-width: 0.5; stroke-linejoin: miter"/>
   </g>
   <g id="text_17">
    <g id="patch_107">
     <path d="M 67.194563 96.247875 
L 219.246125 96.247875 
Q 223.246125 96.247875 223.246125 92.247875 
L 223.246125 60.153813 
Q 223.246125 56.153813 219.246125 56.153813 
L 67.194563 56.153813 
Q 63.194563 56.153813 63.194563 60.153813 
L 63.194563 92.247875 
Q 63.194563 96.247875 67.194563 96.247875 
z
" style="fill: #1a1a2e; opacity: 0.9; stroke: #444444; stroke-linejoin: miter"/>
    </g>
    <!-- Classification accuracy: 62.5% -->
    <g style="fill: #e0e0e0" transform="translate(67.194563 67.731938) scale(0.1 -0.1)">
     <defs>
      <path id="DejaVuSans-43" d="M 4122 4306 
L 4122 3641 
Q 3803 3938 3442 4084 
Q 3081 4231 2675 4231 
Q 1875 4231 1450 3742 
Q 1025 3253 1025 2328 
Q 1025 1406 1450 917 
Q 1875 428 2675 428 
Q 3081 428 3442 575 
Q 3803 722 4122 1019 
L 4122 359 
Q 3791 134 3420 21 
Q 3050 -91 2638 -91 
Q 1578 -91 968 557 
Q 359 1206 359 2328 
Q 359 3453 968 4101 
Q 1578 4750 2638 4750 
Q 3056 4750 3426 4639 
Q 3797 4528 4122 4306 
z
" transform="scale(0.015625)"/>
      <path id="DejaVuSans-66" d="M 2375 4863 
L 2375 4384 
L 1825 4384 
Q 1516 4384 1395 4259 
Q 1275 4134 1275 3809 
L 1275 3500 
L 2222 3500 
L 2222 3053 
L 1275 3053 
L 1275 0 
L 697 0 
L 697 3053 
L 147 3053 
L 147 3500 
L 697 3500 
L 697 3744 
Q 697 4328 969 4595 
Q 1241 4863 1831 4863 
L 2375 4863 
z
" transform="scale(0.015625)"/>
      <path id="DejaVuSans-75" d="M 544 1381 
L 544 3500 
L 1119 3500 
L 1119 1403 
Q 1119 906 1312 657 
Q 1506 409 1894 409 
Q 2359 409 2629 706 
Q 2900 1003 2900 1516 
L 2900 3500 
L 3475 3500 
L 3475 0 
L 2900 0 
L 2900 538 
Q 2691 219 2414 64 
Q 2138 -91 1772 -91 
Q 1169 -91 856 284 
Q 544 659 544 1381 
z
M 1991 3584 
L 1991 3584 
z
" transform="scale(0.015625)"/>
      <path id="DejaVuSans-3a" d="M 750 794 
L 1409 794 
L 1409 0 
L 750 0 
L 750 794 
z
M 750 3309 
L 1409 3309 
L 1409 2516 
L 750 2516 
L 750 3309 
z
" transform="scale(0.015625)"/>
      <path id="DejaVuSans-25" d="M 4653 2053 
Q 4381 2053 4226 1822 
Q 4072 1591 4072 1178 
Q 4072 772 4226 539 
Q 4381 306 4653 306 
Q 4919 306 5073 539 
Q 5228 772 5228 1178 
Q 5228 1588 5073 1820 
Q 4919 2053 4653 2053 
z
M 4653 2450 
Q 5147 2450 5437 2106 
Q 5728 1763 5728 1178 
Q 5728 594 5436 251 
Q 5144 -91 4653 -91 
Q 4153 -91 3862 251 
Q 3572 594 3572 1178 
Q 3572 1766 3864 2108 
Q 4156 2450 4653 2450 
z
M 1428 4353 
Q 1159 4353 1004 4120 
Q 850 3888 850 3481 
Q 850 3069 1003 2837 
Q 1156 2606 1428 2606 
Q 1700 2606 1854 2837 
Q 2009 3069 2009 3481 
Q 2009 3884 1853 4118 
Q 1697 4353 1428 4353 
z
M 4250 4750 
L 4750 4750 
L 1831 -91 
L 1331 -91 
L 4250 4750 
z
M 1428 4750 
Q 1922 4750 2215 4408 
Q 2509 4066 2509 3481 
Q 2509 2891 2217 2550 
Q 1925 2209 1428 2209 
Q 931 2209 642 2551 
Q 353 2894 353 3481 
Q 353 4063 643 4406 
Q 934 4750 1428 4750 
z
" transform="scale(0.015625)"/>
     </defs>
     <use xlink:href="#DejaVuSans-43"/>
     <use xlink:href="#DejaVuSans-6c" transform="translate(69.824219 0)"/>
     <use xlink:href="#DejaVuSans-61" transform="translate(97.607422 0)"/>
     <use xlink:href="#DejaVuSans-73" transform="translate(158.886719 0)"/>
     <use xlink:href="#DejaVuSans-73" transform="translate(210.986328 0)"/>
     <use xlink:href="#DejaVuSans-69" transform="translate(263.085938 0)"/>
     <use xlink:href="#DejaVuSans-66" transform="translate(290.869141 0)"/>
     <use xlink:href="#DejaVuSans-69" transform="translate(326.074219 0)"/>
     <use xlink:href="#DejaVuSans-63" transform="translate(353.857422 0)"/>
     <use xlink:href="#DejaVuSans-61" transform="translate(408.837891 0)"/>
     <use xlink:href="#DejaVuSans-74" transform="translate(470.117188 0)"/>
     <use xlink:href="#DejaVuSans-69" transform="translate(509.326172 0)"/>
     <use xlink:href="#DejaVuSans-6f" transform="translate(537.109375 0)"/>
     <use xlink:href="#DejaVuSans-6e" transform="translate(598.291016 0)"/>
     <use xlink:href="#DejaVuSans-20" transform="translate(661.669922 0)"/>
     <use xlink:href="#DejaVuSans-61" transform="translate(693.457031 0)"/>
     <use xlink:href="#DejaVuSans-63" transform="translate(754.736328 0)"/>
     <use xlink:href="#DejaVuSans-63" transform="translate(809.716797 0)"/>
     <use xlink:href="#DejaVuSans-75" transform="translate(864.697266 0)"/>
     <use xlink:href="#DejaVuSans-72" transform="translate(928.076172 0)"/>
     <use xlink:href="#DejaVuSans-61" transform="translate(969.189453 0)"/>
     <use xlink:href="#DejaVuSans-63" transform="translate(1030.46875 0)"/>
     <use xlink:href="#DejaVuSans-79" transform="translate(1085.449219 0)"/>
     <use xlink:href="#DejaVuSans-3a" transform="translate(1137.378906 0)"/>
     <use xlink:href="#DejaVuSans-20" transform="translate(1171.070312 0)"/>
     <use xlink:href="#DejaVuSans-36" transform="translate(1202.857422 0)"/>
     <use xlink:href="#DejaVuSans-32" transform="translate(1266.480469 0)"/>
     <use xlink:href="#DejaVuSans-2e" transform="translate(1330.103516 0)"/>
     <use xlink:href="#DejaVuSans-35" transform="translate(1361.890625 0)"/>
     <use xlink:href="#DejaVuSans-25" transform="translate(1425.513672 0)"/>
    </g>
    <!-- Semantic ζ: 4.219 ± 0.338 -->
    <g style="fill: #e0e0e0" transform="translate(67.194563 78.92975) scale(0.1 -0.1)">
     <defs>
      <path id="DejaVuSans-6d" d="M 3328 2828 
Q 3544 3216 3844 3400 
Q 4144 3584 4550 3584 
Q 5097 3584 5394 3201 
Q 5691 2819 5691 2113 
L 5691 0 
L 5113 0 
L 5113 2094 
Q 5113 2597 4934 2840 
Q 4756 3084 4391 3084 
Q 3944 3084 3684 2787 
Q 3425 2491 3425 1978 
L 3425 0 
L 2847 0 
L 2847 2094 
Q 2847 2600 2669 2842 
Q 2491 3084 2119 3084 
Q 1678 3084 1418 2786 
Q 1159 2488 1159 1978 
L 1159 0 
L 581 0 
L 581 3500 
L 1159 3500 
L 1159 2956 
Q 1356 3278 1631 3431 
Q 1906 3584 2284 3584 
Q 2666 3584 2933 3390 
Q 3200 3197 3328 2828 
z
" transform="scale(0.015625)"/>
      <path id="DejaVuSans-39" d="M 703 97 
L 703 672 
Q 941 559 1184 500 
Q 1428 441 1663 441 
Q 2288 441 2617 861 
Q 2947 1281 2994 2138 
Q 2813 1869 2534 1725 
Q 2256 1581 1919 1581 
Q 1219 1581 811 2004 
Q 403 2428 403 3163 
Q 403 3881 828 4315 
Q 1253 4750 1959 4750 
Q 2769 4750 3195 4129 
Q 3622 3509 3622 2328 
Q 3622 1225 3098 567 
Q 2575 -91 1691 -91 
Q 1453 -91 1209 -44 
Q 966 3 703 97 
z
M 1959 2075 
Q 2384 2075 2632 2365 
Q 2881 2656 2881 3163 
Q 2881 3666 2632 3958 
Q 2384 4250 1959 4250 
Q 1534 4250 1286 3958 
Q 1038 3666 1038 3163 
Q 1038 2656 1286 2365 
Q 1534 2075 1959 2075 
z
" transform="scale(0.015625)"/>
      <path id="DejaVuSans-b1" d="M 2944 4013 
L 2944 2803 
L 4684 2803 
L 4684 2272 
L 2944 2272 
L 2944 1063 
L 2419 1063 
L 2419 2272 
L 678 2272 
L 678 2803 
L 2419 2803 
L 2419 4013 
L 2944 4013 
z
M 678 531 
L 4684 531 
L 4684 0 
L 678 0 
L 678 531 
z
" transform="scale(0.015625)"/>
     </defs>
     <use xlink:href="#DejaVuSans-53"/>
     <use xlink:href="#DejaVuSans-65" transform="translate(63.476562 0)"/>
     <use xlink:href="#DejaVuSans-6d" transform="translate(125 0)"/>
     <use xlink:href="#DejaVuSans-61" transform="translate(222.412109 0)"/>
     <use xlink:href="#DejaVuSans-6e" transform="translate(283.691406 0)"/>
     <use xlink:href="#DejaVuSans-74" transform="translate(347.070312 0)"/>
     <use xlink:href="#DejaVuSans-69" transform="translate(386.279297 0)"/>
     <use xlink:href="#DejaVuSans-63" transform="translate(414.0625 0)"/>
     <use xlink:href="#DejaVuSans-20" transform="translate(469.042969 0)"/>
     <use xlink:href="#DejaVuSans-3b6" transform="translate(500.830078 0)"/>
     <use xlink:href="#DejaVuSans-3a" transform="translate(555.224609 0)"/>
     <use xlink:href="#DejaVuSans-20" transform="translate(588.916016 0)"/>
     <use xlink:href="#DejaVuSans-34" transform="translate(620.703125 0)"/>
     <use xlink:href="#DejaVuSans-2e" transform="translate(684.326172 0)"/>
     <use xlink:href="#DejaVuSans-32" transform="translate(716.113281 0)"/>
     <use xlink:href="#DejaVuSans-31" transform="translate(779.736328 0)"/>
     <use xlink:href="#DejaVuSans-39" transform="translate(843.359375 0)"/>
     <use xlink:href="#DejaVuSans-20" transform="translate(906.982422 0)"/>
     <use xlink:href="#DejaVuSans-b1" transform="translate(938.769531 0)"/>
     <use xlink:href="#DejaVuSans-20" transform="translate(1022.558594 0)"/>
     <use xlink:href="#DejaVuSans-30" transform="translate(1054.345703 0)"/>
     <use xlink:href="#DejaVuSans-2e" transform="translate(1117.96875 0)"/>
     <use xlink:href="#DejaVuSans-33" transform="translate(1149.755859 0)"/>
     <use xlink:href="#DejaVuSans-33" transform="translate(1213.378906 0)"/>
     <use xlink:href="#DejaVuSans-38" transform="translate(1277.001953 0)"/>
    </g>
    <!-- Noise ζ: 4.063 ± 0.026 -->
    <g style="fill: #e0e0e0" transform="translate(67.194563 90.147875) scale(0.1 -0.1)">
     <defs>
      <path id="DejaVuSans-4e" d="M 628 4666 
L 1478 4666 
L 3547 763 
L 3547 4666 
L 4159 4666 
L 4159 0 
L 3309 0 
L 1241 3903 
L 1241 0 
L 628 0 
L 628 4666 
z
" transform="scale(0.015625)"/>
     </defs>
     <use xlink:href="#DejaVuSans-4e"/>
     <use xlink:href="#DejaVuSans-6f" transform="translate(74.804688 0)"/>
     <use xlink:href="#DejaVuSans-69" transform="translate(135.986328 0)"/>
     <use xlink:href="#DejaVuSans-73" transform="translate(163.769531 0)"/>
     <use xlink:href="#DejaVuSans-65" transform="translate(215.869141 0)"/>
     <use xlink:href="#DejaVuSans-20" transform="translate(277.392578 0)"/>
     <use xlink:href="#DejaVuSans-3b6" transform="translate(309.179688 0)"/>
     <use xlink:href="#DejaVuSans-3a" transform="translate(363.574219 0)"/>
     <use xlink:href="#DejaVuSans-20" transform="translate(397.265625 0)"/>
     <use xlink:href="#DejaVuSans-34" transform="translate(429.052734 0)"/>
     <use xlink:href="#DejaVuSans-2e" transform="translate(492.675781 0)"/>
     <use xlink:href="#DejaVuSans-30" transform="translate(524.462891 0)"/>
     <use xlink:href="#DejaVuSans-36" transform="translate(588.085938 0)"/>
     <use xlink:href="#DejaVuSans-33" transform="translate(651.708984 0)"/>
     <use xlink:href="#DejaVuSans-20" transform="translate(715.332031 0)"/>
     <use xlink:href="#DejaVuSans-b1" transform="translate(747.119141 0)"/>
     <use xlink:href="#DejaVuSans-20" transform="translate(830.908203 0)"/>
     <use xlink:href="#DejaVuSans-30" transform="translate(862.695312 0)"/>
     <use xlink:href="#DejaVuSans-2e" transform="translate(926.318359 0)"/>
     <use xlink:href="#DejaVuSans-30" transform="translate(958.105469 0)"/>
     <use xlink:href="#DejaVuSans-32" transform="translate(1021.728516 0)"/>
     <use xlink:href="#DejaVuSans-36" transform="translate(1085.351562 0)"/>
    </g>
   </g>
   <g id="text_18">
    <!-- Spectral Decay Ratio (ζ) Separability -->
    <g style="fill: #e0e0e0" transform="translate(215.717813 22.9575) scale(0.16 -0.16)">
     <defs>
      <path id="DejaVuSans-Bold-53" d="M 3834 4519 
L 3834 3531 
Q 3450 3703 3084 3790 
Q 2719 3878 2394 3878 
Q 1963 3878 1756 3759 
Q 1550 3641 1550 3391 
Q 1550 3203 1689 3098 
Q 1828 2994 2194 2919 
L 2706 2816 
Q 3484 2659 3812 2340 
Q 4141 2022 4141 1434 
Q 4141 663 3683 286 
Q 3225 -91 2284 -91 
Q 1841 -91 1394 -6 
Q 947 78 500 244 
L 500 1259 
Q 947 1022 1364 901 
Q 1781 781 2169 781 
Q 2563 781 2772 912 
Q 2981 1044 2981 1288 
Q 2981 1506 2839 1625 
Q 2697 1744 2272 1838 
L 1806 1941 
Q 1106 2091 782 2419 
Q 459 2747 459 3303 
Q 459 4000 909 4375 
Q 1359 4750 2203 4750 
Q 2588 4750 2994 4692 
Q 3400 4634 3834 4519 
z
" transform="scale(0.015625)"/>
      <path id="DejaVuSans-Bold-70" d="M 1656 506 
L 1656 -1331 
L 538 -1331 
L 538 3500 
L 1656 3500 
L 1656 2988 
Q 1888 3294 2169 3439 
Q 2450 3584 2816 3584 
Q 3463 3584 3878 3070 
Q 4294 2556 4294 1747 
Q 4294 938 3878 423 
Q 3463 -91 2816 -91 
Q 2450 -91 2169 54 
Q 1888 200 1656 506 
z
M 2400 2772 
Q 2041 2772 1848 2508 
Q 1656 2244 1656 1747 
Q 1656 1250 1848 986 
Q 2041 722 2400 722 
Q 2759 722 2948 984 
Q 3138 1247 3138 1747 
Q 3138 2247 2948 2509 
Q 2759 2772 2400 2772 
z
" transform="scale(0.015625)"/>
      <path id="DejaVuSans-Bold-65" d="M 4031 1759 
L 4031 1441 
L 1416 1441 
Q 1456 1047 1700 850 
Q 1944 653 2381 653 
Q 2734 653 3104 758 
Q 3475 863 3866 1075 
L 3866 213 
Q 3469 63 3072 -14 
Q 2675 -91 2278 -91 
Q 1328 -91 801 392 
Q 275 875 275 1747 
Q 275 2603 792 3093 
Q 1309 3584 2216 3584 
Q 3041 3584 3536 3087 
Q 4031 2591 4031 1759 
z
M 2881 2131 
Q 2881 2450 2695 2645 
Q 2509 2841 2209 2841 
Q 1884 2841 1681 2658 
Q 1478 2475 1428 2131 
L 2881 2131 
z
" transform="scale(0.015625)"/>
      <path id="DejaVuSans-Bold-63" d="M 3366 3391 
L 3366 2478 
Q 3138 2634 2908 2709 
Q 2678 2784 2431 2784 
Q 1963 2784 1702 2511 
Q 1441 2238 1441 1747 
Q 1441 1256 1702 982 
Q 1963 709 2431 709 
Q 2694 709 2930 787 
Q 3166 866 3366 1019 
L 3366 103 
Q 3103 6 2833 -42 
Q 2563 -91 2291 -91 
Q 1344 -91 809 395 
Q 275 881 275 1747 
Q 275 2613 809 3098 
Q 1344 3584 2291 3584 
Q 2566 3584 2833 3536 
Q 3100 3488 3366 3391 
z
" transform="scale(0.015625)"/>
      <path id="DejaVuSans-Bold-74" d="M 1759 4494 
L 1759 3500 
L 2913 3500 
L 2913 2700 
L 1759 2700 
L 1759 1216 
Q 1759 972 1856 886 
Q 1953 800 2241 800 
L 2816 800 
L 2816 0 
L 1856 0 
Q 1194 0 917 276 
Q 641 553 641 1216 
L 641 2700 
L 84 2700 
L 84 3500 
L 641 3500 
L 641 4494 
L 1759 4494 
z
" transform="scale(0.015625)"/>
      <path id="DejaVuSans-Bold-72" d="M 3138 2547 
Q 2991 2616 2845 2648 
Q 2700 2681 2553 2681 
Q 2122 2681 1889 2404 
Q 1656 2128 1656 1613 
L 1656 0 
L 538 0 
L 538 3500 
L 1656 3500 
L 1656 2925 
Q 1872 3269 2151 3426 
Q 2431 3584 2822 3584 
Q 2878 3584 2943 3579 
Q 3009 3575 3134 3559 
L 3138 2547 
z
" transform="scale(0.015625)"/>
      <path id="DejaVuSans-Bold-61" d="M 2106 1575 
Q 1756 1575 1579 1456 
Q 1403 1338 1403 1106 
Q 1403 894 1545 773 
Q 1688 653 1941 653 
Q 2256 653 2472 879 
Q 2688 1106 2688 1447 
L 2688 1575 
L 2106 1575 
z
M 3816 1997 
L 3816 0 
L 2688 0 
L 2688 519 
Q 2463 200 2181 54 
Q 1900 -91 1497 -91 
Q 953 -91 614 226 
Q 275 544 275 1050 
Q 275 1666 698 1953 
Q 1122 2241 2028 2241 
L 2688 2241 
L 2688 2328 
Q 2688 2594 2478 2717 
Q 2269 2841 1825 2841 
Q 1466 2841 1156 2769 
Q 847 2697 581 2553 
L 581 3406 
Q 941 3494 1303 3539 
Q 1666 3584 2028 3584 
Q 2975 3584 3395 3211 
Q 3816 2838 3816 1997 
z
" transform="scale(0.015625)"/>
      <path id="DejaVuSans-Bold-6c" d="M 538 4863 
L 1656 4863 
L 1656 0 
L 538 0 
L 538 4863 
z
" transform="scale(0.015625)"/>
      <path id="DejaVuSans-Bold-20" transform="scale(0.015625)"/>
      <path id="DejaVuSans-Bold-44" d="M 1791 3756 
L 1791 909 
L 2222 909 
Q 2959 909 3348 1275 
Q 3738 1641 3738 2338 
Q 3738 3031 3350 3393 
Q 2963 3756 2222 3756 
L 1791 3756 
z
M 588 4666 
L 1856 4666 
Q 2919 4666 3439 4514 
Q 3959 4363 4331 4000 
Q 4659 3684 4818 3271 
Q 4978 2859 4978 2338 
Q 4978 1809 4818 1395 
Q 4659 981 4331 666 
Q 3956 303 3431 151 
Q 2906 0 1856 0 
L 588 0 
L 588 4666 
z
" transform="scale(0.015625)"/>
      <path id="DejaVuSans-Bold-79" d="M 78 3500 
L 1197 3500 
L 2138 1125 
L 2938 3500 
L 4056 3500 
L 2584 -331 
Q 2363 -916 2067 -1148 
Q 1772 -1381 1288 -1381 
L 641 -1381 
L 641 -647 
L 991 -647 
Q 1275 -647 1404 -556 
Q 1534 -466 1606 -231 
L 1638 -134 
L 78 3500 
z
" transform="scale(0.015625)"/>
      <path id="DejaVuSans-Bold-52" d="M 2297 2597 
Q 2675 2597 2839 2737 
Q 3003 2878 3003 3200 
Q 3003 3519 2839 3656 
Q 2675 3794 2297 3794 
L 1791 3794 
L 1791 2597 
L 2297 2597 
z
M 1791 1766 
L 1791 0 
L 588 0 
L 588 4666 
L 2425 4666 
Q 3347 4666 3776 4356 
Q 4206 4047 4206 3378 
Q 4206 2916 3982 2619 
Q 3759 2322 3309 2181 
Q 3556 2125 3751 1926 
Q 3947 1728 4147 1325 
L 4800 0 
L 3519 0 
L 2950 1159 
Q 2778 1509 2601 1637 
Q 2425 1766 2131 1766 
L 1791 1766 
z
" transform="scale(0.015625)"/>
      <path id="DejaVuSans-Bold-69" d="M 538 3500 
L 1656 3500 
L 1656 0 
L 538 0 
L 538 3500 
z
M 538 4863 
L 1656 4863 
L 1656 3950 
L 538 3950 
L 538 4863 
z
" transform="scale(0.015625)"/>
      <path id="DejaVuSans-Bold-6f" d="M 2203 2784 
Q 1831 2784 1636 2517 
Q 1441 2250 1441 1747 
Q 1441 1244 1636 976 
Q 1831 709 2203 709 
Q 2569 709 2762 976 
Q 2956 1244 2956 1747 
Q 2956 2250 2762 2517 
Q 2569 2784 2203 2784 
z
M 2203 3584 
Q 3106 3584 3614 3096 
Q 4122 2609 4122 1747 
Q 4122 884 3614 396 
Q 3106 -91 2203 -91 
Q 1297 -91 786 396 
Q 275 884 275 1747 
Q 275 2609 786 3096 
Q 1297 3584 2203 3584 
z
" transform="scale(0.015625)"/>
      <path id="DejaVuSans-Bold-28" d="M 2413 -844 
L 1484 -844 
Q 1006 -72 778 623 
Q 550 1319 550 2003 
Q 550 2688 779 3389 
Q 1009 4091 1484 4856 
L 2413 4856 
Q 2013 4116 1813 3408 
Q 1613 2700 1613 2009 
Q 1613 1319 1811 609 
Q 2009 -100 2413 -844 
z
" transform="scale(0.015625)"/>
      <path id="DejaVuSans-Bold-3b6" d="M 2519 800 
Q 2909 788 3187 494 
Q 3466 200 3466 -294 
Q 3466 -784 3192 -1057 
Q 2919 -1331 2397 -1331 
L 2397 -628 
Q 2616 -628 2691 -536 
Q 2766 -444 2766 -325 
Q 2766 -206 2673 -103 
Q 2581 0 2397 0 
Q 278 0 278 1575 
Q 278 3075 2263 4063 
L 341 4063 
L 341 4863 
L 3413 4863 
L 3413 4063 
Q 1403 3141 1397 1569 
Q 1397 825 2519 800 
z
" transform="scale(0.015625)"/>
      <path id="DejaVuSans-Bold-29" d="M 513 -844 
Q 913 -100 1113 609 
Q 1313 1319 1313 2009 
Q 1313 2700 1113 3408 
Q 913 4116 513 4856 
L 1441 4856 
Q 1916 4091 2145 3389 
Q 2375 2688 2375 2003 
Q 2375 1319 2147 623 
Q 1919 -72 1441 -844 
L 513 -844 
z
" transform="scale(0.015625)"/>
      <path id="DejaVuSans-Bold-62" d="M 2400 722 
Q 2759 722 2948 984 
Q 3138 1247 3138 1747 
Q 3138 2247 2948 2509 
Q 2759 2772 2400 2772 
Q 2041 2772 1848 2508 
Q 1656 2244 1656 1747 
Q 1656 1250 1848 986 
Q 2041 722 2400 722 
z
M 1656 2988 
Q 1888 3294 2169 3439 
Q 2450 3584 2816 3584 
Q 3463 3584 3878 3070 
Q 4294 2556 4294 1747 
Q 4294 938 3878 423 
Q 3463 -91 2816 -91 
Q 2450 -91 2169 54 
Q 1888 200 1656 506 
L 1656 0 
L 538 0 
L 538 4863 
L 1656 4863 
L 1656 2988 
z
" transform="scale(0.015625)"/>
     </defs>
     <use xlink:href="#DejaVuSans-Bold-53"/>
     <use xlink:href="#DejaVuSans-Bold-70" transform="translate(72.021484 0)"/>
     <use xlink:href="#DejaVuSans-Bold-65" transform="translate(143.603516 0)"/>
     <use xlink:href="#DejaVuSans-Bold-63" transform="translate(211.425781 0)"/>
     <use xlink:href="#DejaVuSans-Bold-74" transform="translate(270.703125 0)"/>
     <use xlink:href="#DejaVuSans-Bold-72" transform="translate(318.505859 0)"/>
     <use xlink:href="#DejaVuSans-Bold-61" transform="translate(367.822266 0)"/>
     <use xlink:href="#DejaVuSans-Bold-6c" transform="translate(435.302734 0)"/>
     <use xlink:href="#DejaVuSans-Bold-20" transform="translate(469.580078 0)"/>
     <use xlink:href="#DejaVuSans-Bold-44" transform="translate(504.394531 0)"/>
     <use xlink:href="#DejaVuSans-Bold-65" transform="translate(587.402344 0)"/>
     <use xlink:href="#DejaVuSans-Bold-63" transform="translate(655.224609 0)"/>
     <use xlink:href="#DejaVuSans-Bold-61" transform="translate(714.501953 0)"/>
     <use xlink:href="#DejaVuSans-Bold-79" transform="translate(778.857422 0)"/>
     <use xlink:href="#DejaVuSans-Bold-20" transform="translate(844.042969 0)"/>
     <use xlink:href="#DejaVuSans-Bold-52" transform="translate(878.857422 0)"/>
     <use xlink:href="#DejaVuSans-Bold-61" transform="translate(955.859375 0)"/>
     <use xlink:href="#DejaVuSans-Bold-74" transform="translate(1023.339844 0)"/>
     <use xlink:href="#DejaVuSans-Bold-69" transform="translate(1071.142578 0)"/>
     <use xlink:href="#DejaVuSans-Bold-6f" transform="translate(1105.419922 0)"/>
     <use xlink:href="#DejaVuSans-Bold-20" transform="translate(1174.121094 0)"/>
     <use xlink:href="#DejaVuSans-Bold-28" transform="translate(1208.935547 0)"/>
     <use xlink:href="#DejaVuSans-Bold-3b6" transform="translate(1254.638672 0)"/>
     <use xlink:href="#DejaVuSans-Bold-29" transform="translate(1313.720703 0)"/>
     <use xlink:href="#DejaVuSans-Bold-20" transform="translate(1359.423828 0)"/>
     <use xlink:href="#DejaVuSans-Bold-53" transform="translate(1394.238281 0)"/>
     <use xlink:href="#DejaVuSans-Bold-65" transform="translate(1466.259766 0)"/>
     <use xlink:href="#DejaVuSans-Bold-70" transform="translate(1534.082031 0)"/>
     <use xlink:href="#DejaVuSans-Bold-61" transform="translate(1605.664062 0)"/>
     <use xlink:href="#DejaVuSans-Bold-72" transform="translate(1673.144531 0)"/>
     <use xlink:href="#DejaVuSans-Bold-61" transform="translate(1722.460938 0)"/>
     <use xlink:href="#DejaVuSans-Bold-62" transform="translate(1789.941406 0)"/>
     <use xlink:href="#DejaVuSans-Bold-69" transform="translate(1861.523438 0)"/>
     <use xlink:href="#DejaVuSans-Bold-6c" transform="translate(1895.800781 0)"/>
     <use xlink:href="#DejaVuSans-Bold-69" transform="translate(1930.078125 0)"/>
     <use xlink:href="#DejaVuSans-Bold-74" transform="translate(1964.355469 0)"/>
     <use xlink:href="#DejaVuSans-Bold-79" transform="translate(2012.158203 0)"/>
    </g>
   </g>
   <g id="legend_1">
    <g id="patch_108">
     <path d="M 551.84875 90.27 
L 709.706563 90.27 
Q 711.706563 90.27 711.706563 88.27 
L 711.706563 44.9575 
Q 711.706563 42.9575 709.706563 42.9575 
L 551.84875 42.9575 
Q 549.84875 42.9575 549.84875 44.9575 
L 549.84875 88.27 
Q 549.84875 90.27 551.84875 90.27 
z
" style="fill: #1a1a2e; opacity: 0.8; stroke: #444444; stroke-linejoin: miter"/>
    </g>
    <g id="patch_109">
     <path d="M 553.84875 54.555938 
L 573.84875 54.555938 
L 573.84875 47.555938 
L 553.84875 47.555938 
z
" style="fill: #4ecdc4; opacity: 0.55; stroke: #ffffff; stroke-width: 0.5; stroke-linejoin: miter"/>
    </g>
    <g id="text_19">
     <!-- Semantic blocks (n=32) -->
     <g style="fill: #e0e0e0" transform="translate(581.84875 54.555938) scale(0.1 -0.1)">
      <defs>
       <path id="DejaVuSans-62" d="M 3116 1747 
Q 3116 2381 2855 2742 
Q 2594 3103 2138 3103 
Q 1681 3103 1420 2742 
Q 1159 2381 1159 1747 
Q 1159 1113 1420 752 
Q 1681 391 2138 391 
Q 2594 391 2855 752 
Q 3116 1113 3116 1747 
z
M 1159 2969 
Q 1341 3281 1617 3432 
Q 1894 3584 2278 3584 
Q 2916 3584 3314 3078 
Q 3713 2572 3713 1747 
Q 3713 922 3314 415 
Q 2916 -91 2278 -91 
Q 1894 -91 1617 61 
Q 1341 213 1159 525 
L 1159 0 
L 581 0 
L 581 4863 
L 1159 4863 
L 1159 2969 
z
" transform="scale(0.015625)"/>
       <path id="DejaVuSans-6b" d="M 581 4863 
L 1159 4863 
L 1159 1991 
L 2875 3500 
L 3609 3500 
L 1753 1863 
L 3688 0 
L 2938 0 
L 1159 1709 
L 1159 0 
L 581 0 
L 581 4863 
z
" transform="scale(0.015625)"/>
       <path id="DejaVuSans-3d" d="M 678 2906 
L 4684 2906 
L 4684 2381 
L 678 2381 
L 678 2906 
z
M 678 1631 
L 4684 1631 
L 4684 1100 
L 678 1100 
L 678 1631 
z
" transform="scale(0.015625)"/>
      </defs>
      <use xlink:href="#DejaVuSans-53"/>
      <use xlink:href="#DejaVuSans-65" transform="translate(63.476562 0)"/>
      <use xlink:href="#DejaVuSans-6d" transform="translate(125 0)"/>
      <use xlink:href="#DejaVuSans-61" transform="translate(222.412109 0)"/>
      <use xlink:href="#DejaVuSans-6e" transform="translate(283.691406 0)"/>
      <use xlink:href="#DejaVuSans-74" transform="translate(347.070312 0)"/>
      <use xlink:href="#DejaVuSans-69" transform="translate(386.279297 0)"/>
      <use xlink:href="#DejaVuSans-63" transform="translate(414.0625 0)"/>
      <use xlink:href="#DejaVuSans-20" transform="translate(469.042969 0)"/>
      <use xlink:href="#DejaVuSans-62" transform="translate(500.830078 0)"/>
      <use xlink:href="#DejaVuSans-6c" transform="translate(564.306641 0)"/>
      <use xlink:href="#DejaVuSans-6f" transform="translate(592.089844 0)"/>
      <use xlink:href="#DejaVuSans-63" transform="translate(653.271484 0)"/>
      <use xlink:href="#DejaVuSans-6b" transform="translate(708.251953 0)"/>
      <use xlink:href="#DejaVuSans-73" transform="translate(766.162109 0)"/>
      <use xlink:href="#DejaVuSans-20" transform="translate(818.261719 0)"/>
      <use xlink:href="#DejaVuSans-28" transform="translate(850.048828 0)"/>
      <use xlink:href="#DejaVuSans-6e" transform="translate(889.0625 0)"/>
      <use xlink:href="#DejaVuSans-3d" transform="translate(952.441406 0)"/>
      <use xlink:href="#DejaVuSans-33" transform="translate(1036.230469 0)"/>
      <use xlink:href="#DejaVuSans-32" transform="translate(1099.853516 0)"/>
      <use xlink:href="#DejaVuSans-29" transform="translate(1163.476562 0)"/>
     </g>
    </g>
    <g id="patch_110">
     <path d="M 553.84875 69.234063 
L 573.84875 69.234063 
L 573.84875 62.234063 
L 553.84875 62.234063 
z
" style="fill: #ff6b6b; opacity: 0.55; stroke: #ffffff; stroke-width: 0.5; stroke-linejoin: miter"/>
    </g>
    <g id="text_20">
     <!-- Noise blocks (n=32) -->
     <g style="fill: #e0e0e0" transform="translate(581.84875 69.234063) scale(0.1 -0.1)">
      <use xlink:href="#DejaVuSans-4e"/>
      <use xlink:href="#DejaVuSans-6f" transform="translate(74.804688 0)"/>
      <use xlink:href="#DejaVuSans-69" transform="translate(135.986328 0)"/>
      <use xlink:href="#DejaVuSans-73" transform="translate(163.769531 0)"/>
      <use xlink:href="#DejaVuSans-65" transform="translate(215.869141 0)"/>
      <use xlink:href="#DejaVuSans-20" transform="translate(277.392578 0)"/>
      <use xlink:href="#DejaVuSans-62" transform="translate(309.179688 0)"/>
      <use xlink:href="#DejaVuSans-6c" transform="translate(372.65625 0)"/>
      <use xlink:href="#DejaVuSans-6f" transform="translate(400.439453 0)"/>
      <use xlink:href="#DejaVuSans-63" transform="translate(461.621094 0)"/>
      <use xlink:href="#DejaVuSans-6b" transform="translate(516.601562 0)"/>
      <use xlink:href="#DejaVuSans-73" transform="translate(574.511719 0)"/>
      <use xlink:href="#DejaVuSans-20" transform="translate(626.611328 0)"/>
      <use xlink:href="#DejaVuSans-28" transform="translate(658.398438 0)"/>
      <use xlink:href="#DejaVuSans-6e" transform="translate(697.412109 0)"/>
      <use xlink:href="#DejaVuSans-3d" transform="translate(760.791016 0)"/>
      <use xlink:href="#DejaVuSans-33" transform="translate(844.580078 0)"/>
      <use xlink:href="#DejaVuSans-32" transform="translate(908.203125 0)"/>
      <use xlink:href="#DejaVuSans-29" transform="translate(971.826172 0)"/>
     </g>
    </g>
    <g id="line2d_29">
     <path d="M 553.84875 80.412188 
L 563.84875 80.412188 
L 573.84875 80.412188 
" style="fill: none; stroke-dasharray: 9.25,4; stroke-dashoffset: 0; stroke: #ffd93d; stroke-width: 2.5"/>
    </g>
    <g id="text_21">
     <!-- ζ_max threshold = 4.012 -->
     <g style="fill: #e0e0e0" transform="translate(581.84875 83.912188) scale(0.1 -0.1)">
      <defs>
       <path id="DejaVuSans-5f" d="M 3263 -1063 
L 3263 -1509 
L -63 -1509 
L -63 -1063 
L 3263 -1063 
z
" transform="scale(0.015625)"/>
       <path id="DejaVuSans-78" d="M 3513 3500 
L 2247 1797 
L 3578 0 
L 2900 0 
L 1881 1375 
L 863 0 
L 184 0 
L 1544 1831 
L 300 3500 
L 978 3500 
L 1906 2253 
L 2834 3500 
L 3513 3500 
z
" transform="scale(0.015625)"/>
       <path id="DejaVuSans-68" d="M 3513 2113 
L 3513 0 
L 2938 0 
L 2938 2094 
Q 2938 2591 2744 2837 
Q 2550 3084 2163 3084 
Q 1697 3084 1428 2787 
Q 1159 2491 1159 1978 
L 1159 0 
L 581 0 
L 581 4863 
L 1159 4863 
L 1159 2956 
Q 1366 3272 1645 3428 
Q 1925 3584 2291 3584 
Q 2894 3584 3203 3211 
Q 3513 2838 3513 2113 
z
" transform="scale(0.015625)"/>
       <path id="DejaVuSans-64" d="M 2906 2969 
L 2906 4863 
L 3481 4863 
L 3481 0 
L 2906 0 
L 2906 525 
Q 2725 213 2448 61 
Q 2172 -91 1784 -91 
Q 1150 -91 751 415 
Q 353 922 353 1747 
Q 353 2572 751 3078 
Q 1150 3584 1784 3584 
Q 2172 3584 2448 3432 
Q 2725 3281 2906 2969 
z
M 947 1747 
Q 947 1113 1208 752 
Q 1469 391 1925 391 
Q 2381 391 2643 752 
Q 2906 1113 2906 1747 
Q 2906 2381 2643 2742 
Q 2381 3103 1925 3103 
Q 1469 3103 1208 2742 
Q 947 2381 947 1747 
z
" transform="scale(0.015625)"/>
      </defs>
      <use xlink:href="#DejaVuSans-3b6"/>
      <use xlink:href="#DejaVuSans-5f" transform="translate(54.394531 0)"/>
      <use xlink:href="#DejaVuSans-6d" transform="translate(104.394531 0)"/>
      <use xlink:href="#DejaVuSans-61" transform="translate(201.806641 0)"/>
      <use xlink:href="#DejaVuSans-78" transform="translate(263.085938 0)"/>
      <use xlink:href="#DejaVuSans-20" transform="translate(322.265625 0)"/>
      <use xlink:href="#DejaVuSans-74" transform="translate(354.052734 0)"/>
      <use xlink:href="#DejaVuSans-68" transform="translate(393.261719 0)"/>
      <use xlink:href="#DejaVuSans-72" transform="translate(456.640625 0)"/>
      <use xlink:href="#DejaVuSans-65" transform="translate(495.503906 0)"/>
      <use xlink:href="#DejaVuSans-73" transform="translate(557.027344 0)"/>
      <use xlink:href="#DejaVuSans-68" transform="translate(609.126953 0)"/>
      <use xlink:href="#DejaVuSans-6f" transform="translate(672.505859 0)"/>
      <use xlink:href="#DejaVuSans-6c" transform="translate(733.6875 0)"/>
      <use xlink:href="#DejaVuSans-64" transform="translate(761.470703 0)"/>
      <use xlink:href="#DejaVuSans-20" transform="translate(824.947266 0)"/>
      <use xlink:href="#DejaVuSans-3d" transform="translate(856.734375 0)"/>
      <use xlink:href="#DejaVuSans-20" transform="translate(940.523438 0)"/>
      <use xlink:href="#DejaVuSans-34" transform="translate(972.310547 0)"/>
      <use xlink:href="#DejaVuSans-2e" transform="translate(1035.933594 0)"/>
      <use xlink:href="#DejaVuSans-30" transform="translate(1067.720703 0)"/>
      <use xlink:href="#DejaVuSans-31" transform="translate(1131.34375 0)"/>
      <use xlink:href="#DejaVuSans-32" transform="translate(1194.966797 0)"/>
     </g>
    </g>
   </g>
   <g id="line2d_30">
    <path d="M 311.155126 481.4775 
L 311.155126 37.9575 
" clip-path="url(#pd5dd682a3c)" style="fill: none; stroke-dasharray: 9.25,4; stroke-dashoffset: 0; stroke: #ffd93d; stroke-width: 2.5"/>
   </g>
  </g>
  <g id="text_22">
   <!-- OrthoCache GPU v0.1.0 -->
   <g style="fill: #888888; opacity: 0.3" transform="translate(691.206563 531.65375) scale(0.08 -0.08)">
    <defs>
     <path id="DejaVuSans-Oblique-4f" d="M 2919 4238 
Q 2400 4238 2003 3986 
Q 1606 3734 1313 3219 
Q 1125 2891 1026 2522 
Q 928 2153 928 1778 
Q 928 1128 1239 775 
Q 1550 422 2119 422 
Q 2631 422 3032 676 
Q 3434 931 3719 1434 
Q 3909 1772 4009 2142 
Q 4109 2513 4109 2881 
Q 4109 3528 3796 3883 
Q 3484 4238 2919 4238 
z
M 2100 -91 
Q 1241 -91 748 418 
Q 256 928 256 1813 
Q 256 2319 448 2847 
Q 641 3375 978 3788 
Q 1375 4272 1862 4511 
Q 2350 4750 2938 4750 
Q 3794 4750 4287 4245 
Q 4781 3741 4781 2869 
Q 4781 2331 4593 1812 
Q 4406 1294 4056 872 
Q 3656 384 3173 146 
Q 2691 -91 2100 -91 
z
" transform="scale(0.015625)"/>
     <path id="DejaVuSans-Oblique-72" d="M 2853 2969 
Q 2766 3016 2653 3041 
Q 2541 3066 2413 3066 
Q 1953 3066 1609 2717 
Q 1266 2369 1153 1784 
L 800 0 
L 225 0 
L 909 3500 
L 1484 3500 
L 1375 2956 
Q 1603 3259 1920 3421 
Q 2238 3584 2597 3584 
Q 2691 3584 2781 3573 
Q 2872 3563 2963 3538 
L 2853 2969 
z
" transform="scale(0.015625)"/>
     <path id="DejaVuSans-Oblique-74" d="M 2706 3500 
L 2619 3053 
L 1472 3053 
L 1100 1153 
Q 1081 1047 1072 975 
Q 1063 903 1063 863 
Q 1063 663 1183 572 
Q 1303 481 1569 481 
L 2150 481 
L 2053 0 
L 1503 0 
Q 991 0 739 200 
Q 488 400 488 806 
Q 488 878 497 964 
Q 506 1050 525 1153 
L 897 3053 
L 409 3053 
L 500 3500 
L 978 3500 
L 1172 4494 
L 1747 4494 
L 1556 3500 
L 2706 3500 
z
" transform="scale(0.015625)"/>
     <path id="DejaVuSans-Oblique-68" d="M 3566 2113 
L 3156 0 
L 2578 0 
L 2988 2091 
Q 3016 2238 3031 2350 
Q 3047 2463 3047 2528 
Q 3047 2791 2881 2937 
Q 2716 3084 2419 3084 
Q 1956 3084 1617 2771 
Q 1278 2459 1178 1941 
L 800 0 
L 225 0 
L 1172 4863 
L 1747 4863 
L 1375 2950 
Q 1594 3244 1934 3414 
Q 2275 3584 2650 3584 
Q 3113 3584 3367 3334 
Q 3622 3084 3622 2631 
Q 3622 2519 3608 2391 
Q 3594 2263 3566 2113 
z
" transform="scale(0.015625)"/>
     <path id="DejaVuSans-Oblique-6f" d="M 1625 -91 
Q 1009 -91 651 289 
Q 294 669 294 1325 
Q 294 1706 417 2101 
Q 541 2497 738 2766 
Q 1047 3184 1428 3384 
Q 1809 3584 2291 3584 
Q 2888 3584 3255 3212 
Q 3622 2841 3622 2241 
Q 3622 1825 3500 1412 
Q 3378 1000 3181 728 
Q 2875 309 2494 109 
Q 2113 -91 1625 -91 
z
M 891 1344 
Q 891 869 1089 633 
Q 1288 397 1691 397 
Q 2269 397 2648 901 
Q 3028 1406 3028 2181 
Q 3028 2634 2825 2865 
Q 2622 3097 2228 3097 
Q 1903 3097 1650 2945 
Q 1397 2794 1197 2484 
Q 1050 2253 970 1956 
Q 891 1659 891 1344 
z
" transform="scale(0.015625)"/>
     <path id="DejaVuSans-Oblique-43" d="M 4447 4306 
L 4319 3641 
Q 4019 3944 3683 4091 
Q 3347 4238 2956 4238 
Q 2422 4238 2017 3981 
Q 1613 3725 1319 3200 
Q 1131 2863 1032 2486 
Q 934 2109 934 1728 
Q 934 1091 1264 756 
Q 1594 422 2222 422 
Q 2656 422 3056 561 
Q 3456 700 3834 978 
L 3688 231 
Q 3316 72 2936 -9 
Q 2556 -91 2175 -91 
Q 1278 -91 773 396 
Q 269 884 269 1753 
Q 269 2309 461 2846 
Q 653 3384 1013 3828 
Q 1394 4300 1883 4525 
Q 2372 4750 3022 4750 
Q 3422 4750 3780 4639 
Q 4138 4528 4447 4306 
z
" transform="scale(0.015625)"/>
     <path id="DejaVuSans-Oblique-61" d="M 3438 1997 
L 3047 0 
L 2472 0 
L 2578 531 
Q 2325 219 2001 64 
Q 1678 -91 1281 -91 
Q 834 -91 548 182 
Q 263 456 263 884 
Q 263 1497 752 1853 
Q 1241 2209 2100 2209 
L 2900 2209 
L 2931 2363 
Q 2938 2388 2941 2417 
Q 2944 2447 2944 2509 
Q 2944 2788 2717 2942 
Q 2491 3097 2081 3097 
Q 1800 3097 1504 3025 
Q 1209 2953 897 2809 
L 997 3341 
Q 1322 3463 1633 3523 
Q 1944 3584 2234 3584 
Q 2853 3584 3176 3315 
Q 3500 3047 3500 2534 
Q 3500 2431 3484 2292 
Q 3469 2153 3438 1997 
z
M 2816 1759 
L 2241 1759 
Q 1534 1759 1195 1570 
Q 856 1381 856 984 
Q 856 709 1029 553 
Q 1203 397 1509 397 
Q 1978 397 2328 733 
Q 2678 1069 2791 1631 
L 2816 1759 
z
" transform="scale(0.015625)"/>
     <path id="DejaVuSans-Oblique-63" d="M 3431 3366 
L 3316 2797 
Q 3109 2947 2876 3022 
Q 2644 3097 2394 3097 
Q 2119 3097 1870 3000 
Q 1622 2903 1453 2725 
Q 1184 2453 1037 2087 
Q 891 1722 891 1331 
Q 891 859 1127 628 
Q 1363 397 1844 397 
Q 2081 397 2348 469 
Q 2616 541 2906 684 
L 2797 116 
Q 2547 13 2283 -39 
Q 2019 -91 1741 -91 
Q 1044 -91 669 257 
Q 294 606 294 1253 
Q 294 1797 489 2255 
Q 684 2713 1069 3078 
Q 1331 3328 1684 3456 
Q 2038 3584 2456 3584 
Q 2700 3584 2940 3529 
Q 3181 3475 3431 3366 
z
" transform="scale(0.015625)"/>
     <path id="DejaVuSans-Oblique-65" d="M 3078 2063 
Q 3088 2113 3092 2166 
Q 3097 2219 3097 2272 
Q 3097 2653 2873 2875 
Q 2650 3097 2266 3097 
Q 1838 3097 1509 2826 
Q 1181 2556 1013 2059 
L 3078 2063 
z
M 3578 1613 
L 903 1613 
Q 884 1494 878 1425 
Q 872 1356 872 1306 
Q 872 872 1139 634 
Q 1406 397 1894 397 
Q 2269 397 2603 481 
Q 2938 566 3225 728 
L 3116 159 
Q 2806 34 2476 -28 
Q 2147 -91 1806 -91 
Q 1078 -91 686 257 
Q 294 606 294 1247 
Q 294 1794 489 2264 
Q 684 2734 1063 3103 
Q 1306 3334 1642 3459 
Q 1978 3584 2356 3584 
Q 2950 3584 3301 3228 
Q 3653 2872 3653 2272 
Q 3653 2128 3634 1964 
Q 3616 1800 3578 1613 
z
" transform="scale(0.015625)"/>
     <path id="DejaVuSans-Oblique-20" transform="scale(0.015625)"/>
     <path id="DejaVuSans-Oblique-47" d="M 3494 697 
L 3738 1919 
L 2700 1919 
L 2797 2438 
L 4453 2438 
L 4050 384 
Q 3634 156 3143 32 
Q 2653 -91 2156 -91 
Q 1278 -91 783 396 
Q 288 884 288 1753 
Q 288 2475 589 3126 
Q 891 3778 1422 4213 
Q 1756 4484 2153 4617 
Q 2550 4750 3034 4750 
Q 3472 4750 3873 4639 
Q 4275 4528 4641 4306 
L 4513 3634 
Q 4231 3928 3853 4083 
Q 3475 4238 3047 4238 
Q 2550 4238 2172 4048 
Q 1794 3859 1497 3463 
Q 1244 3125 1098 2667 
Q 953 2209 953 1734 
Q 953 1081 1287 751 
Q 1622 422 2284 422 
Q 2616 422 2925 492 
Q 3234 563 3494 697 
z
" transform="scale(0.015625)"/>
     <path id="DejaVuSans-Oblique-50" d="M 1081 4666 
L 2541 4666 
Q 3178 4666 3512 4369 
Q 3847 4072 3847 3500 
Q 3847 2731 3353 2303 
Q 2859 1875 1966 1875 
L 1172 1875 
L 806 0 
L 172 0 
L 1081 4666 
z
M 1613 4147 
L 1275 2394 
L 2069 2394 
Q 2606 2394 2893 2669 
Q 3181 2944 3181 3456 
Q 3181 3784 2986 3965 
Q 2791 4147 2438 4147 
L 1613 4147 
z
" transform="scale(0.015625)"/>
     <path id="DejaVuSans-Oblique-55" d="M 991 4666 
L 1625 4666 
L 1075 1831 
Q 1041 1641 1027 1517 
Q 1013 1394 1013 1300 
Q 1013 869 1253 645 
Q 1494 422 1959 422 
Q 2563 422 2898 753 
Q 3234 1084 3378 1831 
L 3928 4666 
L 4563 4666 
L 4000 1753 
Q 3816 809 3300 359 
Q 2784 -91 1888 -91 
Q 1188 -91 780 261 
Q 372 613 372 1216 
Q 372 1325 387 1461 
Q 403 1597 434 1753 
L 991 4666 
z
" transform="scale(0.015625)"/>
     <path id="DejaVuSans-Oblique-76" d="M 459 3500 
L 1069 3500 
L 1581 525 
L 3256 3500 
L 3866 3500 
L 1875 0 
L 1100 0 
L 459 3500 
z
" transform="scale(0.015625)"/>
     <path id="DejaVuSans-Oblique-30" d="M 2444 4750 
Q 3078 4750 3414 4328 
Q 3750 3906 3750 3116 
Q 3750 2516 3592 1923 
Q 3434 1331 3150 863 
Q 2859 394 2467 151 
Q 2075 -91 1600 -91 
Q 988 -91 653 334 
Q 319 759 319 1544 
Q 319 2138 480 2733 
Q 641 3328 928 3794 
Q 1216 4263 1602 4506 
Q 1988 4750 2444 4750 
z
M 2406 4250 
Q 2169 4250 1955 4123 
Q 1741 3997 1569 3750 
Q 1281 3338 1111 2720 
Q 941 2103 941 1453 
Q 941 938 1123 673 
Q 1306 409 1663 409 
Q 1913 409 2125 536 
Q 2338 663 2509 909 
Q 2794 1319 2961 1936 
Q 3128 2553 3128 3206 
Q 3128 3722 2945 3986 
Q 2763 4250 2406 4250 
z
" transform="scale(0.015625)"/>
     <path id="DejaVuSans-Oblique-2e" d="M 525 794 
L 1184 794 
L 1031 0 
L 372 0 
L 525 794 
z
" transform="scale(0.015625)"/>
     <path id="DejaVuSans-Oblique-31" d="M 416 531 
L 1447 531 
L 2144 4122 
L 978 3897 
L 1088 4441 
L 2247 4666 
L 2881 4666 
L 2075 531 
L 3103 531 
L 3003 0 
L 313 0 
L 416 531 
z
" transform="scale(0.015625)"/>
    </defs>
    <use xlink:href="#DejaVuSans-Oblique-4f"/>
    <use xlink:href="#DejaVuSans-Oblique-72" transform="translate(78.710938 0)"/>
    <use xlink:href="#DejaVuSans-Oblique-74" transform="translate(119.824219 0)"/>
    <use xlink:href="#DejaVuSans-Oblique-68" transform="translate(159.033203 0)"/>
    <use xlink:href="#DejaVuSans-Oblique-6f" transform="translate(222.412109 0)"/>
    <use xlink:href="#DejaVuSans-Oblique-43" transform="translate(283.59375 0)"/>
    <use xlink:href="#DejaVuSans-Oblique-61" transform="translate(353.417969 0)"/>
    <use xlink:href="#DejaVuSans-Oblique-63" transform="translate(414.697266 0)"/>
    <use xlink:href="#DejaVuSans-Oblique-68" transform="translate(469.677734 0)"/>
    <use xlink:href="#DejaVuSans-Oblique-65" transform="translate(533.056641 0)"/>
    <use xlink:href="#DejaVuSans-Oblique-20" transform="translate(594.580078 0)"/>
    <use xlink:href="#DejaVuSans-Oblique-47" transform="translate(626.367188 0)"/>
    <use xlink:href="#DejaVuSans-Oblique-50" transform="translate(703.857422 0)"/>
    <use xlink:href="#DejaVuSans-Oblique-55" transform="translate(764.160156 0)"/>
    <use xlink:href="#DejaVuSans-Oblique-20" transform="translate(837.353516 0)"/>
    <use xlink:href="#DejaVuSans-Oblique-76" transform="translate(869.140625 0)"/>
    <use xlink:href="#DejaVuSans-Oblique-30" transform="translate(928.320312 0)"/>
    <use xlink:href="#DejaVuSans-Oblique-2e" transform="translate(991.943359 0)"/>
    <use xlink:href="#DejaVuSans-Oblique-31" transform="translate(1023.730469 0)"/>
    <use xlink:href="#DejaVuSans-Oblique-2e" transform="translate(1087.353516 0)"/>
    <use xlink:href="#DejaVuSans-Oblique-30" transform="translate(1119.140625 0)"/>
   </g>
  </g>
 </g>
 <defs>
  <clipPath id="pd5dd682a3c">
   <rect x="47.106563" y="37.9575" width="669.6" height="443.52"/>
  </clipPath>
 </defs>
</svg>
